SplineFontDB: 3.0
FontName: Comme-ExtraBold
FullName: Comme ExtraBold
FamilyName: Comme
Weight: ExtraBold
Copyright: Digitized data Copyright (c) 2011-2014, vernon adams.
Version: 1
ItalicAngle: 0
UnderlinePosition: 0
UnderlineWidth: 0
Ascent: 1638
Descent: 410
UFOAscent: 1560
UFODescent: -556
LayerCount: 2
Layer: 0 0 "Back"  1
Layer: 1 0 "Fore"  0
OS2Version: 0
OS2_WeightWidthSlopeOnly: 0
OS2_UseTypoMetrics: 0
CreationTime: 1391034433
ModificationTime: 1391034813
PfmFamily: 0
TTFWeight: 100
TTFWidth: 5
LineGap: 0
VLineGap: 0
OS2TypoAscent: 2416
OS2TypoAOffset: 0
OS2TypoDescent: -512
OS2TypoDOffset: 0
OS2TypoLinegap: 0
OS2WinAscent: 2416
OS2WinAOffset: 0
OS2WinDescent: 512
OS2WinDOffset: 0
HheadAscent: 0
HheadAOffset: 1
HheadDescent: 0
HheadDOffset: 1
OS2Vendor: 'NeWT'
Lookup: 4 0 1 "ligaStandardLigatureslookup0"  {"ligaStandardLigatureslookup0 subtable"  } ['liga' ('latn' <'dflt' > 'grek' <'dflt' > 'DFLT' <'dflt' > ) ]
MarkAttachClasses: 1
DEI: 91125
LangName: 1033 "" "" "" "" "" "Version 2" "" "Comme is a trademark of Vernon Adams and may be registered in certain jurisdictions." "newtypography" "Vernon Adams" "" "newtypography.co.uk" "newtypography.co.uk" "Copyright (c) 2014, vernon adams.+AAoACgAA-This Font Software is licensed under the SIL Open Font License, Version 1.1.+AAoA-This license is available with a FAQ at:+AAoA-http://scripts.sil.org/OFL+AAoA" "http://scripts.sil.org/OFL" "" "Comme" "ExtraBold" 
PickledData: "(dp1
S'public.glyphOrder'
p2
(S'A'
S'Agrave'
S'Aacute'
S'Acircumflex'
S'Atilde'
S'Adieresis'
S'Aring'
S'Amacron'
S'Abreve'
S'Aogonek'
S'uni01CD'
S'uni0200'
S'uni0202'
S'uni0226'
S'B'
S'uni1E02'
S'C'
S'Ccedilla'
S'Cacute'
S'Ccircumflex'
S'Cdotaccent'
S'Ccaron'
S'D'
S'Dcaron'
S'uni1E0A'
S'E'
S'Egrave'
S'Eacute'
S'Ecircumflex'
S'Edieresis'
S'Emacron'
S'Ebreve'
S'Edotaccent'
S'Eogonek'
S'Ecaron'
S'uni0204'
S'uni0206'
S'uni0228'
S'uni1EBC'
S'F'
S'uni1E1E'
S'G'
S'Gcircumflex'
S'Gbreve'
S'Gdotaccent'
S'Gcommaaccent'
S'Gcaron'
S'uni01F4'
S'H'

StartChar: A
Encoding: 65 65 0
Width: 1538
VWidth: 0
GlyphClass: 2
Flags: HW
PickledData: "(dp1
S'org.pippin.gimp.org.kernagic'
p2
(dp3
S'lstem'
p4
I0
sS'rstem'
p5
I0
ssS'com.typemytype.robofont.layerData'
p6
(dp7
sS'org.robofab.postScriptHintData'
p8
(dp9
s."
AnchorPoint: "bot" 775 0 basechar 0
AnchorPoint: "ogonek" 1307 0 basechar 0
AnchorPoint: "top" 777 1456 basechar 0
LayerCount: 2
Fore
SplineSet
619 593 m 1
 918 593 l 1
 771 1150 l 1
 619 593 l 1
533 1456 m 1
 1011 1456 l 1
 1485 0 l 1
 1102 0 l 1
 982 362 l 1
 550 362 l 1
 436 0 l 1
 53 0 l 1
 533 1456 l 1
EndSplineSet
EndChar

StartChar: AE
Encoding: 198 198 1
Width: 2045
VWidth: 0
GlyphClass: 2
Flags: HW
PickledData: "(dp1
S'org.pippin.gimp.org.kernagic'
p2
(dp3
S'lstem'
p4
I0
sS'rstem'
p5
I0
ssS'com.typemytype.robofont.layerData'
p6
(dp7
sS'org.robofab.postScriptHintData'
p8
(dp9
s."
LayerCount: 2
Fore
SplineSet
907 1456 m 1
 1903 1456 l 1
 1883 1216 l 1
 1256 1216 l 1
 1256 857 l 1
 1863 857 l 1
 1863 615 l 1
 1256 615 l 1
 1256 249 l 1
 1926 249 l 1
 1917 0 l 1
 965 0 l 1
 965 358 l 1
 592 358 l 1
 384 0 l 1
 12 0 l 1
 907 1456 l 1
965 578 m 1
 965 1048 l 1
 696 578 l 1
 965 578 l 1
EndSplineSet
EndChar

StartChar: B
Encoding: 66 66 13
Width: 1444
VWidth: 0
GlyphClass: 2
Flags: HW
PickledData: "(dp1
S'org.pippin.gimp.org.kernagic'
p2
(dp3
S'lstem'
p4
I0
sS'rstem'
p5
I0
ssS'com.typemytype.robofont.layerData'
p6
(dp7
sS'org.robofab.postScriptHintData'
p8
(dp9
s."
AnchorPoint: "top" 700 1456 basechar 0
LayerCount: 2
Fore
SplineSet
552 653 m 1
 552 250 l 1
 582 248 614 247 645 247 c 0
 888 247 981 286 981 461 c 0
 981 631 885 653 701 653 c 2
 552 653 l 1
552 1231 m 1
 552 875 l 1
 707 875 l 2
 839 875 922 922 922 1045 c 0
 922 1206 844 1232 650 1232 c 0
 618 1232 584 1232 552 1231 c 1
610 2 m 0
 486 2 339 7 171 20 c 1
 171 1454 l 1
 340 1462 492 1467 622 1467 c 0
 986 1467 1321 1460 1321 1083 c 0
 1321 940 1218 834 1044 781 c 1
 1263 739 1359 641 1359 434 c 0
 1359 154 1218 2 610 2 c 0
EndSplineSet
EndChar

StartChar: C
Encoding: 67 67 14
Width: 1593
VWidth: 0
GlyphClass: 2
Flags: HW
PickledData: "(dp1
S'org.pippin.gimp.org.kernagic'
p2
(dp3
S'lstem'
p4
I0
sS'rstem'
p5
I0
ssS'com.typemytype.robofont.layerData'
p6
(dp7
sS'org.robofab.postScriptHintData'
p8
(dp9
s."
AnchorPoint: "bot" 861 -1 basechar 0
AnchorPoint: "top" 881 1456 basechar 0
LayerCount: 2
Fore
SplineSet
1485 1026 m 1
 1206 913 l 1
 1178 913 l 1
 1144 1046 1057 1217 870 1217 c 2
 859 1217 l 1
 640 1201 522 1089 522 733 c 0
 522 366 663 238 856 238 c 2
 858 238 l 2
 1054 238 1143 404 1178 540 c 1
 1206 540 l 1
 1485 427 l 1
 1449 260 1309 -20 852 -20 c 0
 387 -20 116 248 116 733 c 0
 116 1206 387 1476 853 1476 c 0
 1295 1476 1449 1189 1485 1026 c 1
EndSplineSet
EndChar

StartChar: D
Encoding: 68 68 21
Width: 1555
VWidth: 0
GlyphClass: 2
Flags: HW
PickledData: "(dp1
S'org.pippin.gimp.org.kernagic'
p2
(dp3
S'lstem'
p4
I0
sS'rstem'
p5
I0
ssS'com.typemytype.robofont.layerData'
p6
(dp7
sS'com.fontlab.hintData'
p8
(dp9
S'vhints'
p10
((dp11
S'position'
p12
I1280
sS'width'
p13
I122
stp14
sS'hhints'
p15
((dp16
g12
I0
sg13
I94
s(dp17
g12
I1355
sg13
I94
stp18
ssS'org.robofab.postScriptHintData'
p19
(dp20
s."
HStem: 0 94 1355 94
VStem: 1280 122
AnchorPoint: "mid" 381 747 basechar 0
AnchorPoint: "bot" 770 1 basechar 0
AnchorPoint: "top" 810 1456 basechar 0
LayerCount: 2
Fore
SplineSet
552 260 m 1
 567 259 581 259 595 259 c 0
 955 259 1071 448 1071 753 c 0
 1071 997 1024 1214 603 1214 c 0
 587 1214 570 1214 552 1213 c 1
 552 260 l 1
171 6 m 1
 171 1454 l 1
 299 1463 415 1468 521 1468 c 0
 1197 1468 1439 1273 1439 758 c 0
 1439 301 1223 -11 494 -11 c 0
 396 -11 288 -6 171 6 c 1
EndSplineSet
EndChar

StartChar: Delta
Encoding: 916 916 24
Width: 1334
VWidth: 0
GlyphClass: 2
Flags: HW
PickledData: "(dp1
S'org.pippin.gimp.org.kernagic'
p2
(dp3
S'lstem'
p4
I0
sS'rstem'
p5
I0
ssS'com.typemytype.robofont.layerData'
p6
(dp7
S'b'
(dp8
S'name'
p9
S'Delta'
p10
sS'lib'
p11
(dp12
sS'unicodes'
p13
(tsS'width'
p14
I1334
sS'contours'
p15
(tsS'components'
p16
(tsS'anchors'
p17
(tsssS'org.robofab.postScriptHintData'
p18
(dp19
s."
LayerCount: 2
Fore
SplineSet
18 0 m 1
 527 1528 l 1
 772 1528 l 1
 1281 0 l 1
 18 0 l 1
328 211 m 1
 976 211 l 1
 648 1249 l 1
 328 211 l 1
EndSplineSet
EndChar

StartChar: E
Encoding: 69 69 25
Width: 1361
VWidth: 0
GlyphClass: 2
Flags: HW
PickledData: "(dp1
S'org.pippin.gimp.org.kernagic'
p2
(dp3
S'lstem'
p4
I0
sS'rstem'
p5
I0
ssS'com.typemytype.robofont.layerData'
p6
(dp7
sS'org.robofab.postScriptHintData'
p8
(dp9
s."
AnchorPoint: "bot" 666 0 basechar 0
AnchorPoint: "ogonek" 977 0 basechar 0
AnchorPoint: "top" 756 1456 basechar 0
LayerCount: 2
Fore
SplineSet
171 1456 m 1
 1214 1456 l 1
 1194 1205 l 1
 551 1205 l 1
 551 872 l 1
 1175 872 l 1
 1175 619 l 1
 551 619 l 1
 551 260 l 1
 1233 260 l 1
 1229 0 l 1
 171 0 l 1
 171 1456 l 1
EndSplineSet
EndChar

StartChar: Eng
Encoding: 330 330 34
Width: 1636
VWidth: 0
GlyphClass: 2
Flags: HW
PickledData: "(dp1
S'org.robofab.postScriptHintData'
p2
(dp3
s."
LayerCount: 2
Fore
SplineSet
1110 1069 m 1
 1466 1069 l 1
 1466 -57 l 2
 1466 -361 1331 -488 873 -505 c 1
 847 -280 l 1
 1076 -280 1111 -247 1111 -17 c 2
 1110 1069 l 1
EndSplineSet
Refer: 70 78 N 1 0 0 1 0 0 2
EndChar

StartChar: Euro
Encoding: 8364 8364 37
Width: 1391
VWidth: 0
GlyphClass: 2
Flags: HW
PickledData: "(dp1
S'org.pippin.gimp.org.kernagic'
p2
(dp3
S'lstem'
p4
I0
sS'rstem'
p5
I0
ssS'com.typemytype.robofont.layerData'
p6
(dp7
S'b'
(dp8
S'name'
p9
S'Euro'
p10
sS'lib'
p11
(dp12
sS'unicodes'
p13
(tsS'width'
p14
I1391
sS'contours'
p15
(tsS'components'
p16
(tsS'anchors'
p17
(tsssS'org.robofab.postScriptHintData'
p18
(dp19
s."
LayerCount: 2
Fore
SplineSet
-89 526 m 1
 -91 679 l 1
 79 679 l 1
 78 697 78 715 78 733 c 0
 78 757 79 780 80 802 c 1
 -90 802 l 1
 -90 955 l 1
 101 955 l 1
 175 1290 428 1476 815 1476 c 0
 1257 1476 1411 1189 1447 1026 c 1
 1168 913 l 1
 1140 913 l 1
 1106 1046 1019 1217 832 1217 c 0
 660 1217 547 1135 505 955 c 1
 803 955 l 1
 802 802 l 1
 486 802 l 1
 485 780 484 757 484 733 c 0
 484 714 484 696 485 679 c 1
 802 679 l 1
 804 526 l 1
 503 526 l 1
 548 315 667 238 820 238 c 0
 1016 238 1105 404 1140 540 c 1
 1168 540 l 1
 1447 427 l 1
 1411 260 1271 -20 814 -20 c 0
 420 -20 166 172 97 526 c 1
 -89 526 l 1
EndSplineSet
EndChar

StartChar: F
Encoding: 70 70 38
Width: 1256
VWidth: 0
GlyphClass: 2
Flags: HW
PickledData: "(dp1
S'org.pippin.gimp.org.kernagic'
p2
(dp3
S'lstem'
p4
I0
sS'rstem'
p5
I705
ssS'com.typemytype.robofont.layerData'
p6
(dp7
sS'org.robofab.postScriptHintData'
p8
(dp9
s."
AnchorPoint: "top" 727 1456 basechar 0
LayerCount: 2
Fore
SplineSet
171 1456 m 1
 1182 1456 l 1
 1165 1193 l 1
 552 1193 l 1
 552 841 l 1
 1138 841 l 1
 1138 589 l 1
 552 589 l 1
 552 0 l 1
 171 0 l 1
 171 1456 l 1
EndSplineSet
EndChar

StartChar: G
Encoding: 71 71 39
Width: 1594
VWidth: 0
GlyphClass: 2
Flags: HW
PickledData: "(dp1
S'org.pippin.gimp.org.kernagic'
p2
(dp3
S'lstem'
p4
I0
sS'rstem'
p5
I0
ssS'com.typemytype.robofont.layerData'
p6
(dp7
sS'org.robofab.postScriptHintData'
p8
(dp9
s."
AnchorPoint: "bot" 760 -1 basechar 0
AnchorPoint: "top" 836 1456 basechar 0
LayerCount: 2
Fore
SplineSet
840 -20 m 0
 395 -20 116 242 116 727 c 0
 116 1205 395 1476 843 1476 c 0
 1188 1476 1372 1327 1451 1124 c 1
 1198 992 l 1
 1171 992 l 1
 1122 1101 1048 1217 877 1217 c 0
 640 1217 522 1072 522 727 c 0
 522 335 699 237 901 237 c 0
 998 237 1077 254 1134 276 c 1
 1134 563 l 1
 830 583 l 1
 839 822 l 1
 1447 822 l 1
 1447 84 l 1
 1289 10 1087 -20 840 -20 c 0
EndSplineSet
EndChar

StartChar: H
Encoding: 72 72 45
Width: 1594
VWidth: 0
GlyphClass: 2
Flags: HW
PickledData: "(dp1
S'org.pippin.gimp.org.kernagic'
p2
(dp3
S'lstem'
p4
I0
sS'rstem'
p5
I0
ssS'com.typemytype.robofont.layerData'
p6
(dp7
sS'org.robofab.postScriptHintData'
p8
(dp9
s."
AnchorPoint: "top" 809 1456 basechar 0
LayerCount: 2
Fore
SplineSet
1042 620 m 1
 552 620 l 1
 552 -6 l 1
 172 -6 l 1
 172 1456 l 1
 552 1456 l 1
 552 871 l 1
 1042 871 l 1
 1042 1456 l 1
 1422 1456 l 1
 1422 -6 l 1
 1042 -6 l 1
 1042 620 l 1
EndSplineSet
EndChar

StartChar: Hbar
Encoding: 294 294 46
Width: 1589
VWidth: 0
GlyphClass: 2
Flags: HW
PickledData: "(dp1
S'org.pippin.gimp.org.kernagic'
p2
(dp3
S'lstem'
p4
I0
sS'rstem'
p5
I0
ssS'com.typemytype.robofont.layerData'
p6
(dp7
sS'org.robofab.postScriptHintData'
p8
(dp9
s."
LayerCount: 2
Fore
SplineSet
63 1289 m 5
 63 1089 l 5
 1522 1089 l 5
 1522 1289 l 5
 63 1289 l 5
EndSplineSet
Refer: 45 72 N 1 0 0 1 0 0 2
EndChar

StartChar: I
Encoding: 73 73 48
Width: 1051
VWidth: 0
GlyphClass: 2
Flags: HW
PickledData: "(dp1
S'org.pippin.gimp.org.kernagic'
p2
(dp3
S'lstem'
p4
I0
sS'rstem'
p5
I0
ssS'com.typemytype.robofont.layerData'
p6
(dp7
sS'com.fontlab.hintData'
p8
(dp9
S'vhints'
p10
((dp11
S'position'
p12
I111
sS'width'
p13
I529
stp14
sS'hhints'
p15
((dp16
g12
I0
sg13
I86
s(dp17
g12
I1363
sg13
I86
stp18
ssS'org.robofab.postScriptHintData'
p19
(dp20
s."
HStem: 0 86 1363 86
VStem: 111 529
AnchorPoint: "ogonek" 547 0 basechar 0
AnchorPoint: "top" 528 1456 basechar 0
LayerCount: 2
Fore
SplineSet
119 1456 m 1
 931 1456 l 1
 931 1252 l 1
 718 1252 l 1
 718 198 l 1
 931 198 l 1
 931 -6 l 1
 119 -6 l 1
 119 198 l 1
 339 198 l 1
 339 1252 l 1
 119 1252 l 1
 119 1456 l 1
EndSplineSet
EndChar

StartChar: J
Encoding: 74 74 59
Width: 817
VWidth: 0
GlyphClass: 2
Flags: HW
PickledData: "(dp1
S'org.pippin.gimp.org.kernagic'
p2
(dp3
S'lstem'
p4
I132
sS'rstem'
p5
I0
ssS'com.typemytype.robofont.layerData'
p6
(dp7
sS'org.robofab.postScriptHintData'
p8
(dp9
s."
AnchorPoint: "top" 458 1456 basechar 0
LayerCount: 2
Fore
SplineSet
263 1456 m 1
 642 1456 l 1
 642 271 l 2
 642 211 643 157 643 107 c 0
 643 -209 617 -343 245 -507 c 2
 78 -581 l 1
 -55 -289 l 1
 140 -194 l 2
 254 -138 263 -81 263 280 c 2
 263 1456 l 1
EndSplineSet
EndChar

StartChar: K
Encoding: 75 75 61
Width: 1452
VWidth: 0
GlyphClass: 2
Flags: HW
PickledData: "(dp1
S'org.pippin.gimp.org.kernagic'
p2
(dp3
S'lstem'
p4
I0
sS'rstem'
p5
I851
ssS'com.typemytype.robofont.layerData'
p6
(dp7
sS'org.robofab.postScriptHintData'
p8
(dp9
s."
AnchorPoint: "bot" 777 0 basechar 0
AnchorPoint: "top" 779 1456 basechar 0
LayerCount: 2
Fore
SplineSet
1399 1456 m 1
 1399 1453 l 1
 880 794 l 1
 1453 6 l 1
 1453 0 l 1
 1029 0 l 1
 602 589 l 1
 552 529 l 1
 552 0 l 1
 171 0 l 1
 171 1456 l 1
 552 1456 l 1
 552 897 l 1
 981 1456 l 1
 1399 1456 l 1
EndSplineSet
EndChar

StartChar: L
Encoding: 76 76 63
Width: 1205
VWidth: 0
GlyphClass: 2
Flags: HW
PickledData: "(dp1
S'org.pippin.gimp.org.kernagic'
p2
(dp3
S'lstem'
p4
I0
sS'rstem'
p5
I597
ssS'com.typemytype.robofont.layerData'
p6
(dp7
sS'org.robofab.postScriptHintData'
p8
(dp9
s."
AnchorPoint: "mid" 379 817 basechar 0
AnchorPoint: "bot" 555 0 basechar 0
AnchorPoint: "top" 373 1456 basechar 0
LayerCount: 2
Fore
SplineSet
171 1456 m 1
 552 1456 l 1
 552 239 l 1
 1186 239 l 1
 1166 0 l 1
 171 0 l 1
 171 1456 l 1
EndSplineSet
EndChar

StartChar: M
Encoding: 77 77 69
Width: 1905
VWidth: 0
GlyphClass: 2
Flags: HW
PickledData: "(dp1
S'org.pippin.gimp.org.kernagic'
p2
(dp3
S'lstem'
p4
I0
sS'rstem'
p5
I0
ssS'com.typemytype.robofont.guides'
p6
((dp7
S'y'
I378
sS'x'
I548
sS'magnetic'
p8
I5
sS'angle'
p9
I0
sS'isGlobal'
p10
I00
stp11
sS'com.typemytype.robofont.layerData'
p12
(dp13
sS'com.fontlab.hintData'
p14
(dp15
S'vhints'
p16
((dp17
S'position'
p18
I185
sS'width'
p19
I166
s(dp20
g18
I214
sg19
I151
s(dp21
g18
I332
sg19
I33
s(dp22
g18
I1463
sg19
I149
s(dp23
g18
I1463
sg19
I39
s(dp24
g18
I1477
sg19
I164
stp25
ssS'org.robofab.postScriptHintData'
p26
(dp27
s."
VStem: 185 166 214 151 332 33 1463 149 1463 39 1477 164
AnchorPoint: "top" 954 1456 basechar 0
LayerCount: 2
Fore
SplineSet
153 -6 m 1
 153 612 l 1
 175 1456 l 1
 561 1456 l 1
 957 662 l 1
 1352 1456 l 1
 1730 1456 l 1
 1752 621 l 1
 1752 -6 l 1
 1394 -6 l 1
 1394 558 l 1
 1387 901 l 1
 1062 237 l 1
 834 237 l 1
 516 902 l 1
 508 555 l 1
 508 -6 l 1
 153 -6 l 1
EndSplineSet
EndChar

StartChar: N
Encoding: 78 78 70
Width: 1637
VWidth: 0
GlyphClass: 2
Flags: HW
PickledData: "(dp1
S'org.pippin.gimp.org.kernagic'
p2
(dp3
S'lstem'
p4
I0
sS'rstem'
p5
I0
ssS'com.typemytype.robofont.layerData'
p6
(dp7
sS'org.robofab.postScriptHintData'
p8
(dp9
s."
AnchorPoint: "bot" 779 0 basechar 0
AnchorPoint: "top" 762 1456 basechar 0
LayerCount: 2
Fore
SplineSet
1111 1456 m 1
 1466 1456 l 1
 1466 0 l 1
 1094 0 l 1
 519 889 l 1
 536 530 l 1
 536 0 l 1
 171 0 l 1
 171 1456 l 1
 530 1456 l 1
 1128 523 l 1
 1111 903 l 1
 1111 1456 l 1
EndSplineSet
EndChar

StartChar: O
Encoding: 79 79 75
Width: 1661
VWidth: 0
GlyphClass: 2
Flags: HW
PickledData: "(dp1
S'org.pippin.gimp.org.kernagic'
p2
(dp3
S'lstem'
p4
I0
sS'rstem'
p5
I0
ssS'com.typemytype.robofont.guides'
p6
(tsS'com.typemytype.robofont.layerData'
p7
(dp8
sS'com.fontlab.hintData'
p9
(dp10
S'vhints'
p11
((dp12
S'position'
p13
I150
sS'width'
p14
I122
s(dp15
g13
I1390
sg14
I122
stp16
sS'hhints'
p17
((dp18
g13
I-19
sg14
I96
s(dp19
g13
I1372
sg14
I96
stp20
ssS'org.robofab.postScriptHintData'
p21
(dp22
s."
HStem: -19 96 1372 96
VStem: 150 122 1390 122
AnchorPoint: "ogonek" 803 -1 basechar 0
AnchorPoint: "top" 821 1456 basechar 0
LayerCount: 2
Fore
SplineSet
116 723 m 0
 116 1200 376 1476 831 1476 c 0
 1288 1476 1545 1198 1545 724 c 0
 1545 246 1291 -22 832 -22 c 0
 376 -22 116 247 116 723 c 0
1138 722 m 0
 1138 1023 1035 1204 832 1204 c 0
 631 1204 522 1023 522 722 c 0
 522 419 630 250 833 250 c 0
 1034 250 1138 420 1138 722 c 0
EndSplineSet
EndChar

StartChar: OE
Encoding: 338 338 76
Width: 2232
VWidth: 0
GlyphClass: 2
Flags: HW
PickledData: "(dp1
S'org.pippin.gimp.org.kernagic'
p2
(dp3
S'lstem'
p4
I0
sS'rstem'
p5
I0
ssS'com.typemytype.robofont.layerData'
p6
(dp7
S'b'
(dp8
S'name'
p9
S'OE'
p10
sS'lib'
p11
(dp12
sS'unicodes'
p13
(tsS'width'
p14
I2367
sS'contours'
p15
(tsS'components'
p16
(tsS'anchors'
p17
(tsssS'org.robofab.postScriptHintData'
p18
(dp19
s."
LayerCount: 2
Fore
SplineSet
72 728 m 0
 72 1217 323 1483 747 1483 c 0
 909 1483 1008 1458 1095 1404 c 1
 1095 1456 l 1
 2071 1456 l 1
 2052 1216 l 1
 1394 1216 l 1
 1394 866 l 1
 2032 866 l 1
 2032 625 l 1
 1394 625 l 1
 1394 249 l 1
 2090 249 l 1
 2085 0 l 1
 1095 0 l 1
 1095 61 l 1
 1008 9 907 -16 748 -16 c 0
 323 -16 72 248 72 728 c 0
1094 727 m 0
 1094 1033 987 1222 748 1222 c 0
 510 1222 397 1033 397 727 c 0
 397 428 509 245 748 245 c 0
 987 245 1094 428 1094 727 c 0
EndSplineSet
EndChar

StartChar: Oslash
Encoding: 216 216 84
Width: 1665
VWidth: 0
GlyphClass: 2
Flags: HW
PickledData: "(dp1
S'org.pippin.gimp.org.kernagic'
p2
(dp3
S'lstem'
p4
I0
sS'rstem'
p5
I0
ssS'com.typemytype.robofont.layerData'
p6
(dp7
sS'org.robofab.postScriptHintData'
p8
(dp9
s."
AnchorPoint: "top" 831 1456 basechar 0
LayerCount: 2
Fore
SplineSet
540 -256 m 1
 400 -205 l 1
 493 41 l 1
 249 147 116 381 116 723 c 0
 116 1200 376 1476 831 1476 c 0
 903 1476 970 1470 1031 1456 c 1
 1136 1731 l 1
 1282 1675 l 1
 1179 1407 l 1
 1416 1297 1545 1060 1545 724 c 0
 1545 246 1291 -22 832 -22 c 0
 763 -22 698 -16 637 -4 c 1
 540 -256 l 1
615 359 m 1
 929 1188 l 1
 900 1198 867 1204 832 1204 c 0
 631 1204 522 1023 522 722 c 0
 522 562 553 438 615 359 c 1
833 250 m 0
 1034 250 1138 420 1138 722 c 0
 1138 877 1110 1001 1054 1082 c 1
 740 265 l 1
 769 255 799 250 833 250 c 0
EndSplineSet
EndChar

StartChar: P
Encoding: 80 80 87
Width: 1457
VWidth: 0
GlyphClass: 2
Flags: HW
PickledData: "(dp1
S'org.pippin.gimp.org.kernagic'
p2
(dp3
S'lstem'
p4
I0
sS'rstem'
p5
I807
ssS'com.typemytype.robofont.layerData'
p6
(dp7
sS'org.robofab.postScriptHintData'
p8
(dp9
s."
AnchorPoint: "top" 732 1456 basechar 0
LayerCount: 2
Fore
SplineSet
552 740 m 1
 584 738 613 737 641 737 c 0
 955 737 1024 849 1024 990 c 0
 1024 1124 975 1227 637 1227 c 0
 610 1227 582 1226 552 1225 c 1
 552 740 l 1
171 1454 m 1
 322 1464 456 1469 574 1469 c 0
 1205 1469 1388 1323 1388 1008 c 0
 1388 683 1218 492 692 492 c 0
 648 492 601 493 552 496 c 1
 552 0 l 1
 171 0 l 1
 171 1454 l 1
EndSplineSet
EndChar

StartChar: Q
Encoding: 81 81 88
Width: 1662
VWidth: 0
GlyphClass: 2
Flags: HW
PickledData: "(dp1
S'org.pippin.gimp.org.kernagic'
p2
(dp3
S'lstem'
p4
I0
sS'rstem'
p5
I0
ssS'com.typemytype.robofont.layerData'
p6
(dp7
sS'org.robofab.postScriptHintData'
p8
(dp9
s."
LayerCount: 2
Fore
SplineSet
1138 722 m 0
 1138 420 1034 250 833 250 c 0
 630 250 522 419 522 722 c 0
 522 1023 631 1204 832 1204 c 0
 1035 1204 1138 1023 1138 722 c 0
1150 32 m 1
 1406 133 1545 372 1545 724 c 0
 1545 1198 1288 1476 831 1476 c 0
 376 1476 116 1200 116 723 c 0
 116 255 367 -13 808 -22 c 1
 911 -179 1120 -433 1246 -536 c 1
 1485 -337 l 1
 1360 -231 1240 -92 1150 32 c 1
EndSplineSet
EndChar

StartChar: R
Encoding: 82 82 89
Width: 1494
VWidth: 0
GlyphClass: 2
Flags: HW
PickledData: "(dp1
S'org.pippin.gimp.org.kernagic'
p2
(dp3
S'lstem'
p4
I0
sS'rstem'
p5
I839
ssS'com.typemytype.robofont.layerData'
p6
(dp7
sS'com.fontlab.hintData'
p8
(dp9
S'vhints'
p10
((dp11
S'position'
p12
I1122
sS'width'
p13
I117
stp14
sS'hhints'
p15
((dp16
g12
I722
sg13
I96
s(dp17
g12
I1355
sg13
I94
stp18
ssS'org.robofab.postScriptHintData'
p19
(dp20
s."
HStem: 722 96 1355 94
VStem: 1122 117
AnchorPoint: "bot" 749 0 basechar 0
AnchorPoint: "top" 757 1456 basechar 0
LayerCount: 2
Fore
SplineSet
552 1213 m 1
 552 833 l 1
 750 833 l 2
 943 833 1017 881 1017 1042 c 0
 1017 1188 912 1224 752 1224 c 0
 692 1224 625 1219 552 1213 c 1
171 0 m 1
 171 1454 l 1
 387 1469 569 1480 720 1480 c 0
 1185 1480 1363 1383 1363 1035 c 0
 1363 790 1224 700 1096 658 c 1
 1440 16 l 1
 1440 0 l 1
 1026 0 l 1
 717 606 l 1
 552 606 l 1
 552 0 l 1
 171 0 l 1
EndSplineSet
EndChar

StartChar: S
Encoding: 83 83 93
Width: 1228
VWidth: 0
GlyphClass: 2
Flags: HW
PickledData: "(dp1
S'org.pippin.gimp.org.kernagic'
p2
(dp3
S'lstem'
p4
I185
sS'rstem'
p5
I826
ssS'com.typemytype.robofont.guides'
p6
((dp7
S'y'
I973
sS'x'
I1035
sS'magnetic'
p8
I5
sS'angle'
p9
F90
sS'isGlobal'
p10
I00
s(dp11
S'y'
I382
sS'x'
I75
sg8
I5
sg9
F90
sg10
I00
stp12
sS'com.typemytype.robofont.layerData'
p13
(dp14
sS'org.robofab.postScriptHintData'
p15
(dp16
s."
AnchorPoint: "bot" 605 0 basechar 0
AnchorPoint: "top" 618 1458 basechar 0
LayerCount: 2
Fore
SplineSet
1107 1206 m 1
 857 1080 l 1
 833 1080 l 1
 793 1181 694 1227 626 1228 c 0
 541 1228 463 1187 462 1086 c 0
 462 1002 509 970 638 918 c 2
 810 850 l 1
 1019 766 1147 676 1147 414 c 0
 1147 131 921 -20 613 -20 c 0
 322 -20 153 117 76 236 c 1
 304 404 l 1
 337 404 l 1
 390 333 496 248 597 248 c 0
 697 248 762 288 762 391 c 0
 762 471 736 514 582 577 c 2
 358 669 l 2
 198 735 90 830 90 1055 c 0
 90 1357 331 1476 606 1476 c 0
 898 1476 1063 1325 1107 1206 c 1
EndSplineSet
EndChar

StartChar: T
Encoding: 84 84 99
Width: 1280
VWidth: 0
GlyphClass: 2
Flags: HW
PickledData: "(dp1
S'org.pippin.gimp.org.kernagic'
p2
(dp3
S'lstem'
p4
I285
sS'rstem'
p5
I844
ssS'com.typemytype.robofont.layerData'
p6
(dp7
sS'org.robofab.postScriptHintData'
p8
(dp9
s."
AnchorPoint: "mid" 637 653 basechar 0
AnchorPoint: "bot" 646 0 basechar 0
AnchorPoint: "top" 647 1456 basechar 0
LayerCount: 2
Fore
SplineSet
42 1456 m 1
 1238 1456 l 1
 1238 1217 l 1
 830 1217 l 1
 830 -6 l 1
 451 -6 l 1
 451 1217 l 1
 42 1217 l 1
 42 1456 l 1
EndSplineSet
EndChar

StartChar: Thorn
Encoding: 222 222 104
Width: 1450
VWidth: 0
GlyphClass: 2
Flags: HW
PickledData: "(dp1
S'org.pippin.gimp.org.kernagic'
p2
(dp3
S'lstem'
p4
I0
sS'rstem'
p5
I0
ssS'com.typemytype.robofont.layerData'
p6
(dp7
S'b'
(dp8
S'name'
p9
S'Thorn'
p10
sS'lib'
p11
(dp12
sS'unicodes'
p13
(tsS'width'
p14
I1192
sS'contours'
p15
(tsS'components'
p16
(tsS'anchors'
p17
(tsssS'org.robofab.postScriptHintData'
p18
(dp19
s."
LayerCount: 2
Fore
SplineSet
550 1036 m 1
 550 565 l 1
 635 565 l 2
 939 565 1008 672 1008 813 c 0
 1008 947 959 1036 662 1036 c 2
 550 1036 l 1
170 0 m 1
 170 1459 l 1
 550 1459 l 1
 550 1275 l 1
 642 1275 l 2
 1185 1275 1373 1138 1373 830 c 0
 1373 505 1201 321 688 321 c 2
 550 321 l 1
 550 0 l 1
 170 0 l 1
EndSplineSet
EndChar

StartChar: U
Encoding: 85 85 105
Width: 1528
VWidth: 0
GlyphClass: 2
Flags: HW
PickledData: "(dp1
S'org.pippin.gimp.org.kernagic'
p2
(dp3
S'lstem'
p4
I0
sS'rstem'
p5
I0
ssS'com.typemytype.robofont.layerData'
p6
(dp7
sS'org.robofab.postScriptHintData'
p8
(dp9
s."
AnchorPoint: "bot" 778 0 basechar 0
AnchorPoint: "ogonek" 836 2 basechar 0
AnchorPoint: "top" 764 1456 basechar 0
LayerCount: 2
Fore
SplineSet
1005 1456 m 1
 1385 1456 l 1
 1385 533 l 2
 1385 189 1166 -20 760 -20 c 0
 353 -20 143 186 143 533 c 2
 143 1456 l 1
 522 1456 l 1
 522 555 l 2
 522 340 606 251 760 251 c 0
 920 251 1005 342 1005 557 c 2
 1005 1456 l 1
EndSplineSet
EndChar

StartChar: V
Encoding: 86 86 116
Width: 1379
VWidth: 0
GlyphClass: 2
Flags: HW
PickledData: "(dp1
S'org.pippin.gimp.org.kernagic'
p2
(dp3
S'lstem'
p4
I0
sS'rstem'
p5
I0
ssS'com.typemytype.robofont.layerData'
p6
(dp7
sS'org.robofab.postScriptHintData'
p8
(dp9
s."
LayerCount: 2
Fore
SplineSet
457 -6 m 1
 7 1456 l 1
 375 1456 l 1
 477 1079 587 709 683 326 c 1
 725 497 l 1
 1006 1456 l 1
 1372 1456 l 1
 886 -6 l 1
 457 -6 l 1
EndSplineSet
EndChar

StartChar: W
Encoding: 87 87 117
Width: 2047
VWidth: 0
GlyphClass: 2
Flags: HW
PickledData: "(dp1
S'org.pippin.gimp.org.kernagic'
p2
(dp3
S'lstem'
p4
I0
sS'rstem'
p5
I0
ssS'com.typemytype.robofont.layerData'
p6
(dp7
sS'org.robofab.postScriptHintData'
p8
(dp9
s."
AnchorPoint: "bot" 1005 0 basechar 0
AnchorPoint: "top" 1028 1456 basechar 0
LayerCount: 2
Fore
SplineSet
1017 973 m 1
 744 0 l 1
 398 0 l 1
 49 1456 l 1
 415 1456 l 1
 603 496 l 1
 866 1450 l 1
 1167 1450 l 1
 1432 489 l 1
 1631 1456 l 1
 1998 1456 l 1
 1620 0 l 1
 1276 0 l 1
 1017 973 l 1
EndSplineSet
EndChar

StartChar: X
Encoding: 88 88 122
Width: 1421
VWidth: 0
GlyphClass: 2
Flags: HW
PickledData: "(dp1
S'org.pippin.gimp.org.kernagic'
p2
(dp3
S'lstem'
p4
I0
sS'rstem'
p5
I0
ssS'com.typemytype.robofont.layerData'
p6
(dp7
sS'org.robofab.postScriptHintData'
p8
(dp9
s."
LayerCount: 2
Fore
SplineSet
935 739 m 1
 1431 -6 l 1
 1017 -6 l 1
 699 471 l 1
 383 -6 l 1
 -10 -6 l 1
 502 768 l 1
 44 1456 l 1
 458 1456 l 1
 737 1038 l 1
 999 1456 l 1
 1406 1456 l 1
 935 739 l 1
EndSplineSet
EndChar

StartChar: Y
Encoding: 89 89 123
Width: 1348
VWidth: 0
GlyphClass: 2
Flags: HW
PickledData: "(dp1
S'org.pippin.gimp.org.kernagic'
p2
(dp3
S'lstem'
p4
I0
sS'rstem'
p5
I0
ssS'com.typemytype.robofont.layerData'
p6
(dp7
sS'org.robofab.postScriptHintData'
p8
(dp9
s."
AnchorPoint: "top" 678 1456 basechar 0
LayerCount: 2
Fore
SplineSet
863 574 m 1
 863 0 l 1
 483 0 l 1
 483 570 l 1
 0 1456 l 1
 400 1456 l 1
 672 927 l 1
 949 1456 l 1
 1348 1456 l 1
 863 574 l 1
EndSplineSet
EndChar

StartChar: Z
Encoding: 90 90 128
Width: 1266
VWidth: 0
GlyphClass: 2
Flags: HW
PickledData: "(dp1
S'org.pippin.gimp.org.kernagic'
p2
(dp3
S'lstem'
p4
I0
sS'rstem'
p5
I0
ssS'com.typemytype.robofont.layerData'
p6
(dp7
sS'org.robofab.postScriptHintData'
p8
(dp9
s."
AnchorPoint: "bot" 598 0 basechar 0
AnchorPoint: "top" 641 1456 basechar 0
LayerCount: 2
Fore
SplineSet
107 0 m 1
 107 197 l 1
 746 1216 l 1
 132 1216 l 1
 116 1456 l 1
 1156 1456 l 1
 1156 1243 l 1
 556 239 l 1
 1173 239 l 1
 1187 0 l 1
 107 0 l 1
EndSplineSet
EndChar

StartChar: a
Encoding: 97 97 132
Width: 1162
VWidth: 0
GlyphClass: 2
Flags: HW
PickledData: "(dp1
S'org.pippin.gimp.org.kernagic'
p2
(dp3
S'lstem'
p4
I0
sS'rstem'
p5
I0
ssS'com.typemytype.robofont.guides'
p6
(tsS'com.typemytype.robofont.layerData'
p7
(dp8
sS'com.fontlab.hintData'
p9
(dp10
S'vhints'
p11
((dp12
S'position'
p13
I126
sS'width'
p14
I120
s(dp15
g13
I842
sg14
I32
s(dp16
g13
I875
sg14
I86
stp17
sS'hhints'
p18
((dp19
g13
I-15
sg14
I92
s(dp20
g13
I535
sg14
I82
s(dp21
g13
I983
sg14
I92
stp22
ssS'org.robofab.postScriptHintData'
p23
(dp24
s."
HStem: -15 92 535 82 983 92
VStem: 126 120 842 32 875 86
AnchorPoint: "bot" 632 -1 basechar 0
AnchorPoint: "ogonek" 897 -1 basechar 0
AnchorPoint: "top" 561 1081 basechar 0
LayerCount: 2
Fore
SplineSet
415 -16 m 0
 220 -16 84 93 84 305 c 0
 84 559 341 627 557 627 c 2
 562 627 l 1
 705 626 l 1
 705 699 l 2
 705 810 637 853 532 853 c 0
 436 853 311 818 189 769 c 1
 124 981 l 1
 278 1058 445 1101 594 1101 c 0
 854 1101 1055 967 1055 633 c 2
 1055 0 l 1
 792 0 l 1
 755 118 l 1
 681 44 582 -16 415 -16 c 0
703 250 m 1
 703 465 l 1
 638 466 l 1
 513 466 402 433 402 311 c 0
 402 217 465 176 530 176 c 0
 619 176 675 219 703 250 c 1
EndSplineSet
EndChar

StartChar: acute
Encoding: 180 180 136
Width: 795
VWidth: 0
GlyphClass: 4
Flags: HW
PickledData: "(dp1
S'org.robofab.postScriptHintData'
p2
(dp3
sS'com.typemytype.robofont.layerData'
p4
(dp5
s."
AnchorPoint: "top" 500 1082 mark 0
LayerCount: 2
Fore
SplineSet
396 1207 m 1
 571 1614 l 1
 933 1614 l 1
 594 1207 l 1
 396 1207 l 1
EndSplineSet
EndChar

StartChar: ae
Encoding: 230 230 138
Width: 1753
VWidth: 0
GlyphClass: 2
Flags: HW
PickledData: "(dp1
S'org.pippin.gimp.org.kernagic'
p2
(dp3
S'lstem'
p4
I0
sS'rstem'
p5
I0
ssS'com.typemytype.robofont.layerData'
p6
(dp7
sS'com.fontlab.hintData'
p8
(dp9
S'vhints'
p10
((dp11
S'position'
p12
I126
sS'width'
p13
I119
s(dp14
g12
I817
sg13
I117
s(dp15
g12
I817
sg13
I82
s(dp16
g12
I1556
sg13
I98
stp17
sS'hhints'
p18
((dp19
g12
I-14
sg13
I98
s(dp20
g12
I518
sg13
I82
s(dp21
g12
I983
sg13
I92
stp22
ssS'org.robofab.postScriptHintData'
p23
(dp24
s."
HStem: -14 98 518 82 983 92
VStem: 126 119 817 117 817 82 1556 98
AnchorPoint: "top" 1198 1082 basechar 0
LayerCount: 2
Fore
SplineSet
1232 -20 m 0
 1003 -20 910 54 836 140 c 1
 751 40 604 -16 413 -16 c 0
 208 -16 68 86 68 305 c 0
 68 559 323 630 540 630 c 2
 545 630 l 2
 549 630 699 628 706 628 c 1
 706 699 l 2
 706 811 622 852 517 852 c 0
 422 852 297 818 174 768 c 1
 107 978 l 1
 263 1056 427 1100 579 1100 c 0
 742 1100 859 1036 894 934 c 1
 963 1034 1071 1102 1247 1102 c 0
 1560 1102 1671 885 1672 720 c 0
 1672 489 1423 426 1042 426 c 2
 1015 426 l 1
 1040 226 1163 208 1272 208 c 0
 1410 208 1521 253 1604 306 c 1
 1662 114 l 1
 1578 35 1414 -20 1232 -20 c 0
387 309 m 0
 387 216 452 175 516 175 c 0
 520 175 525 176 529 176 c 0
 661 189 727 243 749 281 c 1
 732 318 710 438 710 467 c 1
 703 468 624 468 620 468 c 0
 495 468 387 432 387 309 c 0
1439 752 m 0
 1439 818 1404 883 1253 883 c 0
 1152 883 1029 813 1017 616 c 1
 1053 616 l 2
 1384 616 1439 669 1439 752 c 0
EndSplineSet
EndChar

StartChar: ampersand
Encoding: 38 38 143
Width: 1420
VWidth: 0
GlyphClass: 2
Flags: HW
PickledData: "(dp1
S'org.pippin.gimp.org.kernagic'
p2
(dp3
S'lstem'
p4
I0
sS'rstem'
p5
I0
ssS'com.typemytype.robofont.layerData'
p6
(dp7
sS'com.fontlab.hintData'
p8
(dp9
S'vhints'
p10
((dp11
S'position'
p12
I135
sS'width'
p13
I121
s(dp14
g12
I312
sg13
I105
s(dp15
g12
I917
sg13
I110
stp16
sS'hhints'
p17
((dp18
g12
I-19
sg13
I96
s(dp19
g12
I1372
sg13
I96
stp20
ssS'org.robofab.postScriptHintData'
p21
(dp22
s."
HStem: -19 96 1372 96
VStem: 135 121 312 105 917 110
LayerCount: 2
Fore
SplineSet
886 300 m 1
 537 692 l 1
 523 685 376 569 367 458 c 0
 366 447 366 437 366 427 c 0
 366 271 475 197 616 197 c 0
 714 197 803 235 886 300 c 1
652 1539 m 0
 830 1539 1042 1454 1042 1227 c 0
 1042 1081 886 925 722 838 c 1
 1051 472 l 1
 1120 562 1184 668 1244 781 c 1
 1421 656 l 1
 1354 544 1283 420 1197 309 c 1
 1373 113 l 1
 1187 -37 l 1
 1032 136 l 1
 920 44 785 -16 612 -16 c 0
 307 -16 95 126 95 458 c 0
 95 655 284 782 405 867 c 1
 360 911 241 1048 241 1184 c 0
 241 1428 451 1539 652 1539 c 0
611 979 m 1
 697 1022 787 1139 787 1222 c 0
 787 1312 727 1342 647 1342 c 0
 571 1342 510 1313 510 1217 c 0
 510 1127 530 1074 611 979 c 1
EndSplineSet
EndChar

StartChar: apostrophemod
Encoding: 700 700 145
Width: 650
VWidth: 0
GlyphClass: 2
Flags: HW
PickledData: "(dp1
S'org.robofab.postScriptHintData'
p2
(dp3
sS'com.typemytype.robofont.layerData'
p4
(dp5
s."
LayerCount: 2
Fore
SplineSet
48 1092 m 1
 48 1092 89 1468 99 1563 c 1
 390 1563 l 1
 356 1375 294 1092 294 1092 c 1
 48 1092 l 1
EndSplineSet
EndChar

StartChar: approxequal
Encoding: 8776 8776 146
Width: 1299
VWidth: 0
GlyphClass: 2
Flags: HW
PickledData: "(dp1
S'org.pippin.gimp.org.kernagic'
p2
(dp3
S'lstem'
p4
I0
sS'rstem'
p5
I0
ssS'com.typemytype.robofont.layerData'
p6
(dp7
S'b'
(dp8
S'name'
p9
S'approxequal'
p10
sS'lib'
p11
(dp12
sS'unicodes'
p13
(tsS'width'
p14
I1136
sS'contours'
p15
(tsS'components'
p16
(tsS'anchors'
p17
(tsssS'org.robofab.postScriptHintData'
p18
(dp19
s."
LayerCount: 2
Fore
SplineSet
251 736 m 1
 93 807 l 1
 124 985 224 1100 401 1100 c 0
 500 1100 567 1067 678 1004 c 0
 751 963 813 933 870 933 c 0
 930 933 990 966 1035 1091 c 1
 1176 1021 l 1
 1137 851 1073 733 877 733 c 0
 771 733 684 769 537 851 c 0
 499 871 450 899 398 899 c 0
 314 899 273 841 251 736 c 1
251 311 m 1
 93 382 l 1
 124 560 224 675 401 675 c 0
 500 675 567 641 678 579 c 0
 751 538 813 508 870 508 c 0
 930 508 990 541 1035 665 c 1
 1176 596 l 1
 1137 426 1073 307 877 307 c 0
 771 307 684 344 537 426 c 0
 499 446 450 474 397 474 c 0
 314 474 273 415 251 311 c 1
EndSplineSet
EndChar

StartChar: asciicircum
Encoding: 94 94 149
Width: 1501
VWidth: 0
GlyphClass: 2
Flags: HW
PickledData: "(dp1
S'org.pippin.gimp.org.kernagic'
p2
(dp3
S'lstem'
p4
I0
sS'rstem'
p5
I0
ssS'com.typemytype.robofont.layerData'
p6
(dp7
sS'org.robofab.postScriptHintData'
p8
(dp9
s."
LayerCount: 2
Fore
SplineSet
657 1456 m 1
 810 1456 l 1
 1393 272 l 1
 1039 272 l 1
 741 919 l 1
 463 272 l 1
 108 272 l 1
 657 1456 l 1
EndSplineSet
EndChar

StartChar: asciitilde
Encoding: 126 126 150
Width: 1192
VWidth: 0
GlyphClass: 2
Flags: HW
PickledData: "(dp1
S'org.pippin.gimp.org.kernagic'
p2
(dp3
S'lstem'
p4
I0
sS'rstem'
p5
I0
ssS'com.typemytype.robofont.layerData'
p6
(dp7
S'b'
(dp8
S'name'
p9
S'asciitilde'
p10
sS'lib'
p11
(dp12
sS'unicodes'
p13
(tsS'width'
p14
I1192
sS'contours'
p15
(tsS'components'
p16
(tsS'anchors'
p17
(tsssS'org.robofab.postScriptHintData'
p18
(dp19
s."
LayerCount: 2
Fore
SplineSet
182 470 m 1
 87 629 l 1
 139 735 225 825 375 825 c 0
 460 825 550 797 631 761 c 0
 716 722 782 699 834 699 c 0
 906 699 969 736 1053 828 c 1
 1142 678 l 1
 1091 578 963 480 817 480 c 0
 720 480 648 509 556 552 c 0
 488 585 434 609 364 609 c 0
 281 609 221 542 182 470 c 1
EndSplineSet
EndChar

StartChar: asterisk
Encoding: 42 42 151
Width: 1047
VWidth: 0
GlyphClass: 2
Flags: HW
PickledData: "(dp1
S'org.pippin.gimp.org.kernagic'
p2
(dp3
S'lstem'
p4
I0
sS'rstem'
p5
I0
ssS'com.typemytype.robofont.layerData'
p6
(dp7
sS'org.robofab.postScriptHintData'
p8
(dp9
s."
LayerCount: 2
Fore
SplineSet
358 476 m 1
 127 606 l 1
 368 926 l 1
 23 1007 l 1
 96 1259 l 1
 433 1112 l 1
 399 1521 l 1
 652 1521 l 1
 620 1112 l 1
 959 1259 l 1
 1033 1007 l 1
 684 926 l 1
 727 869 928 607 925 606 c 2
 925 606 697 474 699 474 c 1
 525 810 l 1
 358 476 l 1
EndSplineSet
EndChar

StartChar: at
Encoding: 64 64 152
Width: 2026
VWidth: 0
GlyphClass: 2
Flags: HW
PickledData: "(dp1
S'org.pippin.gimp.org.kernagic'
p2
(dp3
S'lstem'
p4
I0
sS'rstem'
p5
I0
ssS'com.typemytype.robofont.layerData'
p6
(dp7
sS'org.robofab.postScriptHintData'
p8
(dp9
s."
LayerCount: 2
Fore
SplineSet
1006 -125 m 0
 499 -125 152 175 152 699 c 0
 152 1196 541 1589 1075 1589 c 0
 1539 1589 1906 1287 1906 839 c 0
 1906 466 1673 277 1474 277 c 1
 1408 337 1257 359 1229 502 c 1
 1179 360 1073 267 940 267 c 0
 690 267 581 443 581 656 c 0
 581 922 762 1202 1083 1202 c 0
 1233 1202 1388 1151 1461 1112 c 1
 1432 897 1392 699 1392 570 c 0
 1392 494 1425 452 1474 452 c 0
 1564 452 1665 582 1665 847 c 0
 1665 1118 1478 1380 1068 1380 c 0
 649 1380 410 1048 410 695 c 0
 410 351 628 78 1009 78 c 0
 1188 78 1372 110 1512 189 c 1
 1576 28 l 1
 1443 -75 1219 -125 1006 -125 c 0
834 639 m 0
 834 508 879 450 958 450 c 0
 1079 450 1134 541 1167 775 c 1
 1205 1011 l 1
 1172 1017 1126 1021 1099 1021 c 0
 936 1021 834 836 834 639 c 0
EndSplineSet
EndChar

StartChar: b
Encoding: 98 98 154
Width: 1268
VWidth: 0
GlyphClass: 2
Flags: HW
PickledData: "(dp1
S'org.pippin.gimp.org.kernagic'
p2
(dp3
S'lstem'
p4
I0
sS'rstem'
p5
I0
ssS'com.typemytype.robofont.guides'
p6
(tsS'com.typemytype.robofont.layerData'
p7
(dp8
sS'com.fontlab.hintData'
p9
(dp10
S'vhints'
p11
((dp12
S'position'
p13
I193
sS'width'
p14
I125
s(dp15
g13
I193
sg14
I94
s(dp16
g13
I1018
sg14
I122
stp17
sS'hhints'
p18
((dp19
g13
I-19
sg14
I92
s(dp20
g13
I982
sg14
I92
stp21
ssS'org.robofab.postScriptHintData'
p22
(dp23
s."
HStem: -19 92 982 92
VStem: 193 125 193 94 1018 122
AnchorPoint: "top" 775 1082 basechar 0
LayerCount: 2
Fore
SplineSet
745 -20 m 0
 591 -20 501 59 456 135 c 1
 446 0 l 1
 128 0 l 1
 128 1540 l 1
 483 1560 l 1
 483 1149 l 1
 473 942 l 1
 525 1035 617 1102 758 1102 c 2
 760 1102 l 2
 1049 1102 1189 862 1189 549 c 0
 1189 216 1042 -20 745 -20 c 0
662 208 m 0
 750 208 827 299 827 549 c 0
 827 806 764 873 676 873 c 0
 578 873 483 813 483 565 c 2
 483 290 l 1
 517 246 559 208 662 208 c 0
EndSplineSet
EndChar

StartChar: backslash
Encoding: 92 92 155
Width: 937
VWidth: 0
GlyphClass: 2
Flags: HW
PickledData: "(dp1
S'org.pippin.gimp.org.kernagic'
p2
(dp3
S'lstem'
p4
I0
sS'rstem'
p5
I0
ssS'com.typemytype.robofont.layerData'
p6
(dp7
S'b'
(dp8
S'name'
p9
S'backslash'
p10
sS'lib'
p11
(dp12
sS'unicodes'
p13
(tsS'width'
p14
I937
sS'contours'
p15
(tsS'components'
p16
(tsS'anchors'
p17
(tsssS'org.robofab.postScriptHintData'
p18
(dp19
s."
LayerCount: 2
Fore
SplineSet
568 18 m 1
 93 1507 l 1
 353 1507 l 1
 823 18 l 1
 568 18 l 1
EndSplineSet
EndChar

StartChar: bar
Encoding: 124 124 156
Width: 739
VWidth: 0
GlyphClass: 2
Flags: HW
PickledData: "(dp1
S'org.pippin.gimp.org.kernagic'
p2
(dp3
S'lstem'
p4
I0
sS'rstem'
p5
I0
ssS'com.typemytype.robofont.layerData'
p6
(dp7
S'b'
(dp8
S'name'
p9
S'bar'
p10
sS'lib'
p11
(dp12
sS'unicodes'
p13
(tsS'width'
p14
I681
sS'contours'
p15
(tsS'components'
p16
(tsS'anchors'
p17
(tsssS'org.robofab.postScriptHintData'
p18
(dp19
s."
LayerCount: 2
Fore
SplineSet
271 1476 m 1
 478 1476 l 1
 478 -508 l 1
 271 -508 l 1
 271 1476 l 1
EndSplineSet
EndChar

StartChar: braceleft
Encoding: 123 123 157
Width: 960
VWidth: 0
GlyphClass: 2
Flags: HW
PickledData: "(dp1
S'org.pippin.gimp.org.kernagic'
p2
(dp3
S'lstem'
p4
I0
sS'rstem'
p5
I0
ssS'com.typemytype.robofont.layerData'
p6
(dp7
sS'org.robofab.postScriptHintData'
p8
(dp9
s."
LayerCount: 2
Fore
SplineSet
829 -318 m 1
 633 -318 405 -293 405 -52 c 2
 405 334 l 2
 405 437 396 533 188 533 c 1
 188 744 l 1
 395 744 405 839 405 943 c 2
 405 1329 l 2
 405 1570 633 1595 829 1595 c 1
 829 1405 l 1
 702 1402 646 1392 646 1254 c 2
 646 911 l 2
 646 802 629 674 446 638 c 1
 629 602 646 474 646 366 c 2
 646 23 l 2
 646 -115 702 -125 829 -129 c 1
 829 -318 l 1
EndSplineSet
EndChar

StartChar: braceright
Encoding: 125 125 158
Width: 960
VWidth: 0
GlyphClass: 2
Flags: HW
PickledData: "(dp1
S'org.pippin.gimp.org.kernagic'
p2
(dp3
S'lstem'
p4
I0
sS'rstem'
p5
I0
ssS'com.typemytype.robofont.layerData'
p6
(dp7
sS'org.robofab.postScriptHintData'
p8
(dp9
s."
LayerCount: 2
Fore
SplineSet
164 -318 m 1
 164 -129 l 1
 291 -125 347 -115 347 23 c 2
 347 366 l 2
 347 474 364 602 547 638 c 1
 364 674 347 802 347 911 c 2
 347 1254 l 2
 347 1392 291 1402 164 1405 c 1
 164 1595 l 1
 360 1595 588 1570 588 1329 c 2
 588 943 l 2
 588 839 597 744 804 744 c 1
 804 533 l 1
 597 533 588 437 588 334 c 2
 588 -52 l 2
 588 -293 360 -318 164 -318 c 1
EndSplineSet
EndChar

StartChar: bracketleft
Encoding: 91 91 159
Width: 823
VWidth: 0
GlyphClass: 2
Flags: HW
PickledData: "(dp1
S'org.pippin.gimp.org.kernagic'
p2
(dp3
S'lstem'
p4
I0
sS'rstem'
p5
I0
ssS'com.typemytype.robofont.layerData'
p6
(dp7
sS'org.robofab.postScriptHintData'
p8
(dp9
s."
LayerCount: 2
Fore
SplineSet
226 -250 m 1
 226 1483 l 1
 674 1483 l 1
 674 1276 l 1
 476 1276 l 1
 476 -41 l 1
 674 -41 l 1
 674 -250 l 1
 226 -250 l 1
EndSplineSet
EndChar

StartChar: bracketright
Encoding: 93 93 160
Width: 965
VWidth: 0
GlyphClass: 2
Flags: HW
PickledData: "(dp1
S'org.pippin.gimp.org.kernagic'
p2
(dp3
S'lstem'
p4
I0
sS'rstem'
p5
I0
ssS'com.typemytype.robofont.layerData'
p6
(dp7
sS'org.robofab.postScriptHintData'
p8
(dp9
s."
LayerCount: 2
Fore
SplineSet
296 -250 m 1
 296 -41 l 1
 494 -41 l 1
 494 1276 l 1
 296 1276 l 1
 296 1483 l 1
 744 1483 l 1
 744 -250 l 1
 296 -250 l 1
EndSplineSet
EndChar

StartChar: breve
Encoding: 728 728 161
Width: 937
VWidth: 0
GlyphClass: 4
Flags: HW
PickledData: "(dp1
S'org.robofab.postScriptHintData'
p2
(dp3
sS'com.typemytype.robofont.layerData'
p4
(dp5
s."
AnchorPoint: "top" 447 1081 mark 0
LayerCount: 2
Fore
SplineSet
447 1321 m 0
 264 1321 147 1425 147 1595 c 1
 339 1595 l 1
 339 1538 382 1504 447 1504 c 0
 512 1504 555 1538 555 1595 c 1
 744 1595 l 1
 744 1425 628 1321 447 1321 c 0
EndSplineSet
EndChar

StartChar: breveinvertedcomb
Encoding: 785 785 162
Width: 872
VWidth: 0
GlyphClass: 4
Flags: HW
PickledData: "(dp1
S'org.robofab.postScriptHintData'
p2
(dp3
sS'com.typemytype.robofont.layerData'
p4
(dp5
s."
AnchorPoint: "top" 447 1081 mark 0
LayerCount: 2
Fore
SplineSet
146 1321 m 1
 146 1490 263 1595 445 1595 c 0
 627 1595 742 1490 742 1321 c 1
 554 1321 l 1
 554 1377 510 1412 445 1412 c 0
 380 1412 337 1377 337 1321 c 1
 146 1321 l 1
EndSplineSet
EndChar

StartChar: brokenbar
Encoding: 166 166 163
Width: 763
VWidth: 0
GlyphClass: 2
Flags: HW
PickledData: "(dp1
S'org.pippin.gimp.org.kernagic'
p2
(dp3
S'lstem'
p4
I0
sS'rstem'
p5
I0
ssS'com.typemytype.robofont.layerData'
p6
(dp7
S'b'
(dp8
S'name'
p9
S'brokenbar'
p10
sS'lib'
p11
(dp12
sS'unicodes'
p13
(tsS'width'
p14
I653
sS'contours'
p15
(tsS'components'
p16
(tsS'anchors'
p17
(tsssS'org.robofab.postScriptHintData'
p18
(dp19
s."
LayerCount: 2
Fore
SplineSet
252 296 m 1
 478 296 l 1
 478 -390 l 1
 252 -390 l 1
 252 296 l 1
252 1440 m 1
 478 1440 l 1
 478 754 l 1
 252 754 l 1
 252 1440 l 1
EndSplineSet
EndChar

StartChar: bullet
Encoding: 8226 8226 164
Width: 964
VWidth: 0
GlyphClass: 2
Flags: HW
PickledData: "(dp1
S'org.pippin.gimp.org.kernagic'
p2
(dp3
S'lstem'
p4
I0
sS'rstem'
p5
I0
ssS'com.typemytype.robofont.layerData'
p6
(dp7
S'b'
(dp8
S'name'
p9
S'bullet'
p10
sS'lib'
p11
(dp12
sS'unicodes'
p13
(tsS'width'
p14
I908
sS'contours'
p15
(tsS'components'
p16
(tsS'anchors'
p17
(tsssS'org.robofab.postScriptHintData'
p18
(dp19
s."
LayerCount: 2
Fore
SplineSet
470 348 m 0
 265 348 117 498 117 694 c 0
 117 891 274 1046 476 1046 c 0
 679 1046 828 897 828 699 c 0
 828 503 673 348 470 348 c 0
EndSplineSet
EndChar

StartChar: c
Encoding: 99 99 165
Width: 1129
VWidth: 0
GlyphClass: 2
Flags: HW
PickledData: "(dp1
S'org.pippin.gimp.org.kernagic'
p2
(dp3
S'lstem'
p4
I0
sS'rstem'
p5
I696
ssS'com.typemytype.robofont.guides'
p6
((dp7
S'y'
I417
sS'x'
I962
sS'magnetic'
p8
I5
sS'angle'
p9
F90
sS'isGlobal'
p10
I00
s(dp11
S'y'
I1020
sS'x'
I565
sg8
I5
sg9
F90
sg10
I00
s(dp12
S'y'
I994
sS'x'
I572
sg8
I5
sg9
F90
sg10
I00
stp13
sS'com.typemytype.robofont.layerData'
p14
(dp15
sS'com.fontlab.hintData'
p16
(dp17
S'vhints'
p18
((dp19
S'position'
p20
I128
sS'width'
p21
I120
stp22
sS'hhints'
p23
((dp24
g20
I-19
sg21
I92
s(dp25
g20
I982
sg21
I92
stp26
ssS'org.robofab.postScriptHintData'
p27
(dp28
s."
HStem: -19 92 982 92
VStem: 128 120
AnchorPoint: "bot" 627 0 basechar 0
AnchorPoint: "top" 621 1082 basechar 0
LayerCount: 2
Fore
SplineSet
658 861 m 0
 546 861 437 766 437 541 c 0
 437 316 546 222 658 222 c 2
 660 222 l 2
 744 222 819 275 843 359 c 1
 856 359 l 1
 1074 242 l 1
 993 59 852 -20 643 -20 c 0
 297 -20 79 195 79 541 c 0
 79 887 297 1102 643 1102 c 0
 852 1102 993 1023 1074 841 c 1
 856 723 l 1
 844 723 l 1
 819 807 743 861 658 861 c 0
EndSplineSet
EndChar

StartChar: caron
Encoding: 711 711 167
Width: 959
VWidth: 0
GlyphClass: 4
Flags: HW
PickledData: "(dp1
S'org.robofab.postScriptHintData'
p2
(dp3
sS'com.typemytype.robofont.layerData'
p4
(dp5
s."
AnchorPoint: "top" 468 1082 mark 0
LayerCount: 2
Fore
SplineSet
299 1277 m 1
 86 1673 l 1
 358 1673 l 1
 452 1465 l 1
 544 1673 l 1
 816 1673 l 1
 603 1277 l 1
 299 1277 l 1
EndSplineSet
EndChar

StartChar: caron.alt
Encoding: 65537 -1 168
Width: 612
VWidth: 0
GlyphClass: 4
Flags: HW
PickledData: "(dp1
S'org.robofab.postScriptHintData'
p2
(dp3
sS'com.typemytype.robofont.layerData'
p4
(dp5
s."
AnchorPoint: "caron.alt" 21 1082 mark 0
LayerCount: 2
Fore
SplineSet
341 1119 m 1
 346 1558 l 1
 607 1558 l 1
 540 1119 l 1
 341 1119 l 1
EndSplineSet
EndChar

StartChar: cedilla
Encoding: 184 184 173
Width: 759
VWidth: 0
GlyphClass: 4
Flags: HW
PickledData: "(dp1
S'org.robofab.postScriptHintData'
p2
(dp3
sS'com.typemytype.robofont.layerData'
p4
(dp5
s."
AnchorPoint: "bot" 515 23 mark 0
LayerCount: 2
Fore
SplineSet
449 -419 m 0
 394 -419 335 -407 278 -383 c 1
 321 -261 l 1
 362 -275 397 -281 426 -281 c 0
 501 -281 537 -242 538 -199 c 0
 538 -156 513 -130 451 -130 c 0
 441 -130 430 -131 418 -132 c 1
 418 -60 l 1
 460 -44 500 -36 536 -36 c 0
 635 -36 703 -96 703 -207 c 0
 703 -341 590 -419 449 -419 c 0
EndSplineSet
EndChar

StartChar: cent
Encoding: 162 162 174
Width: 1129
VWidth: 0
GlyphClass: 2
Flags: HW
PickledData: "(dp1
S'org.pippin.gimp.org.kernagic'
p2
(dp3
S'lstem'
p4
I0
sS'rstem'
p5
I0
ssS'com.typemytype.robofont.layerData'
p6
(dp7
sS'org.robofab.postScriptHintData'
p8
(dp9
s."
LayerCount: 2
Fore
SplineSet
565 1363 m 1
 712 1363 l 1
 698 1100 l 1
 877 1087 1000 1007 1074 841 c 1
 856 723 l 1
 844 723 l 1
 819 807 743 861 658 861 c 0
 546 861 437 766 437 541 c 0
 437 316 546 222 658 222 c 2
 660 222 l 2
 744 222 819 275 843 359 c 1
 856 359 l 1
 1074 242 l 1
 1000 74 874 -6 692 -18 c 1
 690 -297 l 1
 554 -297 l 1
 561 -16 l 1
 263 16 79 223 79 541 c 0
 79 860 264 1067 564 1098 c 1
 565 1363 l 1
EndSplineSet
EndChar

StartChar: circumflex
Encoding: 710 710 175
Width: 932
VWidth: 0
GlyphClass: 4
Flags: HW
PickledData: "(dp1
S'org.robofab.postScriptHintData'
p2
(dp3
sS'com.typemytype.robofont.layerData'
p4
(dp5
s."
AnchorPoint: "top" 448 1082 mark 0
LayerCount: 2
Fore
SplineSet
84 1306 m 1
 297 1702 l 1
 601 1702 l 1
 814 1306 l 1
 542 1306 l 1
 449 1514 l 1
 356 1306 l 1
 84 1306 l 1
EndSplineSet
EndChar

StartChar: colon
Encoding: 58 58 176
Width: 707
VWidth: 0
GlyphClass: 2
Flags: HW
PickledData: "(dp1
S'org.pippin.gimp.org.kernagic'
p2
(dp3
S'lstem'
p4
I0
sS'rstem'
p5
I0
ssS'com.typemytype.robofont.layerData'
p6
(dp7
S'b'
(dp8
S'name'
p9
S'colon'
p10
sS'lib'
p11
(dp12
sS'unicodes'
p13
(tsS'width'
p14
I653
sS'contours'
p15
(tsS'components'
p16
(tsS'anchors'
p17
(tsssS'org.robofab.postScriptHintData'
p18
(dp19
s."
LayerCount: 2
Fore
SplineSet
361 787 m 0
 268 787 188 838 188 948 c 0
 188 1060 267 1116 361 1116 c 0
 456 1116 533 1060 533 948 c 0
 533 840 456 787 361 787 c 0
361 -6 m 0
 268 -6 188 45 188 155 c 0
 188 267 267 323 361 323 c 0
 456 323 533 267 533 155 c 0
 533 47 456 -6 361 -6 c 0
EndSplineSet
EndChar

StartChar: comma
Encoding: 44 44 177
Width: 680
VWidth: 0
GlyphClass: 2
Flags: HW
PickledData: "(dp1
S'org.pippin.gimp.org.kernagic'
p2
(dp3
S'lstem'
p4
I0
sS'rstem'
p5
I0
ssS'com.typemytype.robofont.layerData'
p6
(dp7
sS'org.robofab.postScriptHintData'
p8
(dp9
s."
LayerCount: 2
Fore
SplineSet
185 -350 m 1
 185 -350 221 218 221 281 c 1
 518 281 l 1
 518 104 l 1
 395 -350 l 1
 185 -350 l 1
EndSplineSet
EndChar

StartChar: commaaccent
Encoding: 806 806 178
Width: 623
VWidth: 0
GlyphClass: 4
Flags: HW
PickledData: "(dp1
S'org.robofab.postScriptHintData'
p2
(dp3
s."
AnchorPoint: "bot" 346 0 mark 0
LayerCount: 2
Fore
SplineSet
126 -553 m 1
 126 -553 210 -108 210 -101 c 1
 489 -101 l 1
 489 -105 346 -553 346 -553 c 1
 126 -553 l 1
EndSplineSet
EndChar

StartChar: commaturnedabovecomb
Encoding: 786 786 179
Width: 600
VWidth: 0
GlyphClass: 4
Flags: HW
PickledData: "(dp1
S'org.robofab.postScriptHintData'
p2
(dp3
s."
AnchorPoint: "top" 289 1081 mark 0
LayerCount: 2
Fore
SplineSet
147 1290 m 1
 147 1319 286 1790 286 1790 c 1
 499 1790 l 1
 499 1790 435 1280 435 1274 c 1
 138 1274 l 1
 147 1290 l 1
EndSplineSet
EndChar

StartChar: copyright
Encoding: 169 169 180
Width: 1792
VWidth: 0
GlyphClass: 2
Flags: HW
PickledData: "(dp1
S'org.pippin.gimp.org.kernagic'
p2
(dp3
S'lstem'
p4
I0
sS'rstem'
p5
I0
ssS'com.typemytype.robofont.layerData'
p6
(dp7
sS'org.robofab.postScriptHintData'
p8
(dp9
s."
LayerCount: 2
Fore
SplineSet
910 251 m 0
 668 251 433 412 433 738 c 0
 433 1063 668 1224 909 1224 c 0
 1009 1224 1109 1197 1193 1144 c 1
 1145 1017 l 1
 1071 1057 993 1078 923 1078 c 0
 757 1078 625 966 625 738 c 0
 625 509 758 398 924 398 c 0
 995 398 1071 418 1146 458 c 1
 1194 331 l 1
 1109 278 1010 251 910 251 c 0
888 103 m 0
 1226 103 1500 377 1500 729 c 0
 1500 1080 1226 1353 888 1353 c 0
 550 1353 276 1080 276 729 c 0
 276 377 550 103 888 103 c 0
888 -55 m 0
 455 -55 103 286 103 729 c 0
 103 1171 455 1511 888 1511 c 0
 1321 1511 1674 1171 1674 729 c 0
 1674 286 1321 -55 888 -55 c 0
EndSplineSet
EndChar

StartChar: currency
Encoding: 164 164 181
Width: 1110
VWidth: 0
GlyphClass: 2
Flags: HW
PickledData: "(dp1
S'org.pippin.gimp.org.kernagic'
p2
(dp3
S'lstem'
p4
I0
sS'rstem'
p5
I0
ssS'com.typemytype.robofont.layerData'
p6
(dp7
S'b'
(dp8
S'name'
p9
S'currency'
p10
sS'lib'
p11
(dp12
sS'unicodes'
p13
(tsS'width'
p14
I1164
sS'contours'
p15
(tsS'components'
p16
(tsS'anchors'
p17
(tsssS'org.robofab.postScriptHintData'
p18
(dp19
s."
LayerCount: 2
Fore
SplineSet
799 1092 m 1
 980 1266 l 1
 1085 1154 l 1
 907 978 l 1
 948 912 975 833 975 746 c 0
 975 660 952 582 908 513 c 1
 1084 340 l 1
 980 229 l 1
 799 403 l 1
 732 352 651 321 561 321 c 0
 472 321 388 348 320 400 c 1
 147 230 l 1
 37 337 l 1
 216 513 l 1
 175 579 148 660 148 746 c 0
 148 831 174 908 216 978 c 1
 36 1155 l 1
 147 1266 l 1
 323 1093 l 1
 389 1140 474 1173 561 1173 c 0
 652 1173 730 1146 799 1092 c 1
818 746 m 0
 818 892 700 1010 561 1010 c 0
 425 1010 309 892 309 746 c 0
 309 599 425 484 561 484 c 0
 703 484 818 598 818 746 c 0
EndSplineSet
EndChar

StartChar: d
Encoding: 100 100 182
Width: 1268
VWidth: 0
GlyphClass: 2
Flags: HW
PickledData: "(dp1
S'org.pippin.gimp.org.kernagic'
p2
(dp3
S'lstem'
p4
I0
sS'rstem'
p5
I0
ssS'com.typemytype.robofont.layerData'
p6
(dp7
sS'com.fontlab.hintData'
p8
(dp9
S'vhints'
p10
((dp11
S'position'
p12
I114
sS'width'
p13
I166
s(dp14
g12
I907
sg13
I161
s(dp15
g12
I930
sg13
I138
stp16
sS'hhints'
p17
((dp18
g12
I-19
sg13
I127
s(dp19
g12
I953
sg13
I127
stp20
ssS'org.robofab.postScriptHintData'
p21
(dp22
s."
HStem: -19 127 953 127
VStem: 114 166 907 161 930 138
AnchorPoint: "mid" 935 1294 basechar 0
AnchorPoint: "caron.alt" 1004 1093 basechar 0
AnchorPoint: "top" 458 1082 basechar 0
LayerCount: 2
Fore
SplineSet
787 1540 m 1
 1141 1560 l 1
 1141 0 l 1
 822 0 l 1
 814 166 l 1
 765 61 672 -20 516 -20 c 0
 226 -20 83 220 83 533 c 0
 83 867 227 1102 524 1102 c 0
 656 1102 741 1043 791 978 c 1
 787 1138 l 1
 787 1540 l 1
606 210 m 0
 686 210 751 247 786 307 c 1
 786 793 l 1
 752 836 704 875 619 875 c 0
 532 875 442 820 442 533 c 0
 442 275 518 210 606 210 c 0
EndSplineSet
EndChar

StartChar: dagger
Encoding: 8224 8224 183
Width: 1160
VWidth: 0
GlyphClass: 2
Flags: HW
PickledData: "(dp1
S'org.pippin.gimp.org.kernagic'
p2
(dp3
S'lstem'
p4
I0
sS'rstem'
p5
I0
ssS'com.typemytype.robofont.layerData'
p6
(dp7
S'b'
(dp8
S'name'
p9
S'dagger'
p10
sS'lib'
p11
(dp12
sS'unicodes'
p13
(tsS'width'
p14
I1050
sS'contours'
p15
(tsS'components'
p16
(tsS'anchors'
p17
(tsssS'org.robofab.postScriptHintData'
p18
(dp19
s."
LayerCount: 2
Fore
SplineSet
415 1459 m 1
 745 1459 l 1
 745 1084 l 1
 1065 1084 l 1
 1065 876 l 1
 737 876 l 1
 737 -109 l 1
 415 -109 l 1
 415 876 l 1
 108 876 l 1
 108 1084 l 1
 415 1084 l 1
 415 1459 l 1
EndSplineSet
EndChar

StartChar: daggerdbl
Encoding: 8225 8225 184
Width: 1132
VWidth: 0
GlyphClass: 2
Flags: HW
PickledData: "(dp1
S'org.pippin.gimp.org.kernagic'
p2
(dp3
S'lstem'
p4
I0
sS'rstem'
p5
I0
ssS'com.typemytype.robofont.layerData'
p6
(dp7
S'b'
(dp8
S'name'
p9
S'daggerdbl'
p10
sS'lib'
p11
(dp12
sS'unicodes'
p13
(tsS'width'
p14
I1022
sS'contours'
p15
(tsS'components'
p16
(tsS'anchors'
p17
(tsssS'org.robofab.postScriptHintData'
p18
(dp19
s."
LayerCount: 2
Fore
SplineSet
414 1458 m 1
 745 1458 l 1
 745 1083 l 1
 1063 1083 l 1
 1063 875 l 1
 745 875 l 1
 745 570 l 1
 1063 570 l 1
 1063 362 l 1
 737 362 l 1
 737 -157 l 1
 414 -157 l 1
 414 362 l 1
 109 362 l 1
 109 570 l 1
 414 570 l 1
 414 875 l 1
 109 875 l 1
 109 1083 l 1
 414 1083 l 1
 414 1458 l 1
EndSplineSet
EndChar

StartChar: dblgravecomb
Encoding: 783 783 185
Width: 1107
VWidth: 0
GlyphClass: 4
Flags: HW
PickledData: "(dp1
S'org.robofab.postScriptHintData'
p2
(dp3
sS'com.typemytype.robofont.layerData'
p4
(dp5
s."
AnchorPoint: "top" 579 1081 mark 0
LayerCount: 2
Fore
SplineSet
320 1259 m 1
 40 1663 l 1
 337 1663 l 1
 482 1259 l 1
 320 1259 l 1
687 1259 m 1
 431 1663 l 1
 703 1663 l 1
 860 1259 l 1
 687 1259 l 1
EndSplineSet
EndChar

StartChar: degree
Encoding: 176 176 188
Width: 828
VWidth: 0
GlyphClass: 2
Flags: HW
PickledData: "(dp1
S'org.pippin.gimp.org.kernagic'
p2
(dp3
S'lstem'
p4
I0
sS'rstem'
p5
I0
ssS'com.typemytype.robofont.layerData'
p6
(dp7
sS'org.robofab.postScriptHintData'
p8
(dp9
s."
LayerCount: 2
Fore
SplineSet
423 1057 m 0
 497 1057 565 1110 565 1211 c 0
 565 1307 495 1361 424 1361 c 0
 347 1361 278 1307 278 1211 c 0
 278 1111 347 1057 423 1057 c 0
423 901 m 0
 215 901 106 1053 106 1212 c 0
 106 1374 219 1513 423 1513 c 0
 623 1513 738 1374 738 1212 c 0
 738 1055 627 901 423 901 c 0
EndSplineSet
EndChar

StartChar: dieresis
Encoding: 168 168 189
Width: 1104
VWidth: 0
GlyphClass: 4
Flags: HW
PickledData: "(dp1
S'org.robofab.postScriptHintData'
p2
(dp3
sS'com.typemytype.robofont.layerData'
p4
(dp5
s."
AnchorPoint: "top" 546 1082 mark 0
LayerCount: 2
Fore
SplineSet
284 1223 m 0
 185 1223 125 1284 125 1382 c 0
 125 1481 185 1543 284 1543 c 0
 380 1543 440 1481 440 1382 c 0
 440 1284 380 1223 284 1223 c 0
802 1223 m 0
 704 1223 642 1284 642 1382 c 0
 642 1481 704 1543 802 1543 c 0
 900 1543 959 1481 959 1382 c 0
 959 1284 900 1223 802 1223 c 0
EndSplineSet
EndChar

StartChar: divide
Encoding: 247 247 190
Width: 1274
VWidth: 0
GlyphClass: 2
Flags: HW
PickledData: "(dp1
S'org.pippin.gimp.org.kernagic'
p2
(dp3
S'lstem'
p4
I0
sS'rstem'
p5
I0
ssS'com.typemytype.robofont.layerData'
p6
(dp7
sS'org.robofab.postScriptHintData'
p8
(dp9
s."
LayerCount: 2
Fore
SplineSet
82 703 m 1
 1166 703 l 1
 1166 490 l 1
 82 490 l 1
 82 703 l 1
479 315 m 1
 770 315 l 1
 770 18 l 1
 479 18 l 1
 479 315 l 1
479 1167 m 1
 779 1167 l 1
 779 885 l 1
 479 885 l 1
 479 1167 l 1
EndSplineSet
EndChar

StartChar: dollar
Encoding: 36 36 191
Width: 1228
VWidth: 0
GlyphClass: 2
Flags: HW
PickledData: "(dp1
S'org.pippin.gimp.org.kernagic'
p2
(dp3
S'lstem'
p4
I0
sS'rstem'
p5
I0
ssS'com.typemytype.robofont.layerData'
p6
(dp7
S'b'
(dp8
S'name'
p9
S'dollar'
p10
sS'lib'
p11
(dp12
sS'unicodes'
p13
(tsS'width'
p14
I1221
sS'contours'
p15
(tsS'components'
p16
(tsS'anchors'
p17
(tsssS'org.robofab.postScriptHintData'
p18
(dp19
s."
LayerCount: 2
Fore
SplineSet
526 1771 m 1
 690 1771 l 1
 690 1472 l 1
 930 1446 1067 1313 1107 1206 c 1
 857 1080 l 1
 833 1080 l 1
 793 1181 694 1227 626 1228 c 0
 541 1228 463 1187 462 1086 c 0
 462 1002 509 970 638 918 c 2
 810 850 l 1
 1019 766 1147 676 1147 414 c 0
 1147 159 963 10 701 -16 c 1
 710 -280 l 1
 538 -280 l 1
 538 -17 l 1
 293 4 146 128 76 236 c 1
 304 404 l 1
 337 404 l 1
 390 333 496 248 597 248 c 0
 697 248 762 288 762 391 c 0
 762 471 736 514 582 577 c 2
 358 669 l 2
 198 735 90 830 90 1055 c 0
 90 1328 287 1452 528 1473 c 1
 526 1771 l 1
EndSplineSet
EndChar

StartChar: dotaccent
Encoding: 729 729 192
Width: 637
VWidth: 0
GlyphClass: 4
Flags: HW
PickledData: "(dp1
S'org.robofab.postScriptHintData'
p2
(dp3
sS'com.typemytype.robofont.layerData'
p4
(dp5
s."
AnchorPoint: "top" 320 1082 mark 0
LayerCount: 2
Fore
SplineSet
524 1459 m 0
 524 1343 446 1267 322 1267 c 0
 198 1267 120 1343 120 1459 c 0
 120 1570 198 1644 322 1644 c 0
 446 1644 524 1570 524 1459 c 0
EndSplineSet
EndChar

StartChar: dotlessi
Encoding: 305 305 193
Width: 615
VWidth: 0
GlyphClass: 2
Flags: HW
PickledData: "(dp1
S'org.pippin.gimp.org.kernagic'
p2
(dp3
S'lstem'
p4
I0
sS'rstem'
p5
I0
ssS'com.typemytype.robofont.layerData'
p6
(dp7
sS'org.robofab.postScriptHintData'
p8
(dp9
s."
AnchorPoint: "ogonek" 342 0 basechar 0
AnchorPoint: "top" 317 1082 basechar 0
LayerCount: 2
Fore
SplineSet
133 1082 m 1
 493 1082 l 1
 493 0 l 1
 133 0 l 1
 133 1082 l 1
EndSplineSet
EndChar

StartChar: dotlessj
Encoding: 567 567 194
Width: 706
VWidth: 0
GlyphClass: 2
Flags: HW
PickledData: "(dp1
S'org.pippin.gimp.org.kernagic'
p2
(dp3
S'lstem'
p4
I0
sS'rstem'
p5
I0
ssS'com.typemytype.robofont.layerData'
p6
(dp7
sS'com.fontlab.hintData'
p8
(dp9
S'vhints'
p10
((dp11
S'position'
p12
I111
sS'width'
p13
I142
stp14
sS'hhints'
p15
((dp16
g12
I-479
sg13
I112
stp17
ssS'org.robofab.postScriptHintData'
p18
(dp19
s."
HStem: -479 112
VStem: 111 142
LayerCount: 2
Fore
SplineSet
194 1082 m 1
 554 1082 l 1
 554 -31 l 2
 554 -337 393 -408 127 -527 c 2
 37 -567 l 1
 -89 -308 l 1
 4 -266 l 2
 173 -190 194 -148 194 2 c 2
 194 1082 l 1
EndSplineSet
EndChar

StartChar: e
Encoding: 101 101 195
Width: 1199
VWidth: 0
GlyphClass: 2
Flags: HW
PickledData: "(dp1
S'org.pippin.gimp.org.kernagic'
p2
(dp3
S'lstem'
p4
I0
sS'rstem'
p5
I747
ssS'com.typemytype.robofont.layerData'
p6
(dp7
sS'com.fontlab.hintData'
p8
(dp9
S'hhints'
p10
((dp11
S'position'
p12
I-19
sS'width'
p13
I94
s(dp14
g12
I982
sg13
I92
stp15
ssS'org.robofab.postScriptHintData'
p16
(dp17
s."
HStem: -19 94 982 92
AnchorPoint: "bot" 661 0 basechar 0
AnchorPoint: "ogonek" 825 5 basechar 0
AnchorPoint: "top" 628 1082 basechar 0
LayerCount: 2
Fore
SplineSet
662 -20 m 0
 306 -20 79 196 79 542 c 0
 79 887 292 1102 624 1102 c 0
 968 1102 1097 884 1106 577 c 0
 1106 491 1093 434 1093 434 c 1
 438 434 l 1
 454 287 559 208 702 208 c 0
 813 208 914 244 998 297 c 1
 1015 297 l 1
 1092 114 l 1
 1008 35 845 -20 662 -20 c 0
441 624 m 1
 806 624 l 1
 806 802 750 877 642 877 c 2
 640 877 l 2
 528 877 449 804 441 624 c 1
EndSplineSet
EndChar

StartChar: eight
Encoding: 56 56 203
Width: 1378
VWidth: 0
GlyphClass: 2
Flags: HW
PickledData: "(dp1
S'org.pippin.gimp.org.kernagic'
p2
(dp3
S'lstem'
p4
I0
sS'rstem'
p5
I0
ssS'com.typemytype.robofont.layerData'
p6
(dp7
sS'org.robofab.postScriptHintData'
p8
(dp9
s."
LayerCount: 2
Fore
SplineSet
694 -20 m 0
 344 -20 137 131 137 391 c 0
 137 583 231 724 384 779 c 1
 249 825 164 931 164 1111 c 0
 164 1350 391 1476 691 1476 c 0
 993 1476 1216 1350 1216 1111 c 0
 1216 937 1139 830 1009 779 c 1
 1155 723 1241 586 1241 391 c 0
 1241 131 1041 -20 694 -20 c 0
694 206 m 0
 814 206 862 270 862 405 c 0
 862 544 796 652 694 686 c 1
 591 652 521 544 521 404 c 0
 521 270 575 206 694 206 c 0
694 837 m 1
 800 883 861 980 861 1092 c 0
 861 1194 798 1255 694 1255 c 0
 589 1255 520 1193 520 1092 c 0
 520 979 587 883 694 837 c 1
EndSplineSet
EndChar

StartChar: emdash
Encoding: 8212 8212 206
Width: 2240
VWidth: 0
GlyphClass: 2
Flags: HW
PickledData: "(dp1
S'org.robofab.postScriptHintData'
p2
(dp3
sS'com.typemytype.robofont.layerData'
p4
(dp5
s."
LayerCount: 2
Fore
SplineSet
60 450 m 1
 60 660 l 1
 2180 660 l 1
 2180 450 l 1
 60 450 l 1
EndSplineSet
EndChar

StartChar: endash
Encoding: 8211 8211 207
Width: 1171
VWidth: 0
GlyphClass: 2
Flags: HW
PickledData: "(dp1
S'org.pippin.gimp.org.kernagic'
p2
(dp3
S'lstem'
p4
I0
sS'rstem'
p5
I0
ssS'com.typemytype.robofont.layerData'
p6
(dp7
sS'org.robofab.postScriptHintData'
p8
(dp9
s."
LayerCount: 2
Fore
SplineSet
137 440 m 1
 137 666 l 1
 1034 666 l 1
 1034 440 l 1
 137 440 l 1
EndSplineSet
EndChar

StartChar: eng
Encoding: 331 331 208
Width: 1244
VWidth: 0
GlyphClass: 2
Flags: HW
PickledData: "(dp1
S'org.robofab.postScriptHintData'
p2
(dp3
sS'com.typemytype.robofont.layerData'
p4
(dp5
s."
LayerCount: 2
Fore
SplineSet
789 182 m 1
 1150 182 l 1
 1150 -58 l 2
 1150 -362 1018 -488 557 -505 c 1
 532 -280 l 1
 756 -280 789 -248 789 -18 c 2
 789 182 l 1
EndSplineSet
Refer: 276 110 N 1 0 0 1 0 0 2
EndChar

StartChar: equal
Encoding: 61 61 210
Width: 1269
VWidth: 0
GlyphClass: 2
Flags: HW
PickledData: "(dp1
S'org.pippin.gimp.org.kernagic'
p2
(dp3
S'lstem'
p4
I0
sS'rstem'
p5
I0
ssS'com.typemytype.robofont.layerData'
p6
(dp7
S'b'
(dp8
S'name'
p9
S'equal'
p10
sS'lib'
p11
(dp12
sS'unicodes'
p13
(tsS'width'
p14
I1050
sS'contours'
p15
(tsS'components'
p16
(tsS'anchors'
p17
(tsssS'org.robofab.postScriptHintData'
p18
(dp19
s."
LayerCount: 2
Fore
SplineSet
94 1141 m 1
 1149 1141 l 1
 1149 921 l 1
 94 921 l 1
 94 1141 l 1
94 709 m 1
 1149 709 l 1
 1149 489 l 1
 94 489 l 1
 94 709 l 1
EndSplineSet
EndChar

StartChar: estimated
Encoding: 8494 8494 211
Width: 1163
VWidth: 0
GlyphClass: 2
Flags: HW
PickledData: "(dp1
S'org.robofab.postScriptHintData'
p2
(dp3
sS'com.typemytype.robofont.layerData'
p4
(dp5
S'b'
(dp6
S'name'
p7
S'estimated'
p8
sS'lib'
p9
(dp10
sS'unicodes'
p11
(tsS'width'
p12
I1223
sS'contours'
p13
(tsS'components'
p14
(tsS'anchors'
p15
(tsss."
LayerCount: 2
Fore
SplineSet
68 527 m 0
 68 840 293 1071 608 1071 c 0
 920 1071 1065 846 1065 507 c 1
 327 507 l 1
 328 238 400 53 624 53 c 0
 802 53 910 130 1006 234 c 1
 1057 184 l 1
 958 66 827 -20 624 -20 c 0
 253 -20 68 216 68 527 c 0
909 587 m 1
 909 817 819 1011 614 1011 c 0
 445 1011 344 842 327 587 c 1
 909 587 l 1
EndSplineSet
EndChar

StartChar: eth
Encoding: 240 240 212
Width: 1165
VWidth: 0
GlyphClass: 2
Flags: HW
PickledData: "(dp1
S'org.pippin.gimp.org.kernagic'
p2
(dp3
S'lstem'
p4
I0
sS'rstem'
p5
I0
ssS'com.typemytype.robofont.layerData'
p6
(dp7
sS'org.robofab.postScriptHintData'
p8
(dp9
s."
LayerCount: 2
Fore
SplineSet
159 1489 m 1
 487 1489 l 1
 590 1384 l 1
 853 1494 l 1
 923 1297 l 1
 726 1215 l 1
 828 1094 937 980 1016 847 c 0
 1078 743 1118 613 1120 465 c 0
 1120 153 911 -24 593 -24 c 0
 278 -24 57 178 57 474 c 0
 57 759 251 949 543 949 c 0
 574 949 636 941 670 933 c 1
 629 982 527 1092 503 1117 c 1
 263 1021 l 1
 194 1213 l 1
 361 1284 l 1
 159 1489 l 1
870 471 m 0
 870 639 768 750 593 750 c 0
 415 750 320 647 320 477 c 0
 320 314 423 200 599 200 c 0
 771 200 870 307 870 471 c 0
EndSplineSet
EndChar

StartChar: exclam
Encoding: 33 33 213
Width: 764
VWidth: 0
GlyphClass: 2
Flags: HW
PickledData: "(dp1
S'org.pippin.gimp.org.kernagic'
p2
(dp3
S'lstem'
p4
I0
sS'rstem'
p5
I0
ssS'com.typemytype.robofont.layerData'
p6
(dp7
sS'org.robofab.postScriptHintData'
p8
(dp9
s."
LayerCount: 2
Fore
SplineSet
323 468 m 1
 251 1319 l 1
 251 1565 l 1
 513 1565 l 1
 513 1319 l 1
 450 468 l 1
 323 468 l 1
378 -8 m 0
 286 -8 214 70 214 159 c 0
 214 251 286 324 378 324 c 0
 469 324 539 251 539 159 c 0
 539 70 469 -8 378 -8 c 0
EndSplineSet
EndChar

StartChar: f
Encoding: 102 102 215
Width: 841
VWidth: 0
GlyphClass: 2
Flags: HW
PickledData: "(dp1
S'org.pippin.gimp.org.kernagic'
p2
(dp3
S'lstem'
p4
I182
sS'rstem'
p5
I417
ssS'com.typemytype.robofont.layerData'
p6
(dp7
sS'com.fontlab.hintData'
p8
(dp9
S'vhints'
p10
((dp11
S'position'
p12
I269
sS'width'
p13
I166
stp14
sS'hhints'
p15
((dp16
g12
I952
sg13
I89
s(dp17
g12
I1358
sg13
I122
stp18
ssS'org.robofab.postScriptHintData'
p19
(dp20
s."
HStem: 952 89 1358 122
VStem: 269 166
AnchorPoint: "top" 464 1456 basechar 0
LayerCount: 2
Fore
SplineSet
577 1521 m 0
 732 1521 818 1498 847 1491 c 1
 837 1278 l 1
 772 1286 736 1289 701 1289 c 0
 598 1289 541 1255 541 1158 c 2
 541 1082 l 1
 805 1082 l 1
 805 878 l 1
 541 878 l 1
 541 0 l 1
 181 0 l 1
 181 878 l 1
 35 878 l 1
 40 1055 l 1
 181 1077 l 1
 181 1158 l 2
 181 1444 363 1521 577 1521 c 0
EndSplineSet
EndChar

StartChar: five
Encoding: 53 53 216
Width: 1378
VWidth: 0
GlyphClass: 2
Flags: HW
PickledData: "(dp1
S'org.pippin.gimp.org.kernagic'
p2
(dp3
S'lstem'
p4
I0
sS'rstem'
p5
I0
ssS'com.typemytype.robofont.layerData'
p6
(dp7
sS'org.robofab.postScriptHintData'
p8
(dp9
s."
LayerCount: 2
Fore
SplineSet
687 723 m 0
 572 723 509 684 487 600 c 1
 226 643 l 1
 289 1456 l 1
 1146 1456 l 1
 1112 1216 l 1
 567 1216 l 1
 524 885 l 1
 580 933 648 958 749 958 c 0
 1075 958 1213 713 1213 485 c 0
 1213 209 1029 -20 694 -20 c 0
 431 -20 272 55 168 209 c 1
 341 397 l 1
 361 397 l 1
 424 287 552 249 653 249 c 0
 805 249 879 344 879 502 c 0
 879 615 810 722 687 723 c 0
EndSplineSet
EndChar

StartChar: florin
Encoding: 402 402 218
Width: 1205
VWidth: 0
GlyphClass: 2
Flags: HW
PickledData: "(dp1
S'org.robofab.postScriptHintData'
p2
(dp3
s."
LayerCount: 2
Fore
SplineSet
443 1274 m 2
 491 1580 662 1730 925 1730 c 0
 1178 1730 1278 1562 1288 1308 c 1
 1133 1308 l 1
 1116 1445 1088 1544 959 1544 c 0
 849 1544 776 1487 748 1327 c 2
 696 1022 l 1
 1022 1022 l 1
 1007 950 l 1
 680 950 l 1
 549 113 l 1
 486 -255 351 -411 131 -411 c 0
 52 -411 -38 -391 -140 -353 c 1
 -109 -234 l 1
 -40 -247 14 -255 57 -255 c 0
 196 -255 224 -172 264 102 c 1
 393 950 l 1
 163 950 l 1
 179 1022 l 1
 404 1022 l 1
 443 1274 l 2
EndSplineSet
EndChar

StartChar: foundryicon
Encoding: 65540 -1 219
Width: 1347
VWidth: 0
GlyphClass: 2
Flags: HW
PickledData: "(dp1
S'org.robofab.postScriptHintData'
p2
(dp3
s."
LayerCount: 2
Fore
SplineSet
485 405 m 1
 591 405 l 1
 591 552 l 1
 761 405 l 1
 867 405 l 1
 867 672 l 1
 761 672 l 1
 761 523 l 1
 591 672 l 1
 485 672 l 1
 485 405 l 1
280 2 m 1
 423 461 l 1
 34 755 l 1
 519 755 l 1
 669 1215 l 1
 828 755 l 1
 1313 755 l 1
 922 461 l 1
 1066 2 l 1
 669 278 l 1
 280 2 l 1
EndSplineSet
EndChar

StartChar: four
Encoding: 52 52 220
Width: 1378
VWidth: 0
GlyphClass: 2
Flags: HW
PickledData: "(dp1
S'org.pippin.gimp.org.kernagic'
p2
(dp3
S'lstem'
p4
I0
sS'rstem'
p5
I0
ssS'com.typemytype.robofont.layerData'
p6
(dp7
sS'org.robofab.postScriptHintData'
p8
(dp9
s."
LayerCount: 2
Fore
SplineSet
699 0 m 1
 699 325 l 1
 111 325 l 1
 92 543 l 1
 636 1456 l 1
 1078 1456 l 1
 1078 563 l 1
 1295 563 l 1
 1279 325 l 1
 1078 325 l 1
 1078 0 l 1
 699 0 l 1
369 557 m 1
 698 557 l 1
 698 1113 l 1
 369 557 l 1
EndSplineSet
EndChar

StartChar: fraction
Encoding: 8260 8260 221
Width: 1179
VWidth: 0
GlyphClass: 2
Flags: HW
PickledData: "(dp1
S'org.robofab.postScriptHintData'
p2
(dp3
s."
LayerCount: 2
Fore
SplineSet
45 0 m 1
 1088 1573 l 1
 1292 1573 l 1
 263 0 l 1
 45 0 l 1
EndSplineSet
EndChar

StartChar: g
Encoding: 103 103 222
Width: 1257
VWidth: 0
GlyphClass: 2
Flags: HW
PickledData: "(dp1
S'org.pippin.gimp.org.kernagic'
p2
(dp3
S'lstem'
p4
I0
sS'rstem'
p5
I0
ssS'com.typemytype.robofont.layerData'
p6
(dp7
sS'com.fontlab.hintData'
p8
(dp9
S'vhints'
p10
((dp11
S'position'
p12
I128
sS'width'
p13
I122
s(dp14
g12
I977
sg13
I125
s(dp15
g12
I977
sg13
I36
stp16
sS'hhints'
p17
((dp18
g12
I-426
sg13
I101
s(dp19
g12
I0
sg13
I93
s(dp20
g12
I982
sg13
I92
stp21
ssS'org.robofab.postScriptHintData'
p22
(dp23
s."
HStem: -426 101 0 93 982 92
VStem: 128 122 977 125 977 36
AnchorPoint: "top" 580 1082 basechar 0
LayerCount: 2
Fore
SplineSet
813 -26 m 0
 813 -10 812 6 810 23 c 2
 801 100 l 1
 754 48 670 -2 520 -2 c 0
 330 -2 79 93 79 563 c 0
 79 953 321 1102 532 1102 c 0
 658 1102 737 1049 786 991 c 1
 787 1082 l 1
 1137 1082 l 1
 1137 -13 l 2
 1137 -365 886 -512 584 -512 c 0
 442 -512 311 -499 194 -466 c 1
 219 -238 l 1
 248 -238 l 1
 340 -266 434 -283 515 -283 c 0
 687 -283 813 -215 813 -26 c 0
615 208 m 0
 677 208 745 232 784 267 c 1
 784 800 l 1
 740 845 707 873 621 873 c 0
 545 873 439 832 439 562 c 0
 439 311 509 208 615 208 c 0
EndSplineSet
EndChar

StartChar: germandbls
Encoding: 223 223 228
Width: 1338
VWidth: 0
GlyphClass: 2
Flags: HW
PickledData: "(dp1
S'org.pippin.gimp.org.kernagic'
p2
(dp3
S'lstem'
p4
I0
sS'rstem'
p5
I0
ssS'com.typemytype.robofont.layerData'
p6
(dp7
S'b'
(dp8
S'name'
p9
S'germandbls'
p10
sS'lib'
p11
(dp12
sS'unicodes'
p13
(tsS'width'
p14
I1278
sS'contours'
p15
(tsS'components'
p16
(tsS'anchors'
p17
(tsssS'org.robofab.postScriptHintData'
p18
(dp19
s."
LayerCount: 2
Fore
SplineSet
912 -20 m 0
 816 -20 692 1 565 51 c 1
 630 268 l 1
 666 248 741 222 803 222 c 0
 873 222 921 254 921 335 c 0
 921 520 644 536 644 728 c 0
 644 902 812 942 812 1107 c 0
 812 1193 753 1223 668 1223 c 0
 533 1223 481 1119 481 954 c 2
 481 -1 l 1
 120 -1 l 1
 120 995 l 2
 120 1291 343 1471 646 1471 c 0
 921 1471 1142 1354 1142 1109 c 0
 1142 878 925 805 925 759 c 0
 925 707 1303 648 1303 327 c 0
 1303 106 1180 -20 912 -20 c 0
EndSplineSet
EndChar

StartChar: grave
Encoding: 96 96 229
Width: 1078
VWidth: 0
GlyphClass: 4
Flags: HW
PickledData: "(dp1
S'org.robofab.postScriptHintData'
p2
(dp3
sS'com.typemytype.robofont.layerData'
p4
(dp5
s."
AnchorPoint: "top" 559 1081 mark 0
LayerCount: 2
Fore
SplineSet
423 1207 m 1
 83 1614 l 1
 447 1614 l 1
 621 1207 l 1
 423 1207 l 1
EndSplineSet
EndChar

StartChar: greater
Encoding: 62 62 230
Width: 1107
VWidth: 0
GlyphClass: 2
Flags: HW
PickledData: "(dp1
S'org.pippin.gimp.org.kernagic'
p2
(dp3
S'lstem'
p4
I0
sS'rstem'
p5
I0
ssS'com.typemytype.robofont.layerData'
p6
(dp7
S'b'
(dp8
S'name'
p9
S'greater'
p10
sS'lib'
p11
(dp12
sS'unicodes'
p13
(tsS'width'
p14
I1107
sS'contours'
p15
(tsS'components'
p16
(tsS'anchors'
p17
(tsssS'org.robofab.postScriptHintData'
p18
(dp19
s."
LayerCount: 2
Fore
SplineSet
84 1045 m 1
 84 1289 l 1
 1029 792 l 1
 1029 652 l 1
 84 188 l 1
 84 442 l 1
 691 729 l 1
 84 1045 l 1
EndSplineSet
EndChar

StartChar: greaterequal
Encoding: 8805 8805 231
Width: 1192
VWidth: 0
GlyphClass: 2
Flags: HW
PickledData: "(dp1
S'org.pippin.gimp.org.kernagic'
p2
(dp3
S'lstem'
p4
I0
sS'rstem'
p5
I0
ssS'com.typemytype.robofont.layerData'
p6
(dp7
S'b'
(dp8
S'name'
p9
S'greaterequal'
p10
sS'lib'
p11
(dp12
sS'unicodes'
p13
(tsS'width'
p14
I1192
sS'contours'
p15
(tsS'components'
p16
(tsS'anchors'
p17
(tsssS'org.robofab.postScriptHintData'
p18
(dp19
s."
LayerCount: 2
Fore
SplineSet
142 215 m 1
 142 445 l 1
 831 754 l 1
 143 1080 l 1
 143 1304 l 1
 1066 819 l 1
 1066 690 l 1
 142 215 l 1
137 3 m 1
 137 181 l 1
 1069 180 l 1
 1069 3 l 1
 137 3 l 1
EndSplineSet
EndChar

StartChar: guillemotleft
Encoding: 171 171 232
Width: 1048
VWidth: 0
GlyphClass: 2
Flags: HW
PickledData: "(dp1
S'org.pippin.gimp.org.kernagic'
p2
(dp3
S'lstem'
p4
I0
sS'rstem'
p5
I0
ssS'com.typemytype.robofont.layerData'
p6
(dp7
S'b'
(dp8
S'name'
p9
S'guillemotleft'
p10
sS'lib'
p11
(dp12
sS'unicodes'
p13
(tsS'width'
p14
I994
sS'contours'
p15
(tsS'components'
p16
(tsS'anchors'
p17
(tsssS'org.robofab.postScriptHintData'
p18
(dp19
s."
LayerCount: 2
Fore
SplineSet
356 129 m 1
 38 572 l 1
 358 1020 l 1
 549 1020 l 1
 295 575 l 1
 544 129 l 1
 356 129 l 1
788 129 m 1
 470 572 l 1
 789 1020 l 1
 980 1020 l 1
 728 575 l 1
 976 129 l 1
 788 129 l 1
EndSplineSet
EndChar

StartChar: guillemotright
Encoding: 187 187 233
Width: 1048
VWidth: 0
GlyphClass: 2
Flags: HW
PickledData: "(dp1
S'org.pippin.gimp.org.kernagic'
p2
(dp3
S'lstem'
p4
I0
sS'rstem'
p5
I0
ssS'com.typemytype.robofont.layerData'
p6
(dp7
sS'org.robofab.postScriptHintData'
p8
(dp9
s."
LayerCount: 2
Fore
SplineSet
248 129 m 1
 56 129 l 1
 314 571 l 1
 70 1020 l 1
 254 1020 l 1
 571 580 l 1
 248 129 l 1
663 129 m 1
 474 129 l 1
 729 571 l 1
 492 1020 l 1
 672 1020 l 1
 989 580 l 1
 663 129 l 1
EndSplineSet
EndChar

StartChar: guilsinglleft
Encoding: 8249 8249 234
Width: 920
VWidth: 0
GlyphClass: 2
Flags: HW
PickledData: "(dp1
S'org.robofab.postScriptHintData'
p2
(dp3
s."
LayerCount: 2
Fore
SplineSet
480 171 m 1
 209 597 l 1
 488 1036 l 1
 687 1036 l 1
 424 594 l 1
 683 171 l 1
 480 171 l 1
EndSplineSet
EndChar

StartChar: guilsinglright
Encoding: 8250 8250 235
Width: 766
VWidth: 0
GlyphClass: 2
Flags: HW
PickledData: "(dp1
S'org.pippin.gimp.org.kernagic'
p2
(dp3
S'lstem'
p4
I0
sS'rstem'
p5
I0
ssS'com.typemytype.robofont.layerData'
p6
(dp7
S'b'
(dp8
S'name'
p9
S'guilsinglright'
p10
sS'lib'
p11
(dp12
sS'unicodes'
p13
(tsS'width'
p14
I766
sS'contours'
p15
(tsS'components'
p16
(tsS'anchors'
p17
(tsssS'org.robofab.postScriptHintData'
p18
(dp19
s."
LayerCount: 2
Fore
SplineSet
133 171 m 1
 398 588 l 1
 150 992 l 1
 350 992 l 1
 614 586 l 1
 334 171 l 1
 133 171 l 1
EndSplineSet
EndChar

StartChar: h
Encoding: 104 104 236
Width: 1273
VWidth: 0
GlyphClass: 2
Flags: HW
PickledData: "(dp1
S'org.pippin.gimp.org.kernagic'
p2
(dp3
S'lstem'
p4
I0
sS'rstem'
p5
I0
ssS'com.typemytype.robofont.layerData'
p6
(dp7
sS'com.fontlab.hintData'
p8
(dp9
S'vhints'
p10
((dp11
S'position'
p12
I193
sS'width'
p13
I122
s(dp14
g12
I910
sg13
I122
stp15
sS'hhints'
p16
((dp17
g12
I982
sg13
I92
stp18
ssS'org.robofab.postScriptHintData'
p19
(dp20
s."
HStem: 982 92
VStem: 193 122 910 122
AnchorPoint: "mid" 401 1249 basechar 0
AnchorPoint: "top" 535 1522 basechar 0
LayerCount: 2
Fore
SplineSet
137 0 m 1
 137 1540 l 1
 497 1560 l 1
 497 1159 l 1
 491 903 l 1
 542 1020 635 1102 805 1102 c 0
 1046 1102 1156 939 1156 673 c 2
 1156 0 l 1
 795 0 l 1
 795 626 l 2
 795 819 751 873 660 873 c 0
 565 873 497 799 497 621 c 2
 497 0 l 1
 137 0 l 1
EndSplineSet
EndChar

StartChar: hungarumlaut
Encoding: 733 733 239
Width: 983
VWidth: 0
GlyphClass: 4
Flags: HW
PickledData: "(dp1
S'org.robofab.postScriptHintData'
p2
(dp3
sS'com.typemytype.robofont.layerData'
p4
(dp5
s."
AnchorPoint: "top" 402 1081 mark 0
LayerCount: 2
Fore
SplineSet
122 1259 m 1
 279 1663 l 1
 550 1663 l 1
 294 1259 l 1
 122 1259 l 1
500 1259 m 1
 645 1663 l 1
 942 1663 l 1
 662 1259 l 1
 500 1259 l 1
EndSplineSet
EndChar

StartChar: hyphen
Encoding: 45 45 240
Width: 960
VWidth: 0
GlyphClass: 4
Flags: HW
PickledData: "(dp1
S'org.pippin.gimp.org.kernagic'
p2
(dp3
S'lstem'
p4
I0
sS'rstem'
p5
I0
ssS'com.typemytype.robofont.layerData'
p6
(dp7
sS'org.robofab.postScriptHintData'
p8
(dp9
s."
AnchorPoint: "mid" 482 532 mark 0
LayerCount: 2
Fore
SplineSet
143 422 m 1
 143 646 l 1
 826 646 l 1
 826 422 l 1
 143 422 l 1
EndSplineSet
EndChar

StartChar: infinity
Encoding: 8734 8734 252
Width: 1784
VWidth: 0
GlyphClass: 2
Flags: HW
PickledData: "(dp1
S'org.pippin.gimp.org.kernagic'
p2
(dp3
S'lstem'
p4
I0
sS'rstem'
p5
I0
ssS'com.typemytype.robofont.layerData'
p6
(dp7
S'b'
(dp8
S'name'
p9
S'infinity'
p10
sS'lib'
p11
(dp12
sS'unicodes'
p13
(tsS'width'
p14
I1647
sS'contours'
p15
(tsS'components'
p16
(tsS'anchors'
p17
(tsssS'org.robofab.postScriptHintData'
p18
(dp19
s."
LayerCount: 2
Fore
SplineSet
899 764 m 1
 1015 926 1143 1044 1320 1044 c 0
 1548 1044 1676 880 1676 657 c 0
 1676 422 1519 256 1318 256 c 0
 1163 256 1038 348 899 535 c 1
 778 372 646 256 477 256 c 0
 249 256 115 450 115 675 c 0
 115 879 274 1044 473 1044 c 0
 646 1044 775 931 899 764 c 1
745 652 m 1
 665 767 578 838 472 838 c 0
 363 838 295 753 295 652 c 0
 295 560 370 465 479 465 c 0
 574 465 664 541 745 652 c 1
1488 680 m 0
 1488 764 1417 838 1316 838 c 0
 1219 838 1135 759 1058 654 c 1
 1156 524 1228 465 1320 465 c 0
 1435 465 1488 549 1488 680 c 0
EndSplineSet
EndChar

StartChar: integral
Encoding: 8747 8747 253
Width: 740
VWidth: 0
GlyphClass: 2
Flags: HW
PickledData: "(dp1
S'org.pippin.gimp.org.kernagic'
p2
(dp3
S'lstem'
p4
I0
sS'rstem'
p5
I0
ssS'com.typemytype.robofont.layerData'
p6
(dp7
S'b'
(dp8
S'name'
p9
S'integral'
p10
sS'lib'
p11
(dp12
sS'unicodes'
p13
(tsS'width'
p14
I994
sS'contours'
p15
(tsS'components'
p16
(tsS'anchors'
p17
(tsssS'org.robofab.postScriptHintData'
p18
(dp19
s."
LayerCount: 2
Fore
SplineSet
208 1188 m 2
 208 1467 314 1640 536 1640 c 0
 589 1640 649 1629 721 1612 c 1
 721 1411 l 1
 694 1414 667 1418 646 1418 c 0
 535 1418 505 1357 505 1197 c 2
 505 -36 l 2
 505 -320 377 -504 146 -504 c 0
 96 -504 36 -496 -35 -477 c 1
 -35 -219 l 1
 1 -224 34 -231 63 -231 c 0
 128 -231 208 -225 208 -44 c 2
 208 1188 l 2
EndSplineSet
EndChar

StartChar: k
Encoding: 107 107 258
Width: 1218
VWidth: 0
GlyphClass: 2
Flags: HW
PickledData: "(dp1
S'org.pippin.gimp.org.kernagic'
p2
(dp3
S'lstem'
p4
I0
sS'rstem'
p5
I671
ssS'com.typemytype.robofont.layerData'
p6
(dp7
sS'org.robofab.postScriptHintData'
p8
(dp9
s."
AnchorPoint: "bot" 661 0 basechar 0
LayerCount: 2
Fore
SplineSet
137 0 m 1
 137 1540 l 1
 497 1560 l 1
 497 840 l 1
 492 701 l 1
 818 1082 l 1
 1191 1082 l 1
 1191 1064 l 1
 814 613 l 1
 1206 31 l 1
 1206 0 l 1
 846 0 l 1
 544 475 l 1
 497 427 l 1
 497 0 l 1
 137 0 l 1
EndSplineSet
EndChar

StartChar: kgreenlandic
Encoding: 312 312 260
Width: 1189
VWidth: 0
GlyphClass: 2
Flags: HW
PickledData: "(dp1
S'org.robofab.postScriptHintData'
p2
(dp3
s."
LayerCount: 2
Fore
SplineSet
108 0 m 1
 108 1082 l 1
 383 1082 l 1
 383 841 l 1
 377 624 l 1
 755 1082 l 1
 1075 1082 l 1
 1075 1064 l 1
 671 587 l 1
 1098 7 l 1
 1098 0 l 1
 780 0 l 1
 459 439 l 1
 383 359 l 1
 383 0 l 1
 108 0 l 1
EndSplineSet
EndChar

StartChar: l
Encoding: 108 108 261
Width: 769
VWidth: 0
GlyphClass: 2
Flags: HW
PickledData: "(dp1
S'org.pippin.gimp.org.kernagic'
p2
(dp3
S'lstem'
p4
I0
sS'rstem'
p5
I238
ssS'com.typemytype.robofont.layerData'
p6
(dp7
sS'com.fontlab.hintData'
p8
(dp9
S'vhints'
p10
((dp11
S'position'
p12
I193
sS'width'
p13
I122
stp14
sS'hhints'
p15
((dp16
g12
I-11
sg13
I87
stp17
ssS'org.robofab.postScriptHintData'
p18
(dp19
s."
HStem: -11 87
VStem: 193 122
AnchorPoint: "mid" 322 877 basechar 0
AnchorPoint: "top" 318 1555 basechar 0
LayerCount: 2
Fore
SplineSet
629 -10 m 2
 608 -11 587 -11 567 -11 c 0
 252 -11 134 95 134 361 c 2
 134 1540 l 1
 494 1560 l 1
 494 329 l 2
 494 276 514 234 592 229 c 2
 592 229 725 219 737 219 c 2
 738 219 l 1
 725 -6 l 1
 629 -10 l 2
EndSplineSet
EndChar

StartChar: less
Encoding: 60 60 266
Width: 1107
VWidth: 0
GlyphClass: 2
Flags: HW
PickledData: "(dp1
S'org.pippin.gimp.org.kernagic'
p2
(dp3
S'lstem'
p4
I0
sS'rstem'
p5
I0
ssS'com.typemytype.robofont.layerData'
p6
(dp7
S'b'
(dp8
S'name'
p9
S'less'
p10
sS'lib'
p11
(dp12
sS'unicodes'
p13
(tsS'width'
p14
I1107
sS'contours'
p15
(tsS'components'
p16
(tsS'anchors'
p17
(tsssS'org.robofab.postScriptHintData'
p18
(dp19
s."
LayerCount: 2
Fore
SplineSet
1001 187 m 1
 55 652 l 1
 55 792 l 1
 1001 1288 l 1
 1001 1044 l 1
 393 729 l 1
 1001 441 l 1
 1001 187 l 1
EndSplineSet
EndChar

StartChar: lessequal
Encoding: 8804 8804 267
Width: 1192
VWidth: 0
GlyphClass: 2
Flags: HW
PickledData: "(dp1
S'org.robofab.postScriptHintData'
p2
(dp3
sS'com.typemytype.robofont.layerData'
p4
(dp5
s."
LayerCount: 2
Fore
SplineSet
1049 325 m 1
 131 743 l 1
 131 877 l 1
 1053 1302 l 1
 1053 1078 l 1
 408 812 l 1
 1049 554 l 1
 1049 325 l 1
112 -6 m 1
 112 169 l 1
 1053 170 l 1
 1053 -6 l 1
 112 -6 l 1
EndSplineSet
EndChar

StartChar: logicalnot
Encoding: 172 172 268
Width: 1195
VWidth: 0
GlyphClass: 2
Flags: HW
PickledData: "(dp1
S'org.pippin.gimp.org.kernagic'
p2
(dp3
S'lstem'
p4
I0
sS'rstem'
p5
I0
ssS'com.typemytype.robofont.layerData'
p6
(dp7
sS'org.robofab.postScriptHintData'
p8
(dp9
s."
LayerCount: 2
Fore
SplineSet
93 854 m 1
 1098 854 l 1
 1098 249 l 1
 882 249 l 1
 882 636 l 1
 93 636 l 1
 93 854 l 1
EndSplineSet
EndChar

StartChar: lozenge
Encoding: 9674 9674 269
Width: 1218
VWidth: 0
GlyphClass: 2
Flags: HW
PickledData: "(dp1
S'org.pippin.gimp.org.kernagic'
p2
(dp3
S'lstem'
p4
I0
sS'rstem'
p5
I0
ssS'com.typemytype.robofont.layerData'
p6
(dp7
S'b'
(dp8
S'name'
p9
S'lozenge'
p10
sS'lib'
p11
(dp12
sS'unicodes'
p13
(tsS'width'
p14
I1164
sS'contours'
p15
(tsS'components'
p16
(tsS'anchors'
p17
(tsssS'org.robofab.postScriptHintData'
p18
(dp19
s."
LayerCount: 2
Fore
SplineSet
541 1522 m 1
 680 1522 l 1
 1121 736 l 1
 670 -45 l 1
 534 -45 l 1
 95 736 l 1
 541 1522 l 1
935 739 m 1
 735 1123 809 930 611 1318 c 1
 403 933 487 1125 282 738 c 1
 482 351 392 543 596 158 c 1
 803 546 728 351 935 739 c 1
EndSplineSet
EndChar

StartChar: m
Encoding: 109 109 271
Width: 1914
VWidth: 0
GlyphClass: 2
Flags: HW
PickledData: "(dp1
S'org.pippin.gimp.org.kernagic'
p2
(dp3
S'lstem'
p4
I0
sS'rstem'
p5
I0
ssS'com.typemytype.robofont.layerData'
p6
(dp7
sS'com.fontlab.hintData'
p8
(dp9
S'vhints'
p10
((dp11
S'position'
p12
I193
sS'width'
p13
I122
s(dp14
g12
I193
sg13
I98
s(dp15
g12
I845
sg13
I122
s(dp16
g12
I1483
sg13
I122
stp17
sS'hhints'
p18
((dp19
g12
I982
sg13
I92
stp20
ssS'org.robofab.postScriptHintData'
p21
(dp22
s."
HStem: 982 92
VStem: 193 122 193 98 845 122 1483 122
AnchorPoint: "top" 1069 1082 basechar 0
LayerCount: 2
Fore
SplineSet
128 0 m 1
 128 1082 l 1
 437 1082 l 1
 456 907 l 1
 510 1012 605 1102 775 1102 c 1
 834 1066 1036 1056 1101 901 c 1
 1153 1007 1250 1102 1430 1102 c 0
 1670 1102 1797 940 1797 675 c 2
 1797 0 l 1
 1437 0 l 1
 1437 625 l 2
 1437 813 1395 873 1303 873 c 0
 1218 873 1144 781 1142 670 c 1
 1142 0 l 1
 782 0 l 1
 782 622 l 2
 782 818 738 873 648 873 c 0
 560 873 490 803 488 624 c 1
 488 0 l 1
 128 0 l 1
EndSplineSet
EndChar

StartChar: macron
Encoding: 175 175 272
Width: 1039
VWidth: 0
GlyphClass: 4
Flags: HW
PickledData: "(dp1
S'org.robofab.postScriptHintData'
p2
(dp3
sS'com.typemytype.robofont.layerData'
p4
(dp5
s."
AnchorPoint: "mid" 509 1335 mark 0
AnchorPoint: "top" 518 1081 mark 0
LayerCount: 2
Fore
SplineSet
159 1265 m 1
 159 1419 l 1
 874 1419 l 1
 874 1265 l 1
 159 1265 l 1
EndSplineSet
EndChar

StartChar: minus
Encoding: 8722 8722 274
Width: 1218
VWidth: 0
GlyphClass: 2
Flags: HW
PickledData: "(dp1
S'org.pippin.gimp.org.kernagic'
p2
(dp3
S'lstem'
p4
I0
sS'rstem'
p5
I0
ssS'com.typemytype.robofont.layerData'
p6
(dp7
sS'org.robofab.postScriptHintData'
p8
(dp9
s."
LayerCount: 2
Fore
SplineSet
93 666 m 1
 1136 666 l 1
 1136 457 l 1
 93 457 l 1
 93 666 l 1
EndSplineSet
EndChar

StartChar: multiply
Encoding: 215 215 275
Width: 994
VWidth: 0
GlyphClass: 2
Flags: HW
PickledData: "(dp1
S'org.pippin.gimp.org.kernagic'
p2
(dp3
S'lstem'
p4
I0
sS'rstem'
p5
I0
ssS'com.typemytype.robofont.layerData'
p6
(dp7
sS'org.robofab.postScriptHintData'
p8
(dp9
s."
LayerCount: 2
Fore
SplineSet
92 794 m 1
 234 946 l 1
 504 672 l 1
 770 946 l 1
 914 794 l 1
 654 517 l 1
 727 441 915 247 915 247 c 1
 769 90 l 1
 504 360 l 1
 236 87 l 1
 93 246 l 1
 353 517 l 1
 92 794 l 1
EndSplineSet
EndChar

StartChar: n
Encoding: 110 110 276
Width: 1267
VWidth: 0
GlyphClass: 2
Flags: HW
PickledData: "(dp1
S'org.pippin.gimp.org.kernagic'
p2
(dp3
S'lstem'
p4
I0
sS'rstem'
p5
I0
ssS'com.typemytype.robofont.layerData'
p6
(dp7
sS'com.fontlab.hintData'
p8
(dp9
S'vhints'
p10
((dp11
S'position'
p12
I193
sS'width'
p13
I122
s(dp14
g12
I903
sg13
I122
stp15
sS'hhints'
p16
((dp17
g12
I0
sg13
I22
s(dp18
g12
I982
sg13
I92
s(dp19
g12
I1034
sg13
I21
stp20
ssS'org.robofab.postScriptHintData'
p21
(dp22
s."
HStem: 0 22 982 92 1034 21
VStem: 193 122 903 122
AnchorPoint: "bot" 654 0 basechar 0
AnchorPoint: "top" 702 1082 basechar 0
LayerCount: 2
Fore
SplineSet
131 0 m 1
 131 1082 l 1
 441 1082 l 1
 459 913 l 1
 511 1012 606 1102 782 1102 c 0
 1024 1102 1150 939 1150 671 c 2
 1150 0 l 1
 789 0 l 1
 789 627 l 2
 789 817 746 873 655 873 c 0
 561 873 492 802 492 622 c 2
 492 0 l 1
 131 0 l 1
EndSplineSet
EndChar

StartChar: nine
Encoding: 57 57 281
Width: 1378
VWidth: 0
GlyphClass: 2
Flags: HW
PickledData: "(dp1
S'org.pippin.gimp.org.kernagic'
p2
(dp3
S'lstem'
p4
I0
sS'rstem'
p5
I0
ssS'com.typemytype.robofont.layerData'
p6
(dp7
sS'org.robofab.postScriptHintData'
p8
(dp9
s."
LayerCount: 2
Fore
SplineSet
326 0 m 1
 326 31 l 1
 467 220 600 415 752 593 c 1
 706 573 648 558 588 558 c 0
 384 558 149 691 149 1010 c 0
 149 1287 359 1476 705 1476 c 0
 1059 1476 1262 1273 1262 989 c 0
 1262 815 1200 696 1107 564 c 2
 712 0 l 1
 326 0 l 1
703 757 m 2
 816 757 896 846 896 998 c 0
 896 1137 823 1228 704 1228 c 0
 585 1228 511 1137 511 998 c 0
 511 852 583 757 701 757 c 2
 703 757 l 2
EndSplineSet
EndChar

StartChar: notequal
Encoding: 8800 8800 282
Width: 1189
VWidth: 0
GlyphClass: 2
Flags: HW
PickledData: "(dp1
S'org.pippin.gimp.org.kernagic'
p2
(dp3
S'lstem'
p4
I0
sS'rstem'
p5
I0
ssS'com.typemytype.robofont.layerData'
p6
(dp7
S'b'
(dp8
S'name'
p9
S'notequal'
p10
sS'lib'
p11
(dp12
sS'unicodes'
p13
(tsS'width'
p14
I1079
sS'contours'
p15
(tsS'components'
p16
(tsS'anchors'
p17
(tsssS'org.robofab.postScriptHintData'
p18
(dp19
s."
LayerCount: 2
Fore
SplineSet
390 41 m 1
 204 71 l 1
 323 315 l 1
 70 315 l 1
 59 510 l 1
 412 510 l 1
 514 717 l 1
 70 717 l 1
 55 923 l 1
 600 923 l 1
 732 1179 l 1
 919 1152 l 1
 805 923 l 1
 1068 923 l 1
 1083 715 l 1
 715 715 l 1
 613 509 l 1
 1069 509 l 1
 1083 315 l 1
 523 315 l 1
 390 41 l 1
EndSplineSet
EndChar

StartChar: numbersign
Encoding: 35 35 284
Width: 1110
VWidth: 0
GlyphClass: 2
Flags: HW
PickledData: "(dp1
S'org.pippin.gimp.org.kernagic'
p2
(dp3
S'lstem'
p4
I0
sS'rstem'
p5
I0
ssS'com.typemytype.robofont.layerData'
p6
(dp7
sS'org.robofab.postScriptHintData'
p8
(dp9
s."
LayerCount: 2
Fore
SplineSet
153 1 m 1
 231 439 l 1
 63 439 l 1
 83 572 l 1
 254 572 l 1
 319 945 l 1
 128 945 l 1
 146 1082 l 1
 342 1082 l 1
 408 1465 l 1
 584 1465 l 1
 515 1082 l 1
 733 1082 l 1
 799 1465 l 1
 978 1465 l 1
 909 1082 l 1
 1058 1082 l 1
 1039 945 l 1
 886 945 l 1
 823 572 l 1
 977 572 l 1
 960 439 l 1
 800 439 l 1
 719 1 l 1
 543 1 l 1
 622 439 l 1
 404 439 l 1
 326 1 l 1
 153 1 l 1
430 572 m 1
 644 572 l 1
 709 945 l 1
 493 945 l 1
 430 572 l 1
EndSplineSet
EndChar

StartChar: o
Encoding: 111 111 285
Width: 1254
VWidth: 0
GlyphClass: 2
Flags: HW
PickledData: "(dp1
S'org.pippin.gimp.org.kernagic'
p2
(dp3
S'lstem'
p4
I0
sS'rstem'
p5
I0
ssS'com.typemytype.robofont.guides'
p6
((dp7
S'y'
I1093
sS'x'
I582
sS'magnetic'
p8
I5
sS'angle'
p9
F90
sS'isGlobal'
p10
I00
stp11
sS'com.typemytype.robofont.layerData'
p12
(dp13
sS'com.fontlab.hintData'
p14
(dp15
S'vhints'
p16
((dp17
S'position'
p18
I128
sS'width'
p19
I120
s(dp20
g18
I982
sg19
I120
stp21
sS'hhints'
p22
((dp23
g18
I-19
sg19
I92
s(dp24
g18
I982
sg19
I92
stp25
ssS'org.robofab.postScriptHintData'
p26
(dp27
s."
HStem: -19 92 982 92
VStem: 128 120 982 120
AnchorPoint: "ogonek" 665 0 basechar 0
AnchorPoint: "top" 628 1082 basechar 0
LayerCount: 2
Fore
SplineSet
628 208 m 0
 745 208 816 308 816 545 c 0
 816 778 748 873 628 873 c 0
 507 873 438 778 438 545 c 0
 438 306 508 208 628 208 c 0
628 -22 m 0
 287 -22 79 209 79 545 c 0
 79 874 290 1102 628 1102 c 0
 965 1102 1175 874 1175 545 c 0
 1175 209 967 -22 628 -22 c 0
EndSplineSet
EndChar

StartChar: oe
Encoding: 339 339 290
Width: 1844
VWidth: 0
GlyphClass: 2
Flags: HW
PickledData: "(dp1
S'org.pippin.gimp.org.kernagic'
p2
(dp3
S'lstem'
p4
I0
sS'rstem'
p5
I0
ssS'com.typemytype.robofont.layerData'
p6
(dp7
S'b'
(dp8
S'name'
p9
S'oe'
p10
sS'lib'
p11
(dp12
sS'unicodes'
p13
(tsS'width'
p14
F1915.3599999999999
sS'contours'
p15
(tsS'components'
p16
(tsS'anchors'
p17
(tsssS'org.robofab.postScriptHintData'
p18
(dp19
s."
LayerCount: 2
Fore
SplineSet
1745 557 m 0
 1745 477 1737 434 1737 434 c 1
 1081 434 l 1
 1114 240 1262 202 1374 202 c 0
 1486 202 1612 249 1645 291 c 1
 1659 291 l 1
 1735 111 l 1
 1679 47 1531 -17 1354 -17 c 0
 1183 -17 1030 59 940 161 c 1
 859 66 721 -16 569 -16 c 0
 261 -16 62 204 62 544 c 0
 62 879 263 1097 569 1097 c 0
 722 1097 871 1004 942 907 c 1
 1016 1004 1158 1097 1301 1097 c 0
 1597 1097 1745 875 1745 557 c 0
569 202 m 0
 723 202 798 310 798 545 c 0
 798 775 723 878 569 878 c 0
 415 878 340 775 340 545 c 0
 340 310 415 202 569 202 c 0
1086 615 m 1
 1498 615 l 1
 1486 824 1420 889 1316 889 c 0
 1209 889 1095 817 1086 615 c 1
EndSplineSet
EndChar

StartChar: ogonek
Encoding: 731 731 291
Width: 766
VWidth: 0
GlyphClass: 4
Flags: HW
PickledData: "(dp1
S'org.pippin.gimp.org.kernagic'
p2
(dp3
S'lstem'
p4
I0
sS'rstem'
p5
I0
ssS'com.typemytype.robofont.layerData'
p6
(dp7
sS'org.robofab.postScriptHintData'
p8
(dp9
s."
AnchorPoint: "ogonek" 481 0 mark 0
LayerCount: 2
Fore
SplineSet
451 -448 m 0
 340 -448 239 -389 239 -260 c 0
 239 -123 350 -40 426 4 c 1
 546 4 l 1
 464 -62 433 -147 433 -206 c 0
 433 -241 461 -282 503 -282 c 0
 562 -282 625 -254 637 -246 c 1
 646 -408 l 1
 582 -433 518 -448 451 -448 c 0
EndSplineSet
EndChar

StartChar: one
Encoding: 49 49 295
Width: 1378
VWidth: 0
GlyphClass: 2
Flags: HW
PickledData: "(dp1
S'org.pippin.gimp.org.kernagic'
p2
(dp3
S'lstem'
p4
I0
sS'rstem'
p5
I0
ssS'com.typemytype.robofont.layerData'
p6
(dp7
sS'org.robofab.postScriptHintData'
p8
(dp9
s."
LayerCount: 2
Fore
SplineSet
193 0 m 1
 193 251 l 1
 564 251 l 1
 564 1136 l 1
 456 1088 302 1038 194 1026 c 1
 194 1265 l 1
 330 1304 519 1378 621 1456 c 1
 953 1456 l 1
 953 251 l 1
 1279 251 l 1
 1279 0 l 1
 193 0 l 1
EndSplineSet
EndChar

StartChar: onehalf
Encoding: 189 189 296
Width: 1963
VWidth: 0
GlyphClass: 2
Flags: HW
PickledData: "(dp1
S'org.pippin.gimp.org.kernagic'
p2
(dp3
S'lstem'
p4
I0
sS'rstem'
p5
I0
ssS'com.typemytype.robofont.layerData'
p6
(dp7
sS'org.robofab.postScriptHintData'
p8
(dp9
s."
LayerCount: 2
Fore
SplineSet
1283 0 m 1
 1250 147 l 1
 1563 450 l 2
 1620 505 1650 563 1650 612 c 0
 1650 677 1598 717 1534 717 c 0
 1453 717 1364 670 1310 604 c 1
 1205 718 l 1
 1269 799 1385 885 1540 885 c 0
 1782 885 1857 740 1857 607 c 0
 1857 524 1812 423 1687 315 c 2
 1500 153 l 1
 1851 153 l 1
 1845 0 l 1
 1283 0 l 1
157 600 m 1
 157 744 l 1
 314 744 l 1
 314 1322 l 1
 277 1304 151 1244 148 1246 c 1
 148 1392 l 1
 201 1419 339 1495 365 1509 c 1
 523 1509 l 1
 523 744 l 1
 665 744 l 1
 665 600 l 1
 157 600 l 1
401 0 m 1
 1387 1509 l 1
 1595 1509 l 1
 609 0 l 1
 401 0 l 1
EndSplineSet
EndChar

StartChar: onequarter
Encoding: 188 188 297
Width: 1604
VWidth: 0
GlyphClass: 2
Flags: HW
PickledData: "(dp1
S'org.pippin.gimp.org.kernagic'
p2
(dp3
S'lstem'
p4
I0
sS'rstem'
p5
I0
ssS'com.typemytype.robofont.layerData'
p6
(dp7
sS'org.robofab.postScriptHintData'
p8
(dp9
s."
LayerCount: 2
Fore
SplineSet
115 600 m 1
 115 775 l 1
 271 775 l 1
 271 1293 l 1
 234 1276 97 1216 97 1219 c 2
 97 1392 l 1
 150 1417 276 1495 303 1507 c 1
 460 1507 l 1
 460 775 l 1
 596 775 l 1
 596 600 l 1
 115 600 l 1
1352 0 m 1
 1352 177 l 1
 988 177 l 1
 988 332 l 1
 1342 876 l 1
 1526 876 l 1
 1526 325 l 1
 1639 325 l 1
 1622 177 l 1
 1527 177 l 1
 1527 0 l 1
 1352 0 l 1
295 0 m 1
 1299 1507 l 1
 1517 1507 l 1
 522 0 l 1
 295 0 l 1
1181 325 m 1
 1353 325 l 1
 1353 642 l 1
 1181 325 l 1
EndSplineSet
EndChar

StartChar: ordmasculine
Encoding: 186 186 299
Width: 965
VWidth: 0
GlyphClass: 2
Flags: HW
PickledData: "(dp1
S'org.pippin.gimp.org.kernagic'
p2
(dp3
S'lstem'
p4
I0
sS'rstem'
p5
I0
ssS'com.typemytype.robofont.layerData'
p6
(dp7
S'b'
(dp8
S'name'
p9
S'ordmasculine'
p10
sS'lib'
p11
(dp12
sS'unicodes'
p13
(tsS'width'
p14
I965
sS'contours'
p15
(tsS'components'
p16
(tsS'anchors'
p17
(tsssS'org.robofab.postScriptHintData'
p18
(dp19
s."
LayerCount: 2
Fore
SplineSet
106 1134 m 0
 106 1368 237 1554 480 1554 c 0
 729 1554 855 1371 855 1134 c 0
 855 903 711 717 480 717 c 0
 237 717 106 902 106 1134 c 0
648 1131 m 0
 648 1294 588 1370 480 1370 c 0
 376 1370 320 1298 320 1134 c 0
 320 973 375 901 480 901 c 0
 593 901 648 972 648 1131 c 0
EndSplineSet
EndChar

StartChar: oslash
Encoding: 248 248 300
Width: 1254
VWidth: 0
GlyphClass: 2
Flags: HW
PickledData: "(dp1
S'org.pippin.gimp.org.kernagic'
p2
(dp3
S'lstem'
p4
I0
sS'rstem'
p5
I0
ssS'com.typemytype.robofont.layerData'
p6
(dp7
sS'org.robofab.postScriptHintData'
p8
(dp9
s."
LayerCount: 2
Fore
SplineSet
740 830 m 1
 471 322 l 1
 450 375 438 449 438 545 c 0
 438 778 507 873 628 873 c 0
 673 873 710 859 740 830 c 1
795 729 m 1
 809 681 816 620 816 545 c 0
 816 308 745 208 628 208 c 0
 591 208 559 217 532 237 c 1
 795 729 l 1
233 -126 m 1
 310 -178 l 1
 413 14 l 1
 477 -9 549 -22 628 -22 c 0
 967 -22 1175 209 1175 545 c 0
 1175 751 1092 918 947 1014 c 1
 1052 1209 l 1
 969 1261 l 1
 862 1059 l 1
 793 1087 715 1102 628 1102 c 0
 290 1102 79 874 79 545 c 0
 79 324 169 148 328 54 c 1
 233 -126 l 1
EndSplineSet
EndChar

StartChar: p
Encoding: 112 112 303
Width: 1272
VWidth: 0
GlyphClass: 2
Flags: HW
PickledData: "(dp1
S'org.pippin.gimp.org.kernagic'
p2
(dp3
S'lstem'
p4
I0
sS'rstem'
p5
I0
ssS'com.typemytype.robofont.layerData'
p6
(dp7
sS'com.fontlab.hintData'
p8
(dp9
S'vhints'
p10
((dp11
S'position'
p12
I193
sS'width'
p13
I122
s(dp14
g12
I193
sg13
I97
s(dp15
g12
I1009
sg13
I122
stp16
sS'hhints'
p17
((dp18
g12
I-19
sg13
I92
s(dp19
g12
I982
sg13
I92
stp20
ssS'org.robofab.postScriptHintData'
p21
(dp22
s."
HStem: -19 92 982 92
VStem: 193 122 193 97 1009 122
AnchorPoint: "top" 661 1082 basechar 0
LayerCount: 2
Fore
SplineSet
131 -476 m 1
 131 1082 l 1
 450 1082 l 1
 458 908 l 1
 505 1017 599 1102 760 1102 c 0
 1048 1102 1189 862 1189 549 c 0
 1189 216 1045 -20 749 -20 c 0
 617 -20 531 38 481 103 c 1
 485 -55 l 1
 485 -476 l 1
 131 -476 l 1
654 208 m 0
 741 208 830 262 830 549 c 0
 830 806 757 873 669 873 c 0
 580 873 516 825 486 750 c 1
 486 290 l 1
 521 246 569 208 654 208 c 0
EndSplineSet
EndChar

StartChar: paragraph
Encoding: 182 182 304
Width: 1246
VWidth: 0
GlyphClass: 2
Flags: HW
PickledData: "(dp1
S'org.pippin.gimp.org.kernagic'
p2
(dp3
S'lstem'
p4
I0
sS'rstem'
p5
I0
ssS'com.typemytype.robofont.layerData'
p6
(dp7
sS'org.robofab.postScriptHintData'
p8
(dp9
s."
LayerCount: 2
Fore
SplineSet
699 1304 m 1
 699 -255 l 1
 520 -255 l 1
 520 681 l 1
 233 681 99 859 99 1055 c 0
 99 1329 246 1456 661 1456 c 2
 1072 1456 l 1
 1072 -255 l 1
 893 -255 l 1
 893 1304 l 1
 699 1304 l 1
EndSplineSet
EndChar

StartChar: parenleft
Encoding: 40 40 305
Width: 876
VWidth: 0
GlyphClass: 2
Flags: HW
PickledData: "(dp1
S'org.pippin.gimp.org.kernagic'
p2
(dp3
S'lstem'
p4
I0
sS'rstem'
p5
I0
ssS'com.typemytype.robofont.layerData'
p6
(dp7
S'b'
(dp8
S'name'
p9
S'parenright'
p10
sS'lib'
p11
(dp12
sS'unicodes'
p13
(tsS'width'
p14
I766
sS'contours'
p15
(tsS'components'
p16
(tsS'anchors'
p17
(tsssS'org.robofab.postScriptHintData'
p18
(dp19
s."
LayerCount: 2
Fore
SplineSet
207 649 m 256
 207 1012 341 1417 490 1596 c 257
 738 1596 l 257
 738 1556 l 257
 605 1413 461 1148 461 649 c 256
 461 151 605 -125 738 -268 c 257
 738 -297 l 257
 490 -297 l 257
 341 -118 207 286 207 649 c 256
EndSplineSet
EndChar

StartChar: parenright
Encoding: 41 41 306
Width: 876
VWidth: 0
GlyphClass: 2
Flags: HW
PickledData: "(dp1
S'org.pippin.gimp.org.kernagic'
p2
(dp3
S'lstem'
p4
I0
sS'rstem'
p5
I0
ssS'com.typemytype.robofont.layerData'
p6
(dp7
S'b'
(dp8
S'name'
p9
S'parenright'
p10
sS'lib'
p11
(dp12
sS'unicodes'
p13
(tsS'width'
p14
I766
sS'contours'
p15
(tsS'components'
p16
(tsS'anchors'
p17
(tsssS'org.robofab.postScriptHintData'
p18
(dp19
s."
LayerCount: 2
Fore
SplineSet
670 649 m 0
 670 286 536 -118 387 -297 c 1
 139 -297 l 1
 139 -268 l 1
 272 -125 416 151 416 649 c 0
 416 1148 272 1413 139 1556 c 1
 139 1596 l 1
 387 1596 l 1
 536 1417 670 1012 670 649 c 0
EndSplineSet
EndChar

StartChar: partialdiff
Encoding: 8706 8706 307
Width: 1384
VWidth: 0
GlyphClass: 2
Flags: HW
PickledData: "(dp1
S'org.robofab.postScriptHintData'
p2
(dp3
s."
LayerCount: 2
Fore
SplineSet
558 -21 m 0
 315 -21 201 130 201 315 c 0
 201 591 455 941 911 969 c 1
 911 987 l 2
 911 1231 767 1379 576 1379 c 0
 500 1379 416 1355 332 1305 c 1
 273 1457 l 1
 391 1528 510 1560 622 1560 c 0
 932 1560 1185 1311 1185 931 c 0
 1185 397 945 -21 558 -21 c 0
572 136 m 0
 766 136 879 542 903 824 c 1
 637 775 499 453 499 267 c 0
 499 189 523 136 572 136 c 0
EndSplineSet
EndChar

StartChar: percent
Encoding: 37 37 308
Width: 2227
VWidth: 0
GlyphClass: 2
Flags: HW
PickledData: "(dp1
S'org.pippin.gimp.org.kernagic'
p2
(dp3
S'lstem'
p4
I0
sS'rstem'
p5
I0
ssS'com.typemytype.robofont.layerData'
p6
(dp7
S'b'
(dp8
S'name'
p9
S'percent'
p10
sS'lib'
p11
(dp12
sS'unicodes'
p13
(tsS'width'
p14
I1563
sS'contours'
p15
(tsS'components'
p16
(tsS'anchors'
p17
(tsssS'org.robofab.postScriptHintData'
p18
(dp19
s."
LayerCount: 2
Fore
SplineSet
529 914 m 0
 643 914 721 1013 721 1139 c 0
 721 1268 642 1360 529 1360 c 0
 414 1360 332 1264 332 1139 c 0
 332 1012 414 914 529 914 c 0
525 720 m 0
 273 720 115 902 115 1135 c 0
 115 1367 277 1547 525 1547 c 0
 776 1547 947 1370 947 1135 c 0
 947 902 773 720 525 720 c 0
578 0 m 1
 1434 1527 l 1
 1673 1527 l 1
 826 0 l 1
 578 0 l 1
1736 157 m 0
 1850 157 1928 258 1928 382 c 0
 1928 511 1849 603 1736 603 c 0
 1621 603 1539 506 1539 382 c 0
 1539 256 1621 157 1736 157 c 0
1732 -38 m 0
 1480 -38 1311 145 1311 379 c 0
 1311 610 1484 788 1732 788 c 0
 1983 788 2154 615 2154 379 c 0
 2154 145 1980 -38 1732 -38 c 0
EndSplineSet
EndChar

StartChar: period
Encoding: 46 46 309
Width: 734
VWidth: 0
GlyphClass: 2
Flags: HW
PickledData: "(dp1
S'org.pippin.gimp.org.kernagic'
p2
(dp3
S'lstem'
p4
I0
sS'rstem'
p5
I0
ssS'com.typemytype.robofont.layerData'
p6
(dp7
S'b'
(dp8
S'name'
p9
S'period'
p10
sS'lib'
p11
(dp12
sS'unicodes'
p13
(tsS'width'
p14
I624
sS'contours'
p15
(tsS'components'
p16
(tsS'anchors'
p17
(tsssS'org.robofab.postScriptHintData'
p18
(dp19
s."
LayerCount: 2
Fore
SplineSet
360 -6 m 0
 269 -6 189 44 189 155 c 0
 189 268 267 322 360 322 c 0
 455 322 531 268 531 155 c 0
 531 46 455 -6 360 -6 c 0
EndSplineSet
EndChar

StartChar: periodcentered
Encoding: 183 183 310
Width: 597
VWidth: 0
GlyphClass: 2
Flags: HW
PickledData: "(dp1
S'org.pippin.gimp.org.kernagic'
p2
(dp3
S'lstem'
p4
I0
sS'rstem'
p5
I0
ssS'com.typemytype.robofont.layerData'
p6
(dp7
S'b'
(dp8
S'name'
p9
S'periodcentered'
p10
sS'lib'
p11
(dp12
sS'unicodes'
p13
(tsS'width'
p14
I653
sS'contours'
p15
(tsS'components'
p16
(tsS'anchors'
p17
(tsssS'org.robofab.postScriptHintData'
p18
(dp19
s."
LayerCount: 2
Fore
SplineSet
492 447 m 0
 387 447 320 517 320 628 c 0
 320 735 387 802 492 802 c 0
 596 802 662 735 662 628 c 0
 662 517 596 447 492 447 c 0
EndSplineSet
EndChar

StartChar: perthousand
Encoding: 8240 8240 311
Width: 3221
VWidth: 0
GlyphClass: 2
Flags: HW
PickledData: "(dp1
S'org.pippin.gimp.org.kernagic'
p2
(dp3
S'lstem'
p4
I0
sS'rstem'
p5
I0
ssS'com.typemytype.robofont.layerData'
p6
(dp7
S'b'
(dp8
S'name'
p9
S'perthousand'
p10
sS'lib'
p11
(dp12
sS'unicodes'
p13
(tsS'width'
p14
I2251
sS'contours'
p15
(tsS'components'
p16
(tsS'anchors'
p17
(tsssS'org.robofab.postScriptHintData'
p18
(dp19
s."
LayerCount: 2
Fore
SplineSet
2730 157 m 0
 2844 157 2923 258 2923 382 c 0
 2923 511 2843 603 2730 603 c 0
 2615 603 2533 506 2533 382 c 0
 2533 256 2615 157 2730 157 c 0
2726 -38 m 0
 2474 -38 2305 145 2305 379 c 0
 2305 610 2478 788 2726 788 c 0
 2978 788 3149 615 3149 379 c 0
 3149 145 2975 -38 2726 -38 c 0
EndSplineSet
Refer: 308 37 N 1 0 0 1 49 0 2
EndChar

StartChar: pi
Encoding: 960 960 312
Width: 1490
VWidth: 0
GlyphClass: 2
Flags: HW
PickledData: "(dp1
S'org.robofab.postScriptHintData'
p2
(dp3
sS'com.typemytype.robofont.layerData'
p4
(dp5
s."
LayerCount: 2
Fore
SplineSet
1149 -13 m 0
 1030 -13 905 4 905 181 c 0
 905 299 930 654 972 841 c 1
 653 841 l 1
 627 319 l 2
 617 104 548 4 207 4 c 1
 207 110 l 1
 256 110 392 171 421 383 c 2
 485 841 l 1
 419 841 l 2
 340 841 301 788 289 712 c 1
 195 712 l 1
 195 927 268 1082 502 1082 c 2
 1382 1082 l 1
 1382 841 l 1
 1147 841 l 1
 1139 629 1137 256 1137 154 c 0
 1137 151 1139 150 1144 150 c 0
 1160 150 1200 163 1237 163 c 2
 1269 163 l 2
 1290 163 1305 164 1324 170 c 1
 1324 43 l 1
 1291 11 1227 -13 1149 -13 c 0
EndSplineSet
EndChar

StartChar: plus
Encoding: 43 43 313
Width: 1190
VWidth: 0
GlyphClass: 2
Flags: HW
PickledData: "(dp1
S'org.pippin.gimp.org.kernagic'
p2
(dp3
S'lstem'
p4
I0
sS'rstem'
p5
I0
ssS'com.typemytype.robofont.layerData'
p6
(dp7
S'b'
(dp8
S'name'
p9
S'plus'
p10
sS'lib'
p11
(dp12
sS'unicodes'
p13
(tsS'width'
p14
I1136
sS'contours'
p15
(tsS'components'
p16
(tsS'anchors'
p17
(tsssS'org.robofab.postScriptHintData'
p18
(dp19
s."
LayerCount: 2
Fore
SplineSet
470 1232 m 1
 719 1232 l 1
 719 860 l 1
 1085 860 l 1
 1085 617 l 1
 718 617 l 1
 718 237 l 1
 470 237 l 1
 470 617 l 1
 103 617 l 1
 103 860 l 1
 470 860 l 1
 470 1232 l 1
EndSplineSet
EndChar

StartChar: plusminus
Encoding: 177 177 314
Width: 1136
VWidth: 0
GlyphClass: 2
Flags: HW
PickledData: "(dp1
S'org.pippin.gimp.org.kernagic'
p2
(dp3
S'lstem'
p4
I0
sS'rstem'
p5
I0
ssS'com.typemytype.robofont.layerData'
p6
(dp7
sS'org.robofab.postScriptHintData'
p8
(dp9
s."
LayerCount: 2
Fore
SplineSet
458 1229 m 1
 694 1229 l 1
 694 888 l 1
 1049 888 l 1
 1049 657 l 1
 693 657 l 1
 693 327 l 1
 458 327 l 1
 458 657 l 1
 103 657 l 1
 103 888 l 1
 458 888 l 1
 458 1229 l 1
105 202 m 1
 1043 202 l 1
 1043 0 l 1
 105 0 l 1
 105 202 l 1
EndSplineSet
EndChar

StartChar: product
Encoding: 8719 8719 315
Width: 1589
VWidth: 0
GlyphClass: 2
Flags: HW
PickledData: "(dp1
S'org.pippin.gimp.org.kernagic'
p2
(dp3
S'lstem'
p4
I0
sS'rstem'
p5
I0
ssS'com.typemytype.robofont.layerData'
p6
(dp7
S'b'
(dp8
S'name'
p9
S'product'
p10
sS'lib'
p11
(dp12
sS'unicodes'
p13
(tsS'width'
p14
I1533
sS'contours'
p15
(tsS'components'
p16
(tsS'anchors'
p17
(tsssS'org.robofab.postScriptHintData'
p18
(dp19
s."
LayerCount: 2
Fore
SplineSet
207 1538 m 1
 1390 1538 l 1
 1390 0 l 1
 1210 0 l 1
 1210 1374 l 1
 387 1374 l 1
 387 0 l 1
 207 0 l 1
 207 1538 l 1
EndSplineSet
EndChar

StartChar: q
Encoding: 113 113 316
Width: 1261
VWidth: 0
GlyphClass: 2
Flags: HW
PickledData: "(dp1
S'org.pippin.gimp.org.kernagic'
p2
(dp3
S'lstem'
p4
I0
sS'rstem'
p5
I0
ssS'com.typemytype.robofont.layerData'
p6
(dp7
sS'org.robofab.postScriptHintData'
p8
(dp9
s."
LayerCount: 2
Fore
SplineSet
787 -476 m 1
 787 -51 l 1
 791 104 l 1
 740 39 654 -20 524 -20 c 0
 226 -20 83 216 83 550 c 0
 83 863 227 1102 515 1102 c 0
 673 1102 766 1021 814 918 c 1
 822 1082 l 1
 1140 1082 l 1
 1140 -476 l 1
 787 -476 l 1
619 208 m 0
 704 208 752 246 785 289 c 1
 785 773 l 1
 750 835 685 873 606 873 c 0
 518 873 441 807 441 550 c 0
 441 262 531 208 619 208 c 0
EndSplineSet
EndChar

StartChar: question
Encoding: 63 63 317
Width: 1074
VWidth: 0
GlyphClass: 2
Flags: HW
PickledData: "(dp1
S'org.pippin.gimp.org.kernagic'
p2
(dp3
S'lstem'
p4
I0
sS'rstem'
p5
I0
ssS'com.typemytype.robofont.layerData'
p6
(dp7
sS'org.robofab.postScriptHintData'
p8
(dp9
s."
LayerCount: 2
Fore
SplineSet
323 506 m 1
 448 869 601 953 601 1095 c 0
 601 1174 560 1239 448 1239 c 0
 373 1239 278 1210 199 1166 c 1
 114 1411 l 1
 217 1513 390 1553 508 1553 c 0
 731 1553 930 1425 930 1205 c 0
 930 821 597 783 399 478 c 1
 323 506 l 1
366 -19 m 0
 265 -19 204 44 204 141 c 0
 204 239 265 301 366 301 c 0
 462 301 522 239 522 141 c 0
 522 44 462 -19 366 -19 c 0
EndSplineSet
EndChar

StartChar: quotedbl
Encoding: 34 34 319
Width: 868
VWidth: 0
GlyphClass: 2
Flags: HW
PickledData: "(dp1
S'org.robofab.postScriptHintData'
p2
(dp3
sS'com.typemytype.robofont.layerData'
p4
(dp5
s."
LayerCount: 2
Fore
SplineSet
184 910 m 1
 88 1557 l 1
 389 1557 l 1
 341 910 l 1
 184 910 l 1
585 910 m 1
 490 1557 l 1
 791 1557 l 1
 743 910 l 1
 585 910 l 1
EndSplineSet
EndChar

StartChar: quotedblbase
Encoding: 8222 8222 320
Width: 963
VWidth: 0
GlyphClass: 2
Flags: HW
PickledData: "(dp1
S'org.robofab.postScriptHintData'
p2
(dp3
s."
LayerCount: 2
Fore
SplineSet
104 -380 m 1
 141 141 l 1
 439 141 l 1
 315 -380 l 1
 104 -380 l 1
518 -380 m 1
 554 141 l 1
 852 141 l 1
 729 -380 l 1
 518 -380 l 1
EndSplineSet
EndChar

StartChar: quotedblleft
Encoding: 8220 8220 321
Width: 975
VWidth: 0
GlyphClass: 2
Flags: HW
PickledData: "(dp1
S'org.robofab.postScriptHintData'
p2
(dp3
sS'com.typemytype.robofont.layerData'
p4
(dp5
s."
LayerCount: 2
Fore
SplineSet
114 1033 m 1
 238 1555 l 1
 450 1555 l 1
 414 1033 l 1
 114 1033 l 1
540 1033 m 1
 664 1555 l 1
 876 1555 l 1
 840 1033 l 1
 540 1033 l 1
EndSplineSet
EndChar

StartChar: quotedblright
Encoding: 8221 8221 322
Width: 975
VWidth: 0
GlyphClass: 2
Flags: HW
PickledData: "(dp1
S'org.robofab.postScriptHintData'
p2
(dp3
sS'com.typemytype.robofont.layerData'
p4
(dp5
s."
LayerCount: 2
Fore
SplineSet
540 1033 m 1
 576 1555 l 1
 876 1555 l 1
 752 1033 l 1
 540 1033 l 1
114 1033 m 1
 150 1555 l 1
 450 1555 l 1
 326 1033 l 1
 114 1033 l 1
EndSplineSet
EndChar

StartChar: quoteleft
Encoding: 8216 8216 323
Width: 530
VWidth: 0
GlyphClass: 2
Flags: HW
PickledData: "(dp1
S'org.robofab.postScriptHintData'
p2
(dp3
sS'com.typemytype.robofont.layerData'
p4
(dp5
s."
LayerCount: 2
Fore
SplineSet
450 1555 m 1
 414 1033 l 1
 114 1033 l 1
 238 1555 l 1
 450 1555 l 1
EndSplineSet
EndChar

StartChar: quoteright
Encoding: 8217 8217 324
Width: 530
VWidth: 0
GlyphClass: 2
Flags: HW
PickledData: "(dp1
S'org.robofab.postScriptHintData'
p2
(dp3
sS'com.typemytype.robofont.layerData'
p4
(dp5
s."
LayerCount: 2
Fore
SplineSet
114 1033 m 1
 150 1555 l 1
 450 1555 l 1
 326 1033 l 1
 114 1033 l 1
EndSplineSet
EndChar

StartChar: quotesinglbase
Encoding: 8218 8218 325
Width: 524
VWidth: 0
GlyphClass: 2
Flags: HW
PickledData: "(dp1
S'org.robofab.postScriptHintData'
p2
(dp3
s."
LayerCount: 2
Fore
SplineSet
104 -380 m 1
 140 141 l 1
 438 141 l 1
 315 -380 l 1
 104 -380 l 1
EndSplineSet
EndChar

StartChar: quotesingle
Encoding: 39 39 326
Width: 633
VWidth: 0
GlyphClass: 2
Flags: HW
PickledData: "(dp1
S'org.robofab.postScriptHintData'
p2
(dp3
s."
LayerCount: 2
Fore
SplineSet
237 906 m 1
 142 1555 l 1
 442 1555 l 1
 395 906 l 1
 237 906 l 1
EndSplineSet
EndChar

StartChar: r
Encoding: 114 114 327
Width: 877
VWidth: 0
GlyphClass: 2
Flags: HW
PickledData: "(dp1
S'org.pippin.gimp.org.kernagic'
p2
(dp3
S'lstem'
p4
I0
sS'rstem'
p5
I352
ssS'com.typemytype.robofont.layerData'
p6
(dp7
sS'com.fontlab.hintData'
p8
(dp9
S'vhints'
p10
((dp11
S'position'
p12
I193
sS'width'
p13
I122
s(dp14
g12
I193
sg13
I92
stp15
sS'hhints'
p16
((dp17
g12
I974
sg13
I94
stp18
ssS'org.robofab.postScriptHintData'
p19
(dp20
s."
HStem: 974 94
VStem: 193 122 193 92
AnchorPoint: "bot" 362 0 basechar 0
AnchorPoint: "top" 423 1082 basechar 0
LayerCount: 2
Fore
SplineSet
121 0 m 1
 121 1082 l 1
 435 1082 l 1
 453 909 l 1
 514 1038 626 1088 718 1088 c 0
 746 1088 799 1086 854 1075 c 1
 832 815 l 1
 774 822 l 2
 763 823 751 824 740 824 c 0
 605 824 481 747 481 609 c 2
 481 0 l 1
 121 0 l 1
EndSplineSet
EndChar

StartChar: radical
Encoding: 8730 8730 329
Width: 1379
VWidth: 0
GlyphClass: 2
Flags: HW
PickledData: "(dp1
S'org.pippin.gimp.org.kernagic'
p2
(dp3
S'lstem'
p4
I0
sS'rstem'
p5
I0
ssS'com.typemytype.robofont.layerData'
p6
(dp7
S'b'
(dp8
S'name'
p9
S'radical'
p10
sS'lib'
p11
(dp12
sS'unicodes'
p13
(tsS'width'
p14
I1136
sS'contours'
p15
(tsS'components'
p16
(tsS'anchors'
p17
(tsssS'org.robofab.postScriptHintData'
p18
(dp19
s."
LayerCount: 2
Fore
SplineSet
1050 1573 m 1
 1348 1573 l 1
 830 -168 l 1
 534 -168 l 1
 187 777 l 1
 45 736 l 1
 15 861 l 1
 362 964 l 1
 451 703 544 445 629 180 c 1
 640 226 1039 1527 1050 1573 c 1
EndSplineSet
EndChar

StartChar: registered
Encoding: 174 174 332
Width: 1902
VWidth: 0
GlyphClass: 2
Flags: HW
PickledData: "(dp1
S'org.pippin.gimp.org.kernagic'
p2
(dp3
S'lstem'
p4
I0
sS'rstem'
p5
I0
ssS'com.typemytype.robofont.layerData'
p6
(dp7
sS'org.robofab.postScriptHintData'
p8
(dp9
s."
LayerCount: 2
Fore
SplineSet
602 322 m 1
 602 1187 l 1
 883 1187 l 2
 1090 1187 1236 1151 1236 945 c 0
 1236 825 1187 758 1035 718 c 1
 1036 716 1283 322 1283 322 c 1
 1081 322 l 1
 1081 322 853 706 852 707 c 1
 775 707 l 1
 775 322 l 1
 602 322 l 1
774 823 m 1
 858 823 l 2
 998 823 1064 841 1064 938 c 0
 1064 1049 1018 1055 899 1055 c 0
 857 1055 816 1055 774 1055 c 1
 774 823 l 1
902 103 m 0
 1239 103 1513 377 1513 729 c 0
 1513 1080 1239 1353 902 1353 c 0
 565 1353 291 1080 291 729 c 0
 291 377 565 103 902 103 c 0
902 -55 m 0
 469 -55 118 286 118 729 c 0
 118 1170 469 1511 902 1511 c 0
 1334 1511 1686 1170 1686 729 c 0
 1686 286 1334 -55 902 -55 c 0
EndSplineSet
EndChar

StartChar: ring
Encoding: 730 730 333
Width: 817
VWidth: 0
GlyphClass: 4
Flags: HW
PickledData: "(dp1
S'org.robofab.postScriptHintData'
p2
(dp3
sS'com.typemytype.robofont.layerData'
p4
(dp5
s."
AnchorPoint: "top" 383 1081 mark 0
LayerCount: 2
Fore
SplineSet
385 1307 m 0
 446 1307 479 1357 479 1413 c 0
 479 1465 446 1519 385 1519 c 0
 326 1519 295 1465 295 1413 c 0
 295 1355 322 1307 385 1307 c 0
385 1192 m 0
 243 1192 158 1298 158 1414 c 0
 158 1531 242 1634 385 1634 c 0
 531 1634 615 1529 615 1414 c 0
 615 1298 528 1192 385 1192 c 0
EndSplineSet
EndChar

StartChar: s
Encoding: 115 115 334
Width: 1011
VWidth: 0
GlyphClass: 2
Flags: HW
PickledData: "(dp1
S'org.pippin.gimp.org.kernagic'
p2
(dp3
S'lstem'
p4
I168
sS'rstem'
p5
I620
ssS'com.typemytype.robofont.guides'
p6
((dp7
S'y'
I381
sS'x'
I77
sS'magnetic'
p8
I5
sS'angle'
p9
F90
sS'isGlobal'
p10
I00
stp11
sS'com.typemytype.robofont.layerData'
p12
(dp13
sS'com.fontlab.hintData'
p14
(dp15
S'vhints'
p16
((dp17
S'position'
p18
I142
sS'width'
p19
I107
s(dp20
g18
I738
sg19
I104
stp21
sS'hhints'
p22
((dp23
g18
I-19
sg19
I92
s(dp24
g18
I982
sg19
I92
stp25
ssS'org.robofab.postScriptHintData'
p26
(dp27
s."
HStem: -19 92 982 92
VStem: 142 107 738 104
AnchorPoint: "bot" 518 0 basechar 0
AnchorPoint: "top" 484 1081 basechar 0
LayerCount: 2
Fore
SplineSet
517 1102 m 0
 699 1102 866 1052 953 906 c 1
 798 763 l 1
 784 763 l 1
 725 836 637 863 573 864 c 0
 513 864 471 838 471 790 c 0
 471 760 487 732 566 698 c 2
 715 633 l 2
 939 536 970 446 970 313 c 0
 970 96 769 -20 545 -20 c 0
 326 -20 169 46 55 193 c 1
 219 346 l 1
 249 346 l 1
 340 231 449 213 527 213 c 0
 602 213 629 255 629 303 c 0
 629 340 605 371 497 411 c 2
 388 451 l 1
 186 528 95 619 95 780 c 0
 95 979 259 1102 517 1102 c 0
EndSplineSet
EndChar

StartChar: section
Encoding: 167 167 340
Width: 1023
VWidth: 0
GlyphClass: 2
Flags: HW
PickledData: "(dp1
S'org.pippin.gimp.org.kernagic'
p2
(dp3
S'lstem'
p4
I0
sS'rstem'
p5
I0
ssS'com.typemytype.robofont.layerData'
p6
(dp7
S'b'
(dp8
S'name'
p9
S'section'
p10
sS'lib'
p11
(dp12
sS'unicodes'
p13
(tsS'width'
p14
I1079
sS'contours'
p15
(tsS'components'
p16
(tsS'anchors'
p17
(tsssS'org.robofab.postScriptHintData'
p18
(dp19
s."
LayerCount: 2
Fore
SplineSet
496 -21 m 0
 393 -21 265 15 171 65 c 1
 171 302 l 1
 233 264 379 207 491 207 c 0
 573 207 621 244 621 314 c 0
 621 362 588 398 426 468 c 0
 255 543 163 604 163 735 c 0
 163 825 230 902 310 963 c 1
 204 1035 150 1114 150 1226 c 0
 150 1486 371 1548 542 1548 c 0
 638 1548 768 1514 873 1444 c 1
 812 1261 l 1
 747 1297 648 1323 566 1323 c 0
 489 1323 436 1301 436 1247 c 0
 436 1199 449 1173 675 1076 c 0
 844 1002 899 921 899 808 c 0
 899 698 845 630 779 574 c 1
 854 513 889 436 889 352 c 0
 889 79 726 -21 496 -21 c 0
652 646 m 0
 672 664 686 687 686 713 c 0
 686 751 659 791 576 832 c 0
 517 861 428 896 427 896 c 0
 407 887 380 856 380 818 c 0
 380 771 422 751 575 680 c 0
 587 676 649 647 652 646 c 0
EndSplineSet
EndChar

StartChar: semicolon
Encoding: 59 59 341
Width: 764
VWidth: 0
GlyphClass: 2
Flags: HW
PickledData: "(dp1
S'org.pippin.gimp.org.kernagic'
p2
(dp3
S'lstem'
p4
I0
sS'rstem'
p5
I0
ssS'com.typemytype.robofont.layerData'
p6
(dp7
sS'org.robofab.postScriptHintData'
p8
(dp9
s."
LayerCount: 2
Fore
SplineSet
203 -350 m 1
 203 -350 240 218 240 281 c 1
 537 281 l 1
 537 104 l 1
 413 -350 l 1
 203 -350 l 1
384 787 m 0
 292 787 212 838 212 948 c 0
 212 1060 290 1116 384 1116 c 0
 480 1116 557 1060 557 948 c 0
 557 840 480 787 384 787 c 0
EndSplineSet
EndChar

StartChar: seven
Encoding: 55 55 342
Width: 1378
VWidth: 0
GlyphClass: 2
Flags: HW
PickledData: "(dp1
S'org.pippin.gimp.org.kernagic'
p2
(dp3
S'lstem'
p4
I0
sS'rstem'
p5
I0
ssS'com.typemytype.robofont.layerData'
p6
(dp7
sS'org.robofab.postScriptHintData'
p8
(dp9
s."
LayerCount: 2
Fore
SplineSet
320 0 m 1
 813 1196 l 1
 194 1196 l 1
 185 1456 l 1
 1201 1456 l 1
 1207 1190 l 1
 714 0 l 1
 320 0 l 1
EndSplineSet
EndChar

StartChar: six
Encoding: 54 54 343
Width: 1378
VWidth: 0
GlyphClass: 2
Flags: HW
PickledData: "(dp1
S'org.pippin.gimp.org.kernagic'
p2
(dp3
S'lstem'
p4
I0
sS'rstem'
p5
I0
ssS'com.typemytype.robofont.layerData'
p6
(dp7
sS'org.robofab.postScriptHintData'
p8
(dp9
s."
LayerCount: 2
Fore
SplineSet
686 -20 m 0
 333 -20 130 183 130 467 c 0
 130 641 192 760 284 893 c 2
 674 1456 l 1
 1074 1456 l 1
 1074 1425 l 1
 929 1236 790 1042 637 861 c 1
 683 881 740 898 802 898 c 0
 1010 898 1243 766 1243 448 c 0
 1243 171 1035 -20 686 -20 c 0
686 229 m 0
 805 229 878 320 878 459 c 0
 878 606 805 699 687 699 c 0
 574 699 494 610 494 458 c 0
 494 319 568 229 686 229 c 0
EndSplineSet
EndChar

StartChar: slash
Encoding: 47 47 344
Width: 1021
VWidth: 0
GlyphClass: 2
Flags: HW
PickledData: "(dp1
S'org.pippin.gimp.org.kernagic'
p2
(dp3
S'lstem'
p4
I0
sS'rstem'
p5
I0
ssS'com.typemytype.robofont.layerData'
p6
(dp7
S'b'
(dp8
S'name'
p9
S'slash'
p10
sS'lib'
p11
(dp12
sS'unicodes'
p13
(tsS'width'
p14
I965
sS'contours'
p15
(tsS'components'
p16
(tsS'anchors'
p17
(tsssS'org.robofab.postScriptHintData'
p18
(dp19
s."
LayerCount: 2
Fore
SplineSet
58 -183 m 1
 707 1560 l 1
 927 1560 l 1
 274 -183 l 1
 58 -183 l 1
EndSplineSet
EndChar

StartChar: slashbar
Encoding: 65543 -1 345
Width: 315
VWidth: 0
GlyphClass: 4
Flags: HW
PickledData: "(dp1
S'org.pippin.gimp.org.kernagic'
p2
(dp3
S'lstem'
p4
I0
sS'rstem'
p5
I0
ssS'com.typemytype.robofont.layerData'
p6
(dp7
S'b'
(dp8
S'name'
p9
S'slashbar'
p10
sS'lib'
p11
(dp12
sS'unicodes'
p13
(tsS'width'
p14
I908
sS'contours'
p15
(tsS'components'
p16
(tsS'anchors'
p17
(tsssS'org.robofab.postScriptHintData'
p18
(dp19
s."
AnchorPoint: "mid" 413 660 mark 0
LayerCount: 2
Fore
SplineSet
140 446 m 1
 140 689 l 1
 818 917 l 1
 818 673 l 1
 140 446 l 1
EndSplineSet
EndChar

StartChar: sterling
Encoding: 163 163 347
Width: 1220
VWidth: 0
GlyphClass: 2
Flags: HW
PickledData: "(dp1
S'org.pippin.gimp.org.kernagic'
p2
(dp3
S'lstem'
p4
I0
sS'rstem'
p5
I0
ssS'com.typemytype.robofont.layerData'
p6
(dp7
S'b'
(dp8
S'name'
p9
S'sterling'
p10
sS'lib'
p11
(dp12
sS'unicodes'
p13
(tsS'width'
p14
I1136
sS'contours'
p15
((dp16
S'points'
p17
((dp18
S'segmentType'
p19
S'line'
p20
sS'x'
I20
sS'smooth'
p21
I00
sS'y'
I0
s(dp22
g19
S'line'
p23
sS'x'
I8
sg21
I00
sS'y'
I115
s(dp24
g19
S'line'
p25
sS'x'
I180
sg21
I00
sS'y'
I132
s(dp26
g19
S'line'
p27
sS'x'
I180
sg21
I00
sS'y'
I683
s(dp28
g19
S'line'
p29
sS'x'
I8
sg21
I00
sS'y'
I683
s(dp30
g19
S'line'
p31
sS'x'
I8
sg21
I00
sS'y'
I806
s(dp32
g19
S'line'
p33
sS'x'
I180
sg21
I00
sS'y'
I806
s(dp34
g19
S'line'
p35
sS'x'
I180
sg21
I01
sS'y'
I920
s(dp36
S'y'
I1183
sS'x'
I180
sg21
I00
s(dp37
S'y'
I1476
sS'x'
I245
sg21
I00
s(dp38
g19
S'curve'
p39
sS'x'
I598
sg21
I01
sS'y'
I1476
s(dp40
S'y'
I1476
sS'x'
I742
sg21
I00
s(dp41
S'y'
I1421
sS'x'
I854
sg21
I00
s(dp42
g19
S'curve'
p43
sS'x'
I939
sg21
I00
sS'y'
I1347
s(dp44
g19
S'line'
p45
sS'x'
I871
sg21
I00
sS'y'
I1229
s(dp46
S'y'
I1297
sS'x'
I785
sg21
I00
s(dp47
S'y'
I1334
sS'x'
I700
sg21
I00
s(dp48
g19
S'curve'
p49
sS'x'
I598
sg21
I01
sS'y'
I1334
s(dp50
S'y'
I1334
sS'x'
I397
sg21
I00
s(dp51
S'y'
I1179
sS'x'
I356
sg21
I00
s(dp52
g19
S'curve'
p53
sS'x'
I356
sg21
I01
sS'y'
I949
s(dp54
g19
S'line'
p55
sS'x'
I356
sg21
I00
sS'y'
I806
s(dp56
g19
S'line'
p57
sS'x'
I739
sg21
I00
sS'y'
I806
s(dp58
g19
S'line'
p59
sS'x'
I739
sg21
I00
sS'y'
I683
s(dp60
g19
S'line'
p61
sS'x'
I356
sg21
I00
sS'y'
I683
s(dp62
g19
S'line'
p63
sS'x'
I356
sg21
I00
sS'y'
I134
s(dp64
g19
S'line'
p65
sS'x'
I953
sg21
I00
sS'y'
I134
s(dp66
g19
S'line'
p67
sS'x'
I940
sg21
I00
sS'y'
I0
stp68
stp69
sS'components'
p70
(tsS'anchors'
p71
(tsssS'org.robofab.postScriptHintData'
p72
(dp73
s."
LayerCount: 2
Fore
SplineSet
1039 1212 m 1
 1018 1212 l 1
 946 1248 881 1269 821 1269 c 2
 819 1269 l 2
 702 1269 634 1191 634 1041 c 2
 634 871 l 1
 941 871 l 1
 941 666 l 1
 634 666 l 1
 634 251 l 1
 1134 251 l 1
 1130 0 l 1
 105 0 l 1
 95 227 l 1
 272 249 l 1
 272 666 l 1
 85 666 l 1
 85 871 l 1
 272 871 l 1
 272 981 l 2
 272 1334 397 1553 743 1553 c 0
 968 1553 1119 1453 1153 1426 c 1
 1039 1212 l 1
EndSplineSet
EndChar

StartChar: summation
Encoding: 8721 8721 348
Width: 1199
VWidth: 0
GlyphClass: 2
Flags: HW
PickledData: "(dp1
S'org.pippin.gimp.org.kernagic'
p2
(dp3
S'lstem'
p4
I0
sS'rstem'
p5
I0
ssS'com.typemytype.robofont.layerData'
p6
(dp7
S'b'
(dp8
S'name'
p9
S'summation'
p10
sS'lib'
p11
(dp12
sS'unicodes'
p13
(tsS'width'
p14
I1050
sS'contours'
p15
(tsS'components'
p16
(tsS'anchors'
p17
(tsssS'org.robofab.postScriptHintData'
p18
(dp19
s."
LayerCount: 2
Fore
SplineSet
72 1456 m 1
 1105 1456 l 1
 1105 1190 l 1
 501 1190 l 1
 928 594 l 1
 435 -3 l 1
 1138 -3 l 1
 1138 -274 l 1
 67 -274 l 1
 67 -52 l 1
 563 577 l 1
 72 1230 l 1
 72 1456 l 1
EndSplineSet
EndChar

StartChar: t
Encoding: 116 116 349
Width: 896
VWidth: 0
GlyphClass: 2
Flags: HW
PickledData: "(dp1
S'org.pippin.gimp.org.kernagic'
p2
(dp3
S'lstem'
p4
I189
sS'rstem'
p5
I480
ssS'com.typemytype.robofont.layerData'
p6
(dp7
sS'com.fontlab.hintData'
p8
(dp9
S'vhints'
p10
((dp11
S'position'
p12
I244
sS'width'
p13
I122
s(dp14
g12
I286
sg13
I80
stp15
sS'hhints'
p16
((dp17
g12
I-11
sg13
I83
stp18
ssS'org.robofab.postScriptHintData'
p19
(dp20
s."
HStem: -11 83
VStem: 244 122 286 80
AnchorPoint: "mid" 383 717 basechar 0
AnchorPoint: "bot" 515 0 basechar 0
AnchorPoint: "top" 428 1323 basechar 0
LayerCount: 2
Fore
SplineSet
637 -10 m 1
 247 -10 195 139 195 421 c 2
 195 876 l 1
 33 876 l 1
 40 1065 l 1
 205 1085 l 1
 224 1394 l 1
 549 1420 l 1
 549 1082 l 1
 837 1082 l 1
 837 876 l 1
 549 876 l 1
 549 409 l 2
 549 290 580 241 701 236 c 2
 861 229 l 1
 851 -3 l 1
 637 -10 l 1
EndSplineSet
EndChar

StartChar: thorn
Encoding: 254 254 354
Width: 1111
VWidth: 0
GlyphClass: 2
Flags: HW
PickledData: "(dp1
S'org.pippin.gimp.org.kernagic'
p2
(dp3
S'lstem'
p4
I0
sS'rstem'
p5
I0
ssS'com.typemytype.robofont.layerData'
p6
(dp7
S'b'
(dp8
S'name'
p9
S'thorn'
p10
sS'lib'
p11
(dp12
sS'unicodes'
p13
(tsS'width'
p14
I1221
sS'contours'
p15
(tsS'components'
p16
(tsS'anchors'
p17
(tsssS'org.robofab.postScriptHintData'
p18
(dp19
s."
LayerCount: 2
Fore
SplineSet
805 -20 m 0
 1102 -20 1249 216 1249 549 c 0
 1249 862 1109 1102 820 1102 c 0
 678 1102 585 1036 533 942 c 1
 543 1149 l 1
 543 1560 l 1
 188 1540 l 1
 188 -426 l 1
 544 -426 l 1
 544 95 l 1
 595 34 678 -20 805 -20 c 0
544 578 m 1
 548 814 640 873 736 873 c 0
 824 873 887 806 887 549 c 0
 887 299 810 208 722 208 c 0
 620 208 578 246 544 289 c 1
 544 578 l 1
EndSplineSet
EndChar

StartChar: three
Encoding: 51 51 355
Width: 1225
VWidth: 0
GlyphClass: 2
Flags: HW
PickledData: "(dp1
S'org.pippin.gimp.org.kernagic'
p2
(dp3
S'lstem'
p4
I0
sS'rstem'
p5
I0
ssS'com.typemytype.robofont.layerData'
p6
(dp7
sS'org.robofab.postScriptHintData'
p8
(dp9
s."
LayerCount: 2
Fore
SplineSet
557 -20 m 0
 260 -20 89 144 60 189 c 1
 203 374 l 1
 229 374 l 1
 283 316 387 248 528 248 c 0
 670 248 731 322 731 432 c 0
 731 597 601 623 403 623 c 2
 313 623 l 1
 292 835 l 1
 399 837 l 1
 608 837 712 872 712 1041 c 1
 707 1153 645 1204 519 1204 c 0
 420 1201 335 1165 254 1082 c 1
 233 1088 l 1
 74 1264 l 1
 151 1363 302 1476 543 1476 c 0
 842 1476 1065 1365 1070 1093 c 0
 1070 958 1026 795 775 754 c 1
 1033 725 1113 559 1113 417 c 0
 1113 94 822 -20 557 -20 c 0
EndSplineSet
EndChar

StartChar: threequarters
Encoding: 190 190 356
Width: 1718
VWidth: 0
GlyphClass: 2
Flags: HW
PickledData: "(dp1
S'org.pippin.gimp.org.kernagic'
p2
(dp3
S'lstem'
p4
I0
sS'rstem'
p5
I0
ssS'com.typemytype.robofont.layerData'
p6
(dp7
sS'org.robofab.postScriptHintData'
p8
(dp9
s."
LayerCount: 2
Fore
SplineSet
375 575 m 0
 280 575 179 599 94 646 c 1
 156 793 l 1
 212 751 293 725 368 725 c 0
 463 725 546 765 546 857 c 0
 546 931 501 981 382 981 c 2
 375 981 l 1
 256 980 l 1
 256 1126 l 1
 377 1126 l 2
 510 1126 525 1162 525 1221 c 0
 525 1294 463 1325 381 1325 c 0
 316 1325 235 1304 163 1264 c 1
 104 1389 l 1
 191 1442 307 1473 416 1473 c 0
 568 1473 703 1410 703 1244 c 0
 701 1166 670 1078 565 1058 c 1
 668 1038 721 945 721 850 c 0
 721 663 559 575 375 575 c 0
1464 0 m 1
 1464 177 l 1
 1100 177 l 1
 1100 332 l 1
 1454 876 l 1
 1639 876 l 1
 1639 325 l 1
 1752 325 l 1
 1734 177 l 1
 1640 177 l 1
 1640 0 l 1
 1464 0 l 1
409 0 m 1
 1413 1507 l 1
 1630 1507 l 1
 635 0 l 1
 409 0 l 1
1293 325 m 1
 1465 325 l 1
 1465 642 l 1
 1293 325 l 1
EndSplineSet
EndChar

StartChar: tilde
Encoding: 732 732 357
Width: 971
VWidth: 0
GlyphClass: 4
Flags: HW
PickledData: "(dp1
S'org.robofab.postScriptHintData'
p2
(dp3
sS'com.typemytype.robofont.layerData'
p4
(dp5
sS'com.fontlab.hintData'
p6
(dp7
S'vhints'
p8
((dp9
S'position'
p10
I169
sS'width'
p11
I63
s(dp12
g10
I657
sg11
I67
stp13
sS'hhints'
p14
((dp15
g10
I1301
sg11
I88
s(dp16
g10
I1400
sg11
I79
stp17
ss."
HStem: 1301 88 1400 79
VStem: 169 63 657 67
AnchorPoint: "top" 485 1081 mark 0
LayerCount: 2
Fore
SplineSet
148 1255 m 1
 148 1377 194 1525 359 1525 c 0
 498 1525 583 1443 639 1443 c 0
 666 1443 685 1463 701 1524 c 1
 843 1524 l 1
 843 1411 798 1255 643 1255 c 0
 530 1255 432 1354 365 1354 c 0
 330 1354 307 1328 290 1255 c 1
 148 1255 l 1
EndSplineSet
EndChar

StartChar: trademark
Encoding: 8482 8482 358
Width: 2050
VWidth: 0
GlyphClass: 2
Flags: HW
PickledData: "(dp1
S'org.robofab.postScriptHintData'
p2
(dp3
sS'com.typemytype.robofont.layerData'
p4
(dp5
S'b'
(dp6
S'name'
p7
S'trademark'
p8
sS'lib'
p9
(dp10
sS'unicodes'
p11
(tsS'width'
p12
I2216
sS'contours'
p13
(tsS'components'
p14
(tsS'anchors'
p15
(tsss."
LayerCount: 2
Fore
SplineSet
906 521 m 1
 926 1456 l 1
 1134 1456 l 1
 1412 879 l 1
 1687 1456 l 1
 1895 1456 l 1
 1915 521 l 1
 1720 521 l 1
 1701 1087 l 1
 1462 598 l 1
 1359 598 l 1
 1121 1088 l 1
 1102 521 l 1
 906 521 l 1
341 521 m 1
 341 1296 l 1
 86 1296 l 1
 86 1456 l 1
 804 1456 l 1
 804 1296 l 1
 549 1296 l 1
 549 521 l 1
 341 521 l 1
EndSplineSet
EndChar

StartChar: two
Encoding: 50 50 359
Width: 1378
VWidth: 0
GlyphClass: 2
Flags: HW
PickledData: "(dp1
S'org.pippin.gimp.org.kernagic'
p2
(dp3
S'lstem'
p4
I0
sS'rstem'
p5
I0
ssS'com.typemytype.robofont.layerData'
p6
(dp7
sS'org.robofab.postScriptHintData'
p8
(dp9
s."
LayerCount: 2
Fore
SplineSet
309 1027 m 1
 283 1027 l 1
 115 1204 l 1
 225 1336 415 1476 672 1476 c 0
 1073 1476 1199 1236 1199 1014 c 0
 1199 878 1129 740 928 551 c 2
 608 249 l 1
 1189 249 l 1
 1179 0 l 1
 241 0 l 1
 184 241 l 1
 726 774 l 2
 817 863 859 937 859 1021 c 0
 859 1133 781 1208 669 1208 c 0
 536 1208 397 1133 309 1027 c 1
EndSplineSet
EndChar

StartChar: u
Encoding: 117 117 360
Width: 1263
VWidth: 0
GlyphClass: 2
Flags: HW
PickledData: "(dp1
S'org.pippin.gimp.org.kernagic'
p2
(dp3
S'lstem'
p4
I0
sS'rstem'
p5
I0
ssS'com.typemytype.robofont.layerData'
p6
(dp7
sS'com.fontlab.hintData'
p8
(dp9
S'vhints'
p10
((dp11
S'position'
p12
I162
sS'width'
p13
I166
s(dp14
g12
I862
sg13
I166
stp15
sS'hhints'
p16
((dp17
g12
I-21
sg13
I126
stp18
ssS'org.robofab.postScriptHintData'
p19
(dp20
s."
HStem: -21 126
VStem: 162 166 862 166
AnchorPoint: "bot" 638 0 basechar 0
AnchorPoint: "ogonek" 985 0 basechar 0
AnchorPoint: "top" 633 1082 basechar 0
LayerCount: 2
Fore
SplineSet
776 296 m 1
 776 1082 l 1
 1136 1082 l 1
 1136 0 l 1
 826 0 l 1
 809 160 l 1
 755 64 659 -20 488 -20 c 0
 245 -20 117 142 117 409 c 2
 117 1082 l 1
 477 1082 l 1
 477 454 l 2
 477 264 522 209 614 209 c 0
 694 209 744 255 776 296 c 1
EndSplineSet
EndChar

StartChar: underscore
Encoding: 95 95 368
Width: 1001
VWidth: 0
GlyphClass: 2
Flags: HW
PickledData: "(dp1
S'org.pippin.gimp.org.kernagic'
p2
(dp3
S'lstem'
p4
I0
sS'rstem'
p5
I0
ssS'com.typemytype.robofont.layerData'
p6
(dp7
sS'org.robofab.postScriptHintData'
p8
(dp9
s."
LayerCount: 2
Fore
SplineSet
0 -288 m 1
 0 -89 l 1
 1001 -89 l 1
 1001 -288 l 1
 0 -288 l 1
EndSplineSet
EndChar

StartChar: uni00AD
Encoding: 173 173 371
Width: 1060
VWidth: 0
GlyphClass: 2
Flags: HW
PickledData: "(dp1
S'org.robofab.postScriptHintData'
p2
(dp3
s."
LayerCount: 2
Fore
SplineSet
200 89 m 1
 200 323 l 1
 849 323 l 1
 849 89 l 1
 200 89 l 1
EndSplineSet
EndChar

StartChar: uni00B2
Encoding: 178 178 372
Width: 846
VWidth: 0
GlyphClass: 2
Flags: HW
PickledData: "(dp1
S'org.robofab.postScriptHintData'
p2
(dp3
sS'com.typemytype.robofont.layerData'
p4
(dp5
s."
LayerCount: 2
Fore
SplineSet
157 593 m 1
 157 751 l 1
 250 848 265 817 468 1042 c 1
 483 1071 544 1152 544 1186 c 0
 544 1260 484 1305 433 1305 c 0
 362 1305 288 1274 246 1215 c 1
 165 1348 l 1
 229 1438 329 1478 456 1478 c 0
 592 1478 734 1374 734 1191 c 0
 734 1080 685 969 618 899 c 0
 516 798 575 870 444 753 c 1
 734 753 l 1
 715 593 l 1
 157 593 l 1
EndSplineSet
EndChar

StartChar: uni00B3
Encoding: 179 179 373
Width: 883
VWidth: 0
GlyphClass: 2
Flags: HW
PickledData: "(dp1
S'org.robofab.postScriptHintData'
p2
(dp3
sS'com.typemytype.robofont.layerData'
p4
(dp5
s."
LayerCount: 2
Fore
SplineSet
431 578 m 0
 333 578 231 603 146 650 c 1
 209 796 l 1
 263 754 346 727 423 727 c 0
 519 727 604 767 604 860 c 0
 604 934 558 985 439 985 c 2
 432 985 l 1
 311 983 l 1
 311 1127 l 1
 434 1127 l 2
 569 1127 584 1164 584 1223 c 0
 584 1297 520 1328 436 1328 c 0
 368 1328 287 1306 216 1266 c 1
 157 1390 l 1
 244 1443 361 1475 473 1475 c 0
 626 1475 760 1412 760 1245 c 0
 758 1165 727 1080 623 1060 c 1
 723 1041 777 948 777 851 c 0
 777 666 615 578 431 578 c 0
EndSplineSet
EndChar

StartChar: uni00B5
Encoding: 181 181 374
Width: 1244
VWidth: 0
GlyphClass: 2
Flags: HW
PickledData: "(dp1
S'org.robofab.postScriptHintData'
p2
(dp3
sS'com.typemytype.robofont.layerData'
p4
(dp5
s."
LayerCount: 2
Fore
SplineSet
776 296 m 1
 744 255 694 209 614 209 c 0
 522 209 477 264 477 454 c 2
 477 1082 l 1
 117 1082 l 1
 117 -328 l 1
 477 -328 l 1
 477 -20 l 1
 481 -20 484 -20 488 -20 c 0
 659 -20 755 64 809 160 c 1
 826 0 l 1
 1136 0 l 1
 1136 1082 l 1
 776 1082 l 1
 776 296 l 1
EndSplineSet
EndChar

StartChar: uni00B9
Encoding: 185 185 375
Width: 857
VWidth: 0
GlyphClass: 2
Flags: HW
PickledData: "(dp1
S'org.robofab.postScriptHintData'
p2
(dp3
sS'com.typemytype.robofont.layerData'
p4
(dp5
s."
LayerCount: 2
Fore
SplineSet
236 554 m 1
 236 727 l 1
 368 727 l 1
 368 1246 l 1
 331 1228 219 1170 219 1170 c 1
 219 1343 l 1
 267 1370 393 1446 419 1459 c 1
 578 1459 l 1
 578 727 l 1
 715 727 l 1
 715 554 l 1
 236 554 l 1
EndSplineSet
EndChar

StartChar: uni02C9
Encoding: 713 713 444
Width: 600
VWidth: 0
GlyphClass: 4
Flags: HW
PickledData: "(dp1
S'org.robofab.postScriptHintData'
p2
(dp3
s."
AnchorPoint: "top" 291 1081 mark 0
LayerCount: 2
Fore
SplineSet
-67 1350 m 1
 -67 1532 l 1
 650 1532 l 1
 650 1350 l 1
 -67 1350 l 1
EndSplineSet
EndChar

StartChar: uni0307
Encoding: 775 775 445
Width: 635
VWidth: 0
GlyphClass: 2
Flags: HW
PickledData: "(dp1
S'org.robofab.postScriptHintData'
p2
(dp3
sS'com.typemytype.robofont.layerData'
p4
(dp5
s."
LayerCount: 2
Fore
SplineSet
511 1456 m 0
 511 1345 438 1276 320 1276 c 0
 203 1276 129 1345 129 1456 c 0
 129 1562 203 1628 320 1628 c 0
 438 1628 511 1562 511 1456 c 0
EndSplineSet
EndChar

StartChar: uni2074
Encoding: 8308 8308 464
Width: 687
VWidth: 0
GlyphClass: 2
Flags: HW
PickledData: "(dp1
S'org.robofab.postScriptHintData'
p2
(dp3
sS'com.typemytype.robofont.layerData'
p4
(dp5
s."
LayerCount: 2
Fore
SplineSet
346 582 m 1
 346 761 l 1
 -15 761 l 1
 -15 916 l 1
 336 1459 l 1
 520 1459 l 1
 520 908 l 1
 633 908 l 1
 615 761 l 1
 520 761 l 1
 520 582 l 1
 346 582 l 1
177 908 m 1
 347 908 l 1
 347 1226 l 1
 177 908 l 1
EndSplineSet
EndChar

StartChar: uni2113
Encoding: 8467 8467 465
Width: 1361
VWidth: 0
GlyphClass: 2
Flags: HW
PickledData: "(dp1
S'org.robofab.postScriptHintData'
p2
(dp3
s."
LayerCount: 2
Fore
SplineSet
288 305 m 0
 288 351 292 401 304 457 c 1
 125 334 l 1
 66 452 l 1
 365 670 l 1
 562 1396 l 2
 621 1612 794 1708 964 1708 c 0
 1163 1708 1356 1579 1356 1343 c 0
 1356 1133 1253 1046 998 865 c 2
 712 662 l 1
 652 417 l 2
 644 385 640 358 640 335 c 0
 640 259 682 230 751 230 c 0
 826 230 923 262 1025 302 c 1
 1055 98 l 1
 1055 98 876 -20 601 -20 c 0
 415 -20 288 83 288 305 c 0
773 911 m 1
 833 954 928 1019 931 1019 c 0
 1096 1128 1175 1254 1175 1346 c 0
 1175 1430 1114 1485 1044 1485 c 0
 976 1485 899 1432 867 1298 c 2
 773 911 l 1
EndSplineSet
EndChar

StartChar: uni2206
Encoding: 8710 8710 467
Width: 1332
VWidth: 0
GlyphClass: 2
Flags: HW
PickledData: "(dp1
S'org.pippin.gimp.org.kernagic'
p2
(dp3
S'lstem'
p4
I0
sS'rstem'
p5
I0
ssS'com.typemytype.robofont.layerData'
p6
(dp7
S'b'
(dp8
S'name'
p9
S'uni2206'
p10
sS'lib'
p11
(dp12
sS'unicodes'
p13
(tsS'width'
p14
I1278
sS'contours'
p15
(tsS'components'
p16
(tsS'anchors'
p17
(tsssS'org.robofab.postScriptHintData'
p18
(dp19
s."
LayerCount: 2
Fore
SplineSet
574 1589 m 1
 766 1589 l 1
 1266 89 l 1
 1266 0 l 1
 72 0 l 1
 72 89 l 1
 574 1589 l 1
700 1231 m 1
 666 1354 l 1
 631 1231 l 1
 277 179 l 1
 1062 179 l 1
 700 1231 l 1
EndSplineSet
EndChar

StartChar: v
Encoding: 118 118 478
Width: 1101
VWidth: 0
GlyphClass: 2
Flags: HW
PickledData: "(dp1
S'org.pippin.gimp.org.kernagic'
p2
(dp3
S'lstem'
p4
I0
sS'rstem'
p5
I0
ssS'com.typemytype.robofont.guides'
p6
((dp7
S'y'
I552
sS'x'
I438
sS'magnetic'
p8
I5
sS'angle'
p9
I0
sS'isGlobal'
p10
I00
stp11
sS'com.typemytype.robofont.layerData'
p12
(dp13
sS'org.robofab.postScriptHintData'
p14
(dp15
s."
LayerCount: 2
Fore
SplineSet
377 0 m 1
 6 1082 l 1
 374 1082 l 1
 440 849 508 618 571 382 c 1
 620 621 680 850 736 1082 c 1
 1096 1082 l 1
 734 0 l 1
 377 0 l 1
EndSplineSet
EndChar

StartChar: w
Encoding: 119 119 479
Width: 1535
VWidth: 0
GlyphClass: 2
Flags: HW
PickledData: "(dp1
S'org.pippin.gimp.org.kernagic'
p2
(dp3
S'lstem'
p4
I0
sS'rstem'
p5
I0
ssS'com.typemytype.robofont.layerData'
p6
(dp7
sS'org.robofab.postScriptHintData'
p8
(dp9
s."
AnchorPoint: "top" 784 1082 basechar 0
LayerCount: 2
Fore
SplineSet
782 727 m 1
 578 -6 l 1
 259 -6 l 1
 2 1082 l 1
 333 1082 l 1
 443 334 l 1
 625 1082 l 1
 944 1082 l 1
 1100 349 l 1
 1225 1082 l 1
 1529 1082 l 1
 1265 -6 l 1
 930 -6 l 1
 782 727 l 1
EndSplineSet
EndChar

StartChar: x
Encoding: 120 120 484
Width: 1098
VWidth: 0
GlyphClass: 2
Flags: HW
PickledData: "(dp1
S'org.pippin.gimp.org.kernagic'
p2
(dp3
S'lstem'
p4
I0
sS'rstem'
p5
I0
ssS'com.typemytype.robofont.layerData'
p6
(dp7
sS'com.fontlab.hintData'
p8
(dp9
S'hhints'
p10
((dp11
S'position'
p12
I0
sS'width'
p13
I22
s(dp14
g12
I1034
sg13
I21
stp15
ssS'org.robofab.postScriptHintData'
p16
(dp17
s."
HStem: 0 22 1034 21
LayerCount: 2
Fore
SplineSet
744 545 m 1
 1107 -6 l 1
 726 -6 l 1
 537 283 l 1
 333 -6 l 1
 -4 -6 l 1
 367 543 l 1
 14 1082 l 1
 390 1082 l 1
 572 806 l 1
 752 1082 l 1
 1084 1082 l 1
 744 545 l 1
EndSplineSet
EndChar

StartChar: y
Encoding: 121 121 485
Width: 1136
VWidth: 0
GlyphClass: 2
Flags: HW
PickledData: "(dp1
S'org.pippin.gimp.org.kernagic'
p2
(dp3
S'lstem'
p4
I0
sS'rstem'
p5
I0
ssS'com.typemytype.robofont.layerData'
p6
(dp7
sS'org.robofab.postScriptHintData'
p8
(dp9
s."
AnchorPoint: "top" 552 1082 basechar 0
LayerCount: 2
Fore
SplineSet
1151 1082 m 1
 466 -453 l 1
 181 -341 l 1
 400 152 l 1
 -29 1082 l 1
 320 1082 l 1
 576 482 l 1
 819 1082 l 1
 1151 1082 l 1
EndSplineSet
EndChar

StartChar: yen
Encoding: 165 165 489
Width: 1348
VWidth: 0
GlyphClass: 2
Flags: HW
PickledData: "(dp1
S'org.pippin.gimp.org.kernagic'
p2
(dp3
S'lstem'
p4
I0
sS'rstem'
p5
I0
ssS'com.typemytype.robofont.layerData'
p6
(dp7
S'b'
(dp8
S'name'
p9
S'yen'
p10
sS'lib'
p11
(dp12
sS'unicodes'
p13
(tsS'width'
p14
I1366
sS'contours'
p15
(tsS'components'
p16
(tsS'anchors'
p17
(tsssS'org.robofab.postScriptHintData'
p18
(dp19
s."
LayerCount: 2
Fore
SplineSet
184 534 m 1
 184 675 l 1
 426 675 l 1
 0 1456 l 1
 400 1456 l 1
 672 927 l 1
 949 1456 l 1
 1348 1456 l 1
 919 675 l 1
 1136 675 l 1
 1136 534 l 1
 863 534 l 1
 863 381 l 1
 1136 381 l 1
 1136 239 l 1
 863 239 l 1
 863 0 l 1
 483 0 l 1
 483 239 l 1
 184 239 l 1
 184 381 l 1
 483 381 l 1
 483 534 l 1
 184 534 l 1
EndSplineSet
EndChar

StartChar: z
Encoding: 122 122 491
Width: 957
VWidth: 0
GlyphClass: 2
Flags: HW
PickledData: "(dp1
S'org.pippin.gimp.org.kernagic'
p2
(dp3
S'lstem'
p4
I0
sS'rstem'
p5
I0
ssS'com.typemytype.robofont.layerData'
p6
(dp7
sS'org.robofab.postScriptHintData'
p8
(dp9
s."
AnchorPoint: "bot" 508 0 basechar 0
AnchorPoint: "top" 476 1082 basechar 0
LayerCount: 2
Fore
SplineSet
71 1082 m 1
 900 1082 l 1
 900 889 l 1
 471 220 l 1
 927 220 l 1
 920 0 l 1
 66 0 l 1
 66 171 l 1
 512 870 l 1
 65 870 l 1
 71 1082 l 1
EndSplineSet
EndChar

StartChar: zero
Encoding: 48 48 495
Width: 1378
VWidth: 0
GlyphClass: 2
Flags: HW
PickledData: "(dp1
S'org.pippin.gimp.org.kernagic'
p2
(dp3
S'lstem'
p4
I0
sS'rstem'
p5
I0
ssS'com.typemytype.robofont.layerData'
p6
(dp7
S'b'
(dp8
S'name'
p9
S'zero'
p10
sS'lib'
p11
(dp12
sS'unicodes'
p13
(tsS'width'
p14
I1248
sS'contours'
p15
(tsS'components'
p16
(tsS'anchors'
p17
(tsssS'org.robofab.postScriptHintData'
p18
(dp19
s."
LayerCount: 2
Fore
SplineSet
690 251 m 0
 819 251 899 431 899 729 c 0
 899 1025 819 1204 690 1204 c 0
 564 1204 482 1022 479 729 c 0
 479 431 560 251 690 251 c 0
690 -20 m 0
 313 -20 81 269 81 729 c 0
 81 1187 314 1476 690 1476 c 0
 1065 1476 1297 1187 1297 729 c 0
 1297 269 1066 -20 690 -20 c 0
EndSplineSet
EndChar
